<?xml version="1.0" encoding="utf-8"?>
<!-- Generator: Adobe Illustrator 26.0.2, SVG Export Plug-In . SVG Version: 6.00 Build 0)  -->
<svg version="1.1" id="Livello_1" xmlns="http://www.w3.org/2000/svg" xmlns:xlink="http://www.w3.org/1999/xlink" x="0px" y="0px"
	 viewBox="0 0 1264.3 339.9" style="enable-background:new 0 0 1264.3 339.9;" xml:space="preserve">
<style type="text/css">
	.st0{fill:#E60000;}
</style>
<path class="st0" d="M413.4,244.3l-0.3,66.1c-0.2,1.2-1.3,2.1-2.6,1.9l-1-0.2c-1.2-0.2-2.1-1.3-1.9-2.6l-0.4-59.8
	c-0.5-1.6-1.8-2.8-3.5-3.1l0,0c-2.2-0.5-4.3,0.9-4.8,3.1c-0.1,0.3-0.1,0.7-0.1,1c0.4,6.4-0.7,19.6-0.5,23.8c0.1,3.4-5,17.7-7.1-9.9
	c-0.3-1.1-0.7-3.9-1.3-4.8c-1.9-3.4-6.2-4.6-9.6-2.8c-17.5,9.5-34.3,19.4-52.2,26.3c-7.2,2.8-18-3.8-28.3-6.4
	c19.6-38.8,49.7-63.3,78.1-89.2c21.7-19.7,45.4-37.3,68.1-55.9c10.9-8.9,21.1-18.7,32.5-26.9c9.1-6.5,19.2-11.7,29.4-16.2
	c3-1.3,11.2,1.4,11.4,2.7c0.4,4.8,0,11.2-3,14.6c-12.4,14.1-25.9,27.3-38.9,41c-4.1,4.3-7.6,9.1-9.6,16c13.2-5.8,26.6-11,39.5-17.4
	c45.5-22.8,93.1-40.2,141.3-56.1c23.4-7.7,46.3-16.9,69.6-25.2c5.5-1.9,11.3-3.8,17-3.8c4.4,0,11.7,1.9,12.7,4.7
	c1.8,5.2,2,12.8-0.6,17.5c-5.8,10.7-12.6,21.3-21,30c-12.9,13.3-27.8,24.7-41.2,37.6c-7.8,7.6-14.3,16.6-20.9,25.6
	c91.7-56.8,191.2-91.6,295.2-114.2c1.6-0.3,3.1,0.6,3.5,2.2l0.4,1.4c0.4,1.7-0.6,3.5-2.3,4C837.1,106.1,717.7,165,617.7,249.6
	c-3.1,2.7-7.9,2.3-10.5-0.8c-0.1-0.2-0.3-0.3-0.4-0.5c-10.3-14.7-8.7-29.6,5.3-46c17.1-20.1,33.7-40.7,51.2-60.4
	c6.4-7.2,15.3-12.2,22.2-19.1c9.9-9.9,18.9-20.6,26.8-33.3c-5.4,3.5-6.7,7.8-11.5,11.6c-1.2,0.9-2.8,0.9-4,0c-0.8-0.6-1.4-1.4-2-2.2
	c-0.9-1.4-2.7-2-4.3-1.4c-79,28.7-158.1,57.5-235.6,99.2c12.7-0.1,22.9-2.9,30.5,0.4c8.1,3.5,14.7,12,20,19.7
	c1.3,1.9,7.9,9.4,3.7,15.4c-1.8,2.6-9.1-2.2-11.9-3.5c5.4,2.6,2.6,1-6.7-3.1c-3.9-1.8-8.2-5.1-11.9-4.6c-11.6,1.4-23.1,3.5-34.4,6.4
	c-11.8,3-10.9,14-11,26.2c0,1.3-0.1,2.7-0.4,4c-0.1,0.6-0.7,0.9-1.2,0.8c-0.4-0.1-0.7-0.4-0.8-0.7c-0.9-3-1.6-4.6-2-5.8
	c-0.6-1.9-2.5-3.1-4.5-2.9c-0.8,0.1-1.3-4.8-2-4.8c-0.4,0-0.7,0.2-0.8,0.6l-0.4,4.9c1.8,8.7-1.5,8.1-4.4-0.9l0,0 M390.9,207.9
	l-27.6,20.2C384,230.3,391.7,223.6,390.9,207.9z"/>
</svg>
