<svg id="Livello_4" data-name="Livello 4" xmlns="http://www.w3.org/2000/svg" viewBox="0 0 343.39 367.12"><defs><style>.cls-1{fill:#241a17;}.cls-2{fill:#ec6145;}.cls-3{fill:#fefefe;}</style></defs><path class="cls-1" d="M798.65,453.71c-14.19-1.6-27.72,3.14-41.63,4.38-41.36,3.66-82.65,3.19-122.62-8.31-57.91-16.66-85.7-59-89.79-116.81-4.23-60,7.48-116.7,43.67-166.6,15.31-21.1,34.32-38.05,59.29-45.6,29.51-8.93,59.79-13.87,91-8,9.5,1.78,19.58-.07,29.3,2.76,55.06,16,88.76,53,104.73,107,10.43,35.25,16.12,71.25,14.15,108.19-2.35,44.28-18.66,81.16-57.2,105.68-8.45,5.38-18.15,8.8-27.37,12.9-2.24,1-5.66.47-3.57,4.59Zm-77.1-6.42c20.43,1.48,42.39-2,64.3-5.59,38.24-6.3,76.49-42.08,83.86-78.42,10.94-53.94,5.14-106.42-15.83-157-22.62-54.54-68.24-81.84-125-83.61a363.7,363.7,0,0,0-38.07,1c-38.64,2.87-70.95,18.15-93.5,50.59-35.88,51.64-47.07,109.52-39.07,170.9,5.78,44.39,30.21,76.5,73.31,91.22C659.83,446,689.69,448.25,721.55,447.29Z" transform="translate(-543.79 -110.21)"/><path class="cls-1" d="M798.65,453.87c6.82,12.63,6.82,12.64-8.34,16-52.43,11.57-104.72,8.52-157-1.16-5.63-1-7.61-4-6.66-9,1.07-5.55,4.33-2.72,7.93-2.13,49.53,8,99.15,11.53,148.89,1.45,4.18-.84,8.64-.17,12.94-.51,3.15-.25,5.93-1.16,2.25-4.82Z" transform="translate(-543.79 -110.21)"/><path class="cls-2" d="M721.55,447.29c-31.86,1-61.72-1.26-90-10.93-43.1-14.72-67.53-46.83-73.31-91.22-8-61.38,3.19-119.26,39.07-170.9,22.55-32.44,54.86-47.72,93.5-50.59a363.7,363.7,0,0,1,38.07-1c56.79,1.77,102.41,29.07,125,83.61,21,50.57,26.77,103,15.83,157-7.37,36.34-45.62,72.12-83.86,78.42C763.94,445.31,742,448.77,721.55,447.29Zm2.9-112.68h38.09c12.7,0,25.4.05,38.09.05,25.94,0,42.43-14.78,45.67-40.35,3.48-27.43-2.71-53.61-9.66-79.71-8.5-31.9-29.11-49.53-62.09-50.3q-61.26-1.44-122.58.26c-12.23.35-25.27,2.6-35.1,12.91-26.32,27.61-30.75,62.36-33,97.89-1.9,30.25,17.18,52.26,47.92,57.29S693.58,333.12,724.45,334.61Zm95.42,23.1c.32,20.56-5.16,38.45-14.85,55.23-2.1,3.64-5.53,8.16-.23,11.37,5.87,3.54,8.65-1.9,10.87-5.86,10.2-18.19,16.9-37.52,16-58.64-.26-6.37,3.44-17.43-6-17.75C813.84,341.67,822.19,353.11,819.87,357.71ZM712.41,132.46a164.87,164.87,0,0,0-36,2.46c-3.23.6-6.74.44-8,3.65-1.36,3.36,2,5.65,3.67,8.18a5.62,5.62,0,0,0,8.38,1.37c6-4.58,12.85-3.41,19.42-3.78a252.91,252.91,0,0,1,47.38,2.25c4,.53,8.82.28,9.12-4.81.26-4.49-4-5.9-8.07-6.51C736.17,133.44,724.06,131.73,712.41,132.46ZM774,371.19c.53-3.81-1.16-10.8-2.1-17.82-.49-3.74-2.3-7-6.86-6.55-5,.46-5,4.48-4.75,8,1.3,20.58,1.2,40.93-6.25,60.67-1.32,3.49-3.2,9.4,3.06,10.82,5.35,1.22,7.32-3.46,8.83-7.7C771,404.38,773.53,389.67,774,371.19Zm-98.16.33c.35-4.75.75-9.49,1-14.24.25-4.31,1.33-9.65-4.74-10.39s-6.48,4.38-7.09,8.86a134.57,134.57,0,0,0,5.53,61.05c1.43,4.33,2.9,10.21,9.34,8.51,7.16-1.9,4.24-7.53,2.59-11.7C677.13,400,676.12,385.87,675.82,371.52Zm-58.25-5.35c0-6.57.18-10.54-.06-14.48s2.06-9.71-4.92-9.9-6.63,5.52-6.9,10.2A116.22,116.22,0,0,0,621,417.36c2.43,4.28,4.75,10.57,11.4,6.92s1.22-8.3-.63-12C624.13,396.82,614.45,382.08,617.57,366.17Z" transform="translate(-543.79 -110.21)"/><path class="cls-1" d="M724.45,334.61c-30.87-1.49-61.94,3.07-92.64-2s-49.82-27-47.92-57.29c2.23-35.53,6.66-70.28,33-97.89,9.83-10.31,22.87-12.56,35.1-12.91q61.24-1.78,122.58-.26c33,.77,53.59,18.4,62.09,50.3,7,26.1,13.14,52.28,9.66,79.71-3.24,25.57-19.73,40.34-45.67,40.35-12.69,0-25.39,0-38.09-.05Zm-5.62-11.85v-.15h79.69c22.77,0,34-10.16,36.17-33.13,2.25-24.1-2.93-47.26-9.43-70.23C816.71,189,801.11,176.38,769.83,176c-38.05-.45-76.11-.24-114.16-.1-18.1.06-32.15,7.86-41.07,23.75-15,26.7-20.24,55.78-18.12,85.91,1.4,19.78,20.86,37.1,39.15,37.16C663.37,322.82,691.1,322.76,718.83,322.76Z" transform="translate(-543.79 -110.21)"/><path class="cls-1" d="M819.87,357.71c2.32-4.6-6-16,5.79-15.65,9.48.32,5.78,11.38,6,17.75.86,21.12-5.84,40.45-16,58.64-2.22,4-5,9.4-10.87,5.86-5.3-3.21-1.87-7.73.23-11.37C814.71,396.16,820.19,378.27,819.87,357.71Z" transform="translate(-543.79 -110.21)"/><path class="cls-1" d="M712.41,132.46c11.65-.73,23.76,1,35.87,2.81,4.05.61,8.33,2,8.07,6.51-.3,5.09-5.12,5.34-9.12,4.81a252.91,252.91,0,0,0-47.38-2.25c-6.57.37-13.41-.8-19.42,3.78a5.62,5.62,0,0,1-8.38-1.37c-1.63-2.53-5-4.82-3.67-8.18,1.3-3.21,4.81-3,8-3.65A164.87,164.87,0,0,1,712.41,132.46Z" transform="translate(-543.79 -110.21)"/><path class="cls-1" d="M774,371.19c-.45,18.48-3,33.19-8.07,47.43-1.51,4.24-3.48,8.92-8.83,7.7-6.26-1.42-4.38-7.33-3.06-10.82,7.45-19.74,7.55-40.09,6.25-60.67-.22-3.53-.26-7.55,4.75-8,4.56-.43,6.37,2.81,6.86,6.55C772.82,360.39,774.51,367.38,774,371.19Z" transform="translate(-543.79 -110.21)"/><path class="cls-1" d="M675.82,371.52c.3,14.35,1.31,28.51,6.67,42.09,1.65,4.17,4.57,9.8-2.59,11.7-6.44,1.7-7.91-4.18-9.34-8.51A134.57,134.57,0,0,1,665,355.75c.61-4.48,1.1-9.59,7.09-8.86s5,6.08,4.74,10.39C676.57,362,676.17,366.77,675.82,371.52Z" transform="translate(-543.79 -110.21)"/><path class="cls-1" d="M617.57,366.17c-3.12,15.91,6.56,30.65,14.2,46.07,1.85,3.74,7.33,8.37.63,12s-9-2.64-11.4-6.92A116.22,116.22,0,0,1,605.69,352c.27-4.68,0-10.39,6.9-10.2s4.69,6,4.92,9.9S617.57,359.6,617.57,366.17Z" transform="translate(-543.79 -110.21)"/><path class="cls-3" d="M718.83,322.76c-27.73,0-55.46.06-83.2,0-18.29-.06-37.75-17.38-39.15-37.16-2.12-30.13,3.13-59.21,18.12-85.91,8.92-15.89,23-23.69,41.07-23.75,38.05-.14,76.11-.35,114.16.1,31.28.36,46.88,13,55.43,43.23,6.5,23,11.68,46.13,9.43,70.23-2.15,23-13.4,33.12-36.17,33.13H718.83Zm102.53-33.41c.29-18.1-10-28.45-25.63-28.8a33.85,33.85,0,0,0-23.79,9c-4,3.5-5.66,4-10.27.2-12.23-10.08-27.33-6.65-35.31,6.9-2.29,3.89-4.61,8.25.17,11.53,5.31,3.65,7.34-1.14,10-4.73,7.14-9.85,14.18-10.46,20.47-.75,6.55,10.1,11.62,8.3,18.17.44,6.12-7.33,14-11.89,24-10.16,8.22,1.43,10.47,7.4,10.08,15s-5.09,10.37-11.84,10.07c-2.78-.13-7.69.34-7.5-3.63.21-4.58,4.09-3.18,7.25-2A6,6,0,0,0,805,289c1.34-2.86-.31-5.23-2.55-7.22-6-5.34-16.47-3.74-22.07,3.45s-4.72,16.26,2.4,20.73c8.65,5.44,18,5.53,27.22,1.42C818.9,303.43,820.92,295.56,821.36,289.35Zm-189.22,20.8c12.76,0,21.71-6.81,20.94-15.95s-9.19-16.41-17.92-15.46c-4.95.53-10.31,2.34-10.34,7.9,0,6.74,4.87,6.91,10.16,4.81a3.92,3.92,0,0,1,5.06,1.84c1,1.72-.21,2.74-1.73,3.64-7,4.12-17.07-.83-17.94-8.86-1.17-10.76,6.89-17.42,18.47-15,7.75,1.62,13.17,6.69,18.15,12.59,4,4.72,8.31,7.2,13.41.47,9.8-12.91,12.16-12.74,23.55.54,2.27,2.65,4.62,4.61,8.08,2.61,3.75-2.16,3.9-5.09,2.19-9.08-6.2-14.41-23-20.16-35.42-10.75-5,3.81-7.41,3.24-11.55-.33-8.19-7.08-17.85-10-28.71-8.16-12.9,2.18-21.35,13.95-20.12,28C609.63,302.72,617.94,310.14,632.14,310.15Zm169.08-83.63A34.3,34.3,0,0,0,767,191.43a34.72,34.72,0,1,0,34.27,35.09Zm-142.1,34.26c20-.1,34.23-15.24,34.49-36.68.22-17.46-16.43-33-35.11-32.74a34.71,34.71,0,0,0,.62,69.42ZM747,312.66c4.28.61,8.29,0,8.85-5.13.48-4.39-2.69-6.28-6.65-6.65-11.77-1.1-23.54-2.73-35.33-2.93-12.57-.21-25.24.08-37.64,2.89-3.76.85-7.21,2.45-6.5,6.88.79,4.89,4.45,5.73,9,4.87C701.43,308.25,724.19,309.71,747,312.66Zm5.32-128.36c-.88-1.49-1.16-4.24-4.17-4.27-8.58-.1-15.79,3.86-22.39,8.71-2.29,1.69-1.94,5.24.42,7.3,5.09,4.44,9.65.24,14-1.72C744.73,192.23,751.3,192.11,752.27,184.3ZM703,192c-.8-4.79-5.11-6.21-9-7.63-5.6-2-10.81-7.37-17.39-3.08a4.22,4.22,0,0,0-.84,6.31c5.83,6.18,13.7,8.71,21.75,10.12C700.15,198.21,702.2,195.44,703,192Z" transform="translate(-543.79 -110.21)"/><path class="cls-1" d="M821.36,289.35c-.44,6.21-2.46,14.08-11.35,18-9.27,4.11-18.57,4-27.22-1.42-7.12-4.47-7.93-13.62-2.4-20.73s16.06-8.79,22.07-3.45c2.24,2,3.89,4.36,2.55,7.22a6,6,0,0,1-7.93,3.36c-3.16-1.14-7-2.54-7.25,2-.19,4,4.72,3.5,7.5,3.63,6.75.3,11.46-2.42,11.84-10.07s-1.86-13.56-10.08-15c-10-1.73-17.85,2.83-24,10.16-6.55,7.86-11.62,9.66-18.17-.44-6.29-9.71-13.33-9.1-20.47.75-2.61,3.59-4.64,8.38-10,4.73-4.78-3.28-2.46-7.64-.17-11.53,8-13.55,23.08-17,35.31-6.9,4.61,3.8,6.32,3.3,10.27-.2a33.85,33.85,0,0,1,23.79-9C811.35,260.9,821.65,271.25,821.36,289.35Z" transform="translate(-543.79 -110.21)"/><path class="cls-1" d="M632.14,310.15c-14.2,0-22.51-7.43-23.72-21.2-1.23-14.05,7.22-25.82,20.12-28,10.86-1.84,20.52,1.08,28.71,8.16,4.14,3.57,6.5,4.14,11.55.33,12.45-9.41,29.22-3.66,35.42,10.75,1.71,4,1.56,6.92-2.19,9.08-3.46,2-5.81,0-8.08-2.61-11.39-13.28-13.75-13.45-23.55-.54-5.1,6.73-9.42,4.25-13.41-.47-5-5.9-10.4-11-18.15-12.59-11.58-2.41-19.64,4.25-18.47,15,.87,8,11,13,17.94,8.86,1.52-.9,2.68-1.92,1.73-3.64a3.92,3.92,0,0,0-5.06-1.84c-5.29,2.1-10.2,1.93-10.16-4.81,0-5.56,5.39-7.37,10.34-7.9,8.73-.95,17.17,6.46,17.92,15.46S644.9,310.16,632.14,310.15Z" transform="translate(-543.79 -110.21)"/><path class="cls-1" d="M801.22,226.52A34.77,34.77,0,1,1,767,191.43,34.6,34.6,0,0,1,801.22,226.52ZM789.3,226a22.33,22.33,0,0,0-22.53-22.38c-12.57-.12-22.91,9.66-23.15,21.87-.24,12.47,10.83,23.61,23.27,23.4A23.1,23.1,0,0,0,789.3,226Z" transform="translate(-543.79 -110.21)"/><path class="cls-1" d="M659.12,260.78a34.71,34.71,0,0,1-.62-69.42c18.68-.25,35.33,15.28,35.11,32.74C693.35,245.54,679.12,260.68,659.12,260.78Zm22.45-34.66c0-12.73-9.44-22.34-22.17-22.52a22.69,22.69,0,0,0-23.26,23c.25,12,11.08,22.56,23,22.37A23,23,0,0,0,681.57,226.12Z" transform="translate(-543.79 -110.21)"/><path class="cls-1" d="M747,312.66c-22.76-3-45.52-4.41-68.28-.07-4.54.86-8.2,0-9-4.87-.71-4.43,2.74-6,6.5-6.88,12.4-2.81,25.07-3.1,37.64-2.89,11.79.2,23.56,1.83,35.33,2.93,4,.37,7.13,2.26,6.65,6.65C755.24,312.69,751.23,313.27,747,312.66Z" transform="translate(-543.79 -110.21)"/><path class="cls-1" d="M752.27,184.3c-1,7.81-7.54,7.93-12.17,10-4.32,2-8.88,6.16-14,1.72-2.36-2.06-2.71-5.61-.42-7.3,6.6-4.85,13.81-8.81,22.39-8.71C751.11,180.06,751.39,182.81,752.27,184.3Z" transform="translate(-543.79 -110.21)"/><path class="cls-1" d="M703,192c-.79,3.43-2.84,6.2-5.53,5.72-8.05-1.41-15.92-3.94-21.75-10.12a4.22,4.22,0,0,1,.84-6.31c6.58-4.29,11.79,1.06,17.39,3.08C697.88,185.8,702.19,187.22,703,192Z" transform="translate(-543.79 -110.21)"/><path class="cls-3" d="M789.3,226a23.1,23.1,0,0,1-22.41,22.89c-12.44.21-23.51-10.93-23.27-23.4.24-12.21,10.58-22,23.15-21.87A22.33,22.33,0,0,1,789.3,226Zm-22.94,13.3c7.48-1.3,12.54-5.43,12.65-13.23s-4.89-12.74-12.52-12.87c-8.27-.14-13.48,4.92-13.24,13.35C753.48,234.37,758.91,238.2,766.36,239.29Z" transform="translate(-543.79 -110.21)"/><path class="cls-3" d="M681.57,226.12a23,23,0,0,1-22.39,22.8c-12,.19-22.79-10.33-23-22.37a22.69,22.69,0,0,1,23.26-23C672.13,203.78,681.6,213.39,681.57,226.12Zm-9.4-.33c-.93-7.24-4.81-12.48-12.69-12.59-8.39-.13-13.49,5.11-13.4,13.29.09,7.75,5.68,12.57,13.12,12.44S671.44,234.11,672.17,225.79Z" transform="translate(-543.79 -110.21)"/></svg>