<?xml version="1.0" encoding="utf-8"?>
<!-- Generator: Adobe Illustrator 26.0.2, SVG Export Plug-In . SVG Version: 6.00 Build 0)  -->
<svg version="1.1" id="Livello_4" xmlns="http://www.w3.org/2000/svg" xmlns:xlink="http://www.w3.org/1999/xlink" x="0px" y="0px"
	 viewBox="0 0 343.4 367.1" style="enable-background:new 0 0 343.4 367.1;" xml:space="preserve">
<style type="text/css">
	.st0{fill:#241A17;}
	.st1{fill:#EC6145;}
	.st2{fill:#FEFEFE;}
</style>
<path class="st0" d="M254.9,343.5c-14.2-1.6-27.7,3.1-41.6,4.4c-41.4,3.7-82.7,3.2-122.6-8.3c-57.9-16.7-85.7-59-89.8-116.8
	c-4.2-60,7.5-116.7,43.7-166.6c15.3-21.1,34.3-38.1,59.3-45.6c29.5-8.9,59.8-13.9,91-8c9.5,1.8,19.6-0.1,29.3,2.8
	c55.1,16,88.8,53,104.7,107c10.4,35.3,16.1,71.3,14.2,108.2c-2.3,44.3-18.7,81.2-57.2,105.7c-8.5,5.4-18.2,8.8-27.4,12.9
	c-2.2,1-5.7,0.5-3.6,4.6L254.9,343.5z M177.8,337.1c20.4,1.5,42.4-2,64.3-5.6c38.2-6.3,76.5-42.1,83.9-78.4
	c10.9-53.9,5.1-106.4-15.8-157c-22.6-54.5-68.2-81.8-125-83.6c-12.7-0.3-25.4,0-38.1,1c-38.6,2.9-71,18.1-93.5,50.6
	C17.6,115.7,6.5,173.6,14.5,234.9c5.8,44.4,30.2,76.5,73.3,91.2C116,335.8,145.9,338,177.8,337.1L177.8,337.1z"/>
<path class="st0" d="M254.9,343.7c6.8,12.6,6.8,12.6-8.3,16c-52.4,11.6-104.7,8.5-157-1.2c-5.6-1-7.6-4-6.7-9
	c1.1-5.5,4.3-2.7,7.9-2.1c49.5,8,99.2,11.5,148.9,1.5c4.2-0.8,8.6-0.2,12.9-0.5c3.2-0.2,5.9-1.2,2.2-4.8L254.9,343.7z"/>
<path class="st1" d="M177.8,337.1c-31.9,1-61.7-1.3-90-10.9c-43.1-14.7-67.5-46.8-73.3-91.2c-8-61.4,3.2-119.3,39.1-170.9
	c22.5-32.4,54.9-47.7,93.5-50.6c12.7-1,25.4-1.3,38.1-1c56.8,1.8,102.4,29.1,125,83.6c21,50.6,26.8,103,15.8,157
	c-7.4,36.3-45.6,72.1-83.9,78.4C220.2,335.1,198.2,338.6,177.8,337.1z M180.7,224.4h38.1c12.7,0,25.4,0,38.1,0
	c25.9,0,42.4-14.8,45.7-40.4c3.5-27.4-2.7-53.6-9.7-79.7c-8.5-31.9-29.1-49.5-62.1-50.3c-40.8-1-81.7-0.9-122.6,0.3
	C96,54.7,82.9,57,73.1,67.3c-26.3,27.6-30.8,62.4-33,97.9c-1.9,30.2,17.2,52.3,47.9,57.3S149.8,222.9,180.7,224.4L180.7,224.4z
	 M276.1,247.5c0.3,20.6-5.2,38.5-14.8,55.2c-2.1,3.6-5.5,8.2-0.2,11.4c5.9,3.5,8.7-1.9,10.9-5.9c10.2-18.2,16.9-37.5,16-58.6
	c-0.3-6.4,3.4-17.4-6-17.8C270.1,231.5,278.4,242.9,276.1,247.5L276.1,247.5z M168.6,22.3c-12.1-0.5-24.1,0.3-36,2.5
	c-3.2,0.6-6.7,0.4-8,3.6c-1.4,3.4,2,5.6,3.7,8.2c1.6,2.6,5.1,3.5,7.7,1.8c0.2-0.1,0.4-0.3,0.6-0.5c6-4.6,12.8-3.4,19.4-3.8
	c15.8-0.7,31.7,0,47.4,2.2c4,0.5,8.8,0.3,9.1-4.8c0.3-4.5-4-5.9-8.1-6.5C192.4,23.2,180.3,21.5,168.6,22.3z M230.2,261
	c0.5-3.8-1.2-10.8-2.1-17.8c-0.5-3.7-2.3-7-6.9-6.5c-5,0.5-5,4.5-4.8,8c1.3,20.6,1.2,40.9-6.2,60.7c-1.3,3.5-3.2,9.4,3.1,10.8
	c5.3,1.2,7.3-3.5,8.8-7.7C227.2,294.2,229.7,279.5,230.2,261z M132,261.3c0.3-4.8,0.8-9.5,1-14.2c0.2-4.3,1.3-9.6-4.7-10.4
	s-6.5,4.4-7.1,8.9c-2.9,20.5-1,41.4,5.5,61c1.4,4.3,2.9,10.2,9.3,8.5c7.2-1.9,4.2-7.5,2.6-11.7C133.3,289.8,132.3,275.7,132,261.3
	L132,261.3z M73.8,256c0-6.6,0.2-10.5-0.1-14.5s2.1-9.7-4.9-9.9s-6.6,5.5-6.9,10.2c-1.4,22.8,3.9,45.6,15.3,65.4
	c2.4,4.3,4.8,10.6,11.4,6.9s1.2-8.3-0.6-12C80.3,286.6,70.7,271.9,73.8,256L73.8,256z"/>
<path class="st0" d="M180.7,224.4c-30.9-1.5-61.9,3.1-92.6-2s-49.8-27-47.9-57.3c2.2-35.5,6.7-70.3,33-97.9
	c9.8-10.3,22.9-12.6,35.1-12.9C149,53.1,189.9,53,230.8,54c33,0.8,53.6,18.4,62.1,50.3c7,26.1,13.1,52.3,9.7,79.7
	c-3.2,25.6-19.7,40.3-45.7,40.4c-12.7,0-25.4,0-38.1,0L180.7,224.4z M175,212.5v-0.1h79.7c22.8,0,34-10.2,36.2-33.1
	c2.2-24.1-2.9-47.3-9.4-70.2c-8.5-30.2-24.2-42.9-55.4-43.2c-38-0.4-76.1-0.2-114.2-0.1c-18.1,0.1-32.2,7.9-41.1,23.8
	c-15,26.7-20.2,55.8-18.1,85.9c1.4,19.8,20.9,37.1,39.2,37.2C119.6,212.6,147.3,212.6,175,212.5L175,212.5z"/>
<path class="st0" d="M276.1,247.5c2.3-4.6-6-16,5.8-15.6c9.5,0.3,5.8,11.4,6,17.8c0.9,21.1-5.8,40.5-16,58.6c-2.2,4-5,9.4-10.9,5.9
	c-5.3-3.2-1.9-7.7,0.2-11.4C270.9,286,276.4,268.1,276.1,247.5z"/>
<path class="st0" d="M168.6,22.3c11.7-0.7,23.8,1,35.9,2.8c4,0.6,8.3,2,8.1,6.5c-0.3,5.1-5.1,5.3-9.1,4.8c-15.7-2.2-31.6-3-47.4-2.2
	c-6.6,0.4-13.4-0.8-19.4,3.8c-2.4,2-5.9,1.7-7.9-0.7c-0.2-0.2-0.3-0.4-0.5-0.6c-1.6-2.5-5-4.8-3.7-8.2c1.3-3.2,4.8-3,8-3.6
	C144.5,22.6,156.6,21.7,168.6,22.3z"/>
<path class="st0" d="M230.2,261c-0.5,18.5-3,33.2-8.1,47.4c-1.5,4.2-3.5,8.9-8.8,7.7c-6.3-1.4-4.4-7.3-3.1-10.8
	c7.5-19.7,7.5-40.1,6.2-60.7c-0.2-3.5-0.3-7.5,4.8-8c4.6-0.4,6.4,2.8,6.9,6.5C229,250.2,230.7,257.2,230.2,261z"/>
<path class="st0" d="M132,261.3c0.3,14.4,1.3,28.5,6.7,42.1c1.7,4.2,4.6,9.8-2.6,11.7c-6.4,1.7-7.9-4.2-9.3-8.5
	c-6.5-19.7-8.4-40.5-5.6-61c0.6-4.5,1.1-9.6,7.1-8.9s5,6.1,4.7,10.4C132.8,251.8,132.4,256.6,132,261.3z"/>
<path class="st0" d="M73.8,256c-3.1,15.9,6.6,30.6,14.2,46.1c1.8,3.7,7.3,8.4,0.6,12s-9-2.6-11.4-6.9
	c-11.4-19.8-16.7-42.5-15.3-65.3c0.3-4.7,0-10.4,6.9-10.2s4.7,6,4.9,9.9S73.8,249.4,73.8,256z"/>
<path class="st2" d="M175,212.6c-27.7,0-55.5,0.1-83.2,0c-18.3-0.1-37.8-17.4-39.2-37.2c-2.1-30.1,3.1-59.2,18.1-85.9
	c8.9-15.9,23-23.7,41.1-23.8c38-0.1,76.1-0.4,114.2,0.1c31.3,0.4,46.9,13,55.4,43.2c6.5,23,11.7,46.1,9.4,70.2
	c-2.2,23-13.4,33.1-36.2,33.1H175V212.6z M277.6,179.1c0.3-18.1-10-28.5-25.6-28.8c-8.8-0.2-17.3,3-23.8,9c-4,3.5-5.7,4-10.3,0.2
	c-12.2-10.1-27.3-6.6-35.3,6.9c-2.3,3.9-4.6,8.2,0.2,11.5c5.3,3.6,7.3-1.1,10-4.7c7.1-9.9,14.2-10.5,20.5-0.8
	c6.5,10.1,11.6,8.3,18.2,0.4c6.1-7.3,14-11.9,24-10.2c8.2,1.4,10.5,7.4,10.1,15s-5.1,10.4-11.8,10.1c-2.8-0.1-7.7,0.3-7.5-3.6
	c0.2-4.6,4.1-3.2,7.2-2c3.1,1.2,6.6-0.3,7.8-3.3c0,0,0-0.1,0-0.1c1.3-2.9-0.3-5.2-2.5-7.2c-6-5.3-16.5-3.7-22.1,3.5
	s-4.7,16.3,2.4,20.7c8.7,5.4,18,5.5,27.2,1.4C275.1,193.2,277.1,185.4,277.6,179.1z M88.4,199.9c12.8,0,21.7-6.8,20.9-16
	s-9.2-16.4-17.9-15.5c-5,0.5-10.3,2.3-10.3,7.9c0,6.7,4.9,6.9,10.2,4.8c1.9-0.8,4.1,0,5.1,1.8c1,1.7-0.2,2.7-1.7,3.6
	c-7,4.1-17.1-0.8-17.9-8.9c-1.2-10.8,6.9-17.4,18.5-15c7.8,1.6,13.2,6.7,18.2,12.6c4,4.7,8.3,7.2,13.4,0.5
	c9.8-12.9,12.2-12.7,23.5,0.5c2.3,2.6,4.6,4.6,8.1,2.6c3.8-2.2,3.9-5.1,2.2-9.1c-6.2-14.4-23-20.2-35.4-10.8
	c-5,3.8-7.4,3.2-11.5-0.3c-8.2-7.1-17.8-10-28.7-8.2c-12.9,2.2-21.3,14-20.1,28C65.8,192.5,74.2,199.9,88.4,199.9z M257.4,116.3
	c0.4-18.9-14.6-34.6-33.5-35.1c-0.2,0-0.5,0-0.7,0C204,81,188.3,96.3,188,115.5c-0.2,19.2,15.1,34.9,34.3,35.2
	C241.5,150.9,257.2,135.6,257.4,116.3C257.5,116.4,257.5,116.3,257.4,116.3L257.4,116.3z M115.3,150.6c20-0.1,34.2-15.2,34.5-36.7
	c0.2-17.5-16.4-33-35.1-32.7c-19.2,0.2-34.6,15.9-34.4,35S96.2,150.7,115.3,150.6z M203.2,202.5c4.3,0.6,8.3,0,8.8-5.1
	c0.5-4.4-2.7-6.3-6.7-6.6c-11.8-1.1-23.5-2.7-35.3-2.9c-12.6-0.2-25.2,0.1-37.6,2.9c-3.8,0.9-7.2,2.5-6.5,6.9c0.8,4.9,4.5,5.7,9,4.9
	C157.6,198,180.4,199.5,203.2,202.5z M208.5,74.1c-0.9-1.5-1.2-4.2-4.2-4.3c-8.6-0.1-15.8,3.9-22.4,8.7c-2.3,1.7-1.9,5.2,0.4,7.3
	c5.1,4.4,9.7,0.2,14-1.7C200.9,82,207.5,81.9,208.5,74.1L208.5,74.1z M159.2,81.8c-0.8-4.8-5.1-6.2-9-7.6c-5.6-2-10.8-7.4-17.4-3.1
	c-1.9,1.3-2.5,3.9-1.2,5.8c0.1,0.2,0.2,0.3,0.4,0.5c5.8,6.2,13.7,8.7,21.8,10.1C156.4,88,158.4,85.2,159.2,81.8z"/>
<path class="st0" d="M277.6,179.1c-0.4,6.2-2.5,14.1-11.3,18c-9.3,4.1-18.6,4-27.2-1.4c-7.1-4.5-7.9-13.6-2.4-20.7
	s16.1-8.8,22.1-3.5c2.2,2,3.9,4.4,2.5,7.2c-1.2,3.1-4.7,4.6-7.8,3.4c-0.1,0-0.1,0-0.2-0.1c-3.2-1.1-7-2.5-7.2,2
	c-0.2,4,4.7,3.5,7.5,3.6c6.8,0.3,11.5-2.4,11.8-10.1s-1.9-13.6-10.1-15c-10-1.7-17.8,2.8-24,10.2c-6.5,7.9-11.6,9.7-18.2-0.4
	c-6.3-9.7-13.3-9.1-20.5,0.8c-2.6,3.6-4.6,8.4-10,4.7c-4.8-3.3-2.5-7.6-0.2-11.5c8-13.5,23.1-17,35.3-6.9c4.6,3.8,6.3,3.3,10.3-0.2
	c6.5-6,15-9.2,23.8-9C267.6,150.7,277.9,161,277.6,179.1z"/>
<path class="st0" d="M88.4,199.9c-14.2,0-22.5-7.4-23.7-21.2c-1.2-14,7.2-25.8,20.1-28c10.9-1.8,20.5,1.1,28.7,8.2
	c4.1,3.6,6.5,4.1,11.5,0.3c12.5-9.4,29.2-3.7,35.4,10.8c1.7,4,1.6,6.9-2.2,9.1c-3.5,2-5.8,0-8.1-2.6c-11.4-13.3-13.8-13.5-23.5-0.5
	c-5.1,6.7-9.4,4.2-13.4-0.5c-5-5.9-10.4-11-18.2-12.6c-11.6-2.4-19.6,4.2-18.5,15c0.9,8,11,13,17.9,8.9c1.5-0.9,2.7-1.9,1.7-3.6
	c-0.9-1.9-3.2-2.7-5.1-1.8c-5.3,2.1-10.2,1.9-10.2-4.8c0-5.6,5.4-7.4,10.3-7.9c8.7-1,17.2,6.5,17.9,15.5S101.1,200,88.4,199.9z"/>
<path class="st0" d="M257.4,116.3c-0.2,19.2-15.9,34.6-35.1,34.4c-19.2-0.2-34.6-15.9-34.4-35.1S203.8,81,223,81.2
	c0.1,0,0.1,0,0.2,0c19.1,0.2,34.4,15.9,34.2,35C257.4,116.2,257.4,116.3,257.4,116.3z M245.5,115.8c0-12.3-9.9-22.4-22.3-22.4
	c-0.1,0-0.2,0-0.3,0c-12.6-0.1-22.9,9.7-23.2,21.9c-0.2,12.5,10.8,23.6,23.3,23.4C235.5,138.3,245.4,128.2,245.5,115.8z"/>
<path class="st0" d="M115.3,150.6c-19.2,0.2-34.8-15.2-35-34.4s15.2-34.8,34.4-35c18.7-0.2,35.3,15.3,35.1,32.7
	C149.6,135.3,135.3,150.5,115.3,150.6z M137.8,115.9c0-12.7-9.4-22.3-22.2-22.5c-12.5-0.3-22.9,9.6-23.3,22.1c0,0.3,0,0.6,0,0.9
	c0.2,12,11.1,22.6,23,22.4C127.8,138.5,137.7,128.3,137.8,115.9z"/>
<path class="st0" d="M203.2,202.5c-22.8-3-45.5-4.4-68.3-0.1c-4.5,0.9-8.2,0-9-4.9c-0.7-4.4,2.7-6,6.5-6.9
	c12.4-2.8,25.1-3.1,37.6-2.9c11.8,0.2,23.6,1.8,35.3,2.9c4,0.4,7.1,2.3,6.7,6.6C211.5,202.5,207.4,203.1,203.2,202.5z"/>
<path class="st0" d="M208.5,74.1c-1,7.8-7.5,7.9-12.2,10c-4.3,2-8.9,6.2-14,1.7c-2.4-2.1-2.7-5.6-0.4-7.3c6.6-4.9,13.8-8.8,22.4-8.7
	C207.3,69.8,207.6,72.6,208.5,74.1z"/>
<path class="st0" d="M159.2,81.8c-0.8,3.4-2.8,6.2-5.5,5.7c-8-1.4-15.9-3.9-21.8-10.1c-1.5-1.7-1.4-4.4,0.4-6
	c0.1-0.1,0.3-0.2,0.5-0.4c6.6-4.3,11.8,1.1,17.4,3.1C154.1,75.6,158.4,77,159.2,81.8z"/>
<path class="st2" d="M245.5,115.8c-0.1,12.4-10,22.5-22.4,22.9c-12.4,0.2-23.5-10.9-23.3-23.4c0.2-12.2,10.6-22,23.2-21.9
	c12.3-0.1,22.4,9.8,22.5,22.1C245.5,115.6,245.5,115.7,245.5,115.8z M222.6,129.1c7.5-1.3,12.5-5.4,12.7-13.2s-4.9-12.7-12.5-12.9
	c-8.3-0.1-13.5,4.9-13.2,13.4C209.7,124.2,215.1,128,222.6,129.1L222.6,129.1z"/>
<path class="st2" d="M137.8,115.9c-0.1,12.4-10,22.5-22.4,22.8c-12,0.2-22.8-10.3-23-22.4c-0.2-12.5,9.8-22.8,22.4-23
	c0.3,0,0.6,0,0.9,0C128.3,93.6,137.8,103.2,137.8,115.9z M128.4,115.6c-0.9-7.2-4.8-12.5-12.7-12.6c-8.4-0.1-13.5,5.1-13.4,13.3
	c0.1,7.8,5.7,12.6,13.1,12.4S127.7,123.9,128.4,115.6z"/>
<circle class="st2" cx="114.3" cy="115.9" r="16.6"/>
<circle class="st2" cx="222.8" cy="116.1" r="18.2"/>
</svg>
