<?xml version="1.0" encoding="utf-8"?>
<!-- Generator: Adobe Illustrator 26.0.2, SVG Export Plug-In . SVG Version: 6.00 Build 0)  -->
<svg version="1.1" id="Livello_1" xmlns="http://www.w3.org/2000/svg" xmlns:xlink="http://www.w3.org/1999/xlink" x="0px" y="0px"
	 viewBox="0 0 552.7 557.1" style="enable-background:new 0 0 552.7 557.1;" xml:space="preserve">
<style type="text/css">
	.st0{fill:#F61111;}
</style>
<path class="st0" d="M536.7,194.6c-1.4,2.7,0.7,4.9,1.6,7.1c1,2.6,1.4,5.5,3.3,7.8c0.1,0.1,0.2,0.3,0.2,0.5
	c0.8,6.2,3.2,12.2,3.2,18.5c0,2-0.4,4,1,5.8c0.1,0.2,0.1,0.4,0.1,0.5c-0.5,5.9,2.9,11.5,2,17.3c-0.6,4.2,0.9,7.8,1.8,11.5
	c1,3.9,2,7.6,1.6,11.5c-0.5,5.5,0.6,10.9,0.5,16.3c0,2.8,1.1,5.5,0.5,8.4c-0.8,3.7-0.2,7.6-1.8,11.1c-0.2,0.8-0.3,1.7-0.2,2.5
	c0.1,1.7-1,3.2-2.6,3.8c-2.1,0.7-2.4,2-2.5,3.9c-0.5,5.5-0.9,10.9-3.2,16c-0.1,0.4-0.2,0.9-0.1,1.4c0.9,6.7-1.1,13.4-5.5,18.5
	c-2.1,2.6-3.5,5.7-4.1,8.9c-0.9,5.4-3.9,10-5.6,15c-0.8,2.4-2.6,4.4-2.7,7c-0.1,0.8-0.6,1.6-1.2,2.2c-2.5,3.2-4.2,6.9-6.2,10.4
	c-0.3,0.4-0.4,0.8-0.3,1.3c0.9,7-1.9,12.6-6.8,17.3c-0.3,0.2-0.7,0.5-0.7,0.8c-0.6,5.8-4,10.5-6.5,15.4c-1.4,2.4-2.9,4.8-4.6,7
	c-0.3,0.4-0.7,0.7-0.8,1.2c-0.7,4.5-3.8,6.6-7.8,7.7c-1.6,0.4-1.5,1.6-1.7,2.6c-0.7,3.5-1.6,6.5-5.5,7.8c-1.7,0.6-3.1,2-3.5,3.8
	c-0.1,0.8-0.6,1.4-1.2,1.9c-3.9,1.8-6.4,5.2-9.6,7.8c-1.7,1.4-2.9,3.4-4.8,4.7c-1.5,1.1-2.8,2.5-4.8,2.8c-0.5,0.1-0.9,0.2-1.1,0.8
	c-0.6,2.8-2.5,4.1-5.2,4.5c-0.3,0.1-0.5,0.2-0.7,0.5c-2.3,5-7,7.2-11.5,9.6c-0.6,0.3-1,1.1-1.5,1.7s-0.8,1.4-1.2,1.5
	c-4.5,0.8-7.3,5.3-12.1,5.3c-0.8,0-1.8-0.1-2.2,0.9c-2.1,5.2-7.1,7.5-11,10.9c-2.4,2.1-5,3.8-8.4,3.4c-1.5-0.2-2.3,0.8-3,2.2
	c-1.2,2.6-3.3,4.2-6.3,3.8s-4.5,2.1-5.6,3.7c-2.4,3.1-5.6,4.3-8.9,5.2c-3.5,0.9-5.9,3.6-9.3,4.4c-0.5,0.1-0.9,0.7-1.2,0.6
	c-6.5-1.2-10.8,5.1-16.9,5.1c-4.4,0-8.1,2.9-12.3,3.2c-4.3,0.3-8.4,2.3-12.6,2c-2.7-0.2-5.5,0.3-7.9,1.5c-2.2,1.1-5.1,0.8-7.7,1.1
	c-5.8,0.5-11.5,1.3-17.3,1.7c-2.9,0.2-5.8,1.2-8.7-0.2c-0.8-0.2-1.7-0.1-2.5,0.3c-1.1,0.4-2.4,0.9-3.3,0.4c-3.3-1.6-6.7,1-10.1-0.6
	c-1.1-0.5-3.2,1.2-4.9,0.6c-4.5-1.7-8.9-0.6-13.4-0.1c-0.3,0.1-0.6,0.1-0.8,0.1c-3.1-1-6.2-2.1-9.4-0.2c-0.2,0.1-0.4,0-0.5-0.1
	c-3.9-3.3-9.1-1.9-13.5-3.4c-3.1-1.1-6.3-2.6-10-2.8c-3.9-0.4-7.7-1.7-11-3.9c-2.9-1.9-6.3-1.2-9.1-3c-3.6-2.3-8.3-2.5-11.5-5.7
	c-0.4-0.5-1.1-0.7-1.8-0.5c-3.2,1-6-0.2-8.4-2.2c-1.1-0.9-2.2-1.7-3.8-1.5c-0.6,0.1-1.2,0-1.6-0.3c-2.4-3.1-6.3-2.2-9.3-3.6
	c-3.2-1.5-6.4-3-9.6-4.5c-3.8-1.8-7.7-3.4-11.7-4.7c-3.8-1.3-7.6-2.9-11.2-4.8c-2.2-1-3-3.4-4.2-5.2c-1.1-1.7-2.3-2.1-3.7-1.7
	c-5.9,1.5-9.4-2.4-13-5.8c-1.8-1.7-3.3-3.6-5.9-4.1c-0.6-0.2-1.2-0.5-1.7-0.9c-4-3.6-9.1-5.9-12.7-10c-3.1-3.5-5.5-7.7-8.7-11.1
	c-2.3-2.5-5.5-4.7-6.9-7.4c-2.6-4.8-8.6-7.7-8.5-14.1c0-0.7-0.1-1.4-0.9-1.6c-4.9-1.4-6.3-5.9-8.8-9.5c-2.2-3.2-4-6.7-6-10
	c-2.1-3.7-5.2-6.8-6.5-11.3c-0.9-3.3-2.5-6.3-4.7-8.9c-2.8-3.1-3.8-7.5-4.6-11.7c-0.1-0.7,0.1-1.5-0.6-2.1c-1.4-1.1-1.4-3.1-2.3-4.4
	c-2.3-3.3-3.2-7.2-4.8-10.8c-1.3-3-3.6-5.5-4.3-9c-0.7-2.8-1.7-5.4-3-7.9c-1.7-3.2-3.2-6.5-5-9.6c-0.8-1.4-0.5-3.1-0.9-4.7
	c-0.5-2-0.4-4.2-2.4-5.7c-0.4-0.4-0.6-1-0.6-1.6c0.9-6.9-3.1-12.8-3.4-19.6C3.7,321,3.1,315,2.3,309.2c-0.4-3.2,0.6-6.6-1.3-9.7
	c-0.2-0.4-0.2-0.8,0-1.1c1.2-2,0.5-3.8,0-5.9c-0.4-2.4,0.1-4.8,1.4-6.8c0.7-1.2,0.7-1.7-0.3-2.5c-1.9-1.7-2.5-3.8-2.3-6.4
	c0.2-4.5,0-9,0.3-13.4c0.2-3.2-0.5-6.7,1-9.9c0.3-0.9,0.3-1.9,0.1-2.8c-0.4-2.7,0.4-5.2,0.5-7.8c0.2-6,2-11.6,3.2-17.4
	c0.8-3.7,1.6-7.4,3.5-10.7c0.4-0.8,1.2-1.5,0.9-2.3c-1.6-4.7,1.8-8.5,2.4-12.8c0.4-3.1,1-6.1,1.8-9.1c0.6-2.3,2.4-3.5,3.6-5.1
	c1.1-1.5-0.6-4.2,0.8-6.2c2.1-3.2,2.6-7.3,5.7-10c0.2-0.3,0.3-0.6,0.3-1c-0.4-4.5,1.9-7.5,5.4-9.8c0.9-0.4,1.2-1.4,0.8-2.3
	c0,0,0,0,0-0.1c-0.8-2.2,0.1-3.9,1.4-5.8c1.5-2.2,2.5-4.8,4.4-6.9c0.8-1,1.8-2,2.8-2.8c0.5-0.3,1.1-0.7,1.2-1.1
	c1-7.4,6.9-11.5,11-16.7c0.7-1,1.3-2.1,1.6-3.3c0.6-2.3,3.5-2.5,4.5-4s0.3-4.3,2.2-5.6c1.2-0.8,2-2.1,2.2-3.6
	c0.2-1.4,0.9-2.7,1.9-3.7c2.1-1.9,3.9-4.1,5.1-6.7c0.3-0.7,1.4-1.1,1.7-1.9c1.1-2.4,4.7-0.9,5.5-3.3c0.6-2.2,2.5-3.9,4.7-4.4
	c1.1-0.3,2-1.1,2.4-2.2c0.8-2.9,2.8-3.8,5.3-4.5c2.2-0.6,3.4-2.7,4.8-4.3c2.3-2.6,3.9-5.8,6.3-8.3c3.4-3.4,6.1-7.6,10.6-9.9
	c2.9-1.5,5.2-3.9,8.1-5.5c2-1.2,4.2-2.2,6.2-3.3c0.9-0.5,1.8-0.7,2.4-1.7c0.9-1.5,2.7-2.3,4.4-2c2.2,0.5,3.4-0.4,5-1.6
	c3.6-2.6,7.3-5.1,11.1-7.5c0.6-0.5,1.3-0.8,2.1-0.8c2.7,0.5,4.2-1.4,5.9-2.7c2.3-1.8,4.6-3.4,7.8-3.7c2.1-0.3,3.8-2.4,5.9-3.5
	c2.3-1.4,4.7-2.6,7.2-3.6c5.2-1.8,9.9-4.4,15.1-6.1c1.5-0.4,3.1-0.1,4.4,0.8c1.3,0.8,2,0.4,2.7-0.7c1.6-2.4,3.7-3.8,6.7-2.9
	c0.8,0.2,1.7,0,2.5-0.4c4.5-2.8,9.8-3.5,14.7-3.7c6.8-0.2,13.1-2.2,19.7-3.4c0.7,0,1.3,0,2,0c3.1-0.1,6.2,0.4,8.5-2.5
	c1.3-1.6,3.7-1.7,5.3-1.7c3.7,0.2,7.6-2.6,11,0.8c0.5,0.4,0.8,0.2,1.2-0.1c3.9-2.3,8.1-1.1,12.2-1.1c4.5-0.1,9,0.1,13.4,0.1
	c0.8,0,1.7,0,2.5,0c6.9,0.1,13.4,2.9,20.2,2.9c2.5,0,3.8,3,5.7,2.6c2-0.6,4.2-0.5,6.1,0.3c3.2,1.1,6.8,1.2,10.3,1.6
	c0.3,0,0.7-0.1,0.8,0c4.2,2.8,9.5,0.5,14.2,3.2s10.5,4,16.2,4.9c4.1,0.6,8,1.9,11.6,3.9c1.9,1.1,4.6,0.8,6,3
	c0.2,0.2,0.5,0.3,0.8,0.3c3.3-1.1,5.6,1.2,7.6,2.8c2.8,2.3,6.4,3.1,9.2,5.3c1.3,1,3.3-0.1,4.7,1.4c1.8,1.8,4.1,3.1,6.5,3.8
	c1.2,0.4,2.2,1.1,3,2.1c1.2,1.6,2.1,3.4,4.4,3.7c0.5,0.1,0.8,0.5,1,0.9c2.4,5.5,7.4,8.4,12.1,11.5c1,0.6,1.8,1.4,2.4,2.4
	c0.4,1,1.2,1.7,2.3,1.9c1.9,0.1,3.5,1.4,3.8,3.3c0.6,2.1,2.8,2.7,4.3,3.4c3.4,1.4,4.4,5,7,7.1c1.1,0.9,1.9,2.2,3.2,2.9
	c3.4,1.7,5.4,5.1,7.4,8c2.7,3.8,6.4,6.3,9.4,9.7c4.3,4.9,9.5,8.9,12.9,14.6c0.2,0.4,0.6,0.7,1,0.9c2.9,1.1,4.1,3.6,5,6.2
	c0.3,0.9,0.5,1.6,1.5,1.9c2.5,0.8,3.4,3,4.8,4.9c2.1,2.7,3,6.2,4.8,8.7c2.2,2.9,4.2,5.4,3.9,9.1c0,0.2,0,0.5,0.1,0.5
	c3.8,1.7,3.9,6,6.3,8.8c1.7,2,2,5,3.1,7.5c1.8,4.2,3.2,8.5,5.3,12.6c2.6,5,5.6,10.1,6.5,16c0.3,1.8,1.6,3.4,2.5,5
	C536.3,191.7,536.7,193.1,536.7,194.6z M452,261.4c-0.4-1.6,0-3.3-1-4.9c-2.5-4-4.7-8.2-7-12.3l0,0c-1-3.6-4.5-6-4.3-10.1
	c0-0.1-0.1-0.1-0.1-0.2c-1.5-4.5-2.8-9.1-3.8-13.8c-1.1-5.9-0.9-12-1.9-17.9c-0.2-1.5-0.4-3.1-0.5-4.6c1-3.2-1.4-5.8-1.4-9.1
	c-0.2-10.5-1.7-21-4.5-31.2c-0.7-2.5-0.6-5.6-3-7.7v-1.2c0-3.1-1.7-5.8-2.3-8.8c-1.1-5.1-5.2-9.1-5.7-14.5c0-0.5-0.6-0.7-1.1-0.7
	l0,0c0.6-2.4-1.9-3.2-2.4-5.1c-1-3.6-3.5-6.4-5.8-9.2c-0.8-1-2.5-1.2-3.2-2.5c-3.1-5.2-7.8-9.1-11.4-13.9c-0.3-0.8-1-0.7-1.7-0.6
	c-0.5-3.1-3.1-4.7-5.3-6.2c-2.8-2-5.4-4.8-9.3-4.9c-0.2,0-0.3-0.4-0.5-0.7c-1.6-3.4-5.4-3.9-8.1-5.9c-2.8-2.2-6.5-3.2-9.8-4.7
	c-4.3-1.9-8.8-3.4-13.4-4.4l-2-0.2c-1.5-0.7-3.2-1-4.8-1c-1.5-0.3-3-0.6-4.6,0c-2.3-0.8-4.6-1.3-7-1.4c-3.3-0.2-6.6,0.7-10-0.6
	c-4.8-1.8-9.8-1.9-14.9-1.9c-0.5-0.4-1.2-0.5-1.8-0.2c-3.4-0.1-6.8-0.1-10.2-0.2c-5.4-0.1-10.6-2.2-16.1-1.1
	c-0.5,0.1-1.1-0.3-1.6-0.3c-1.8-0.2-3.4-0.9-5.2-1c-7-0.3-13.8,0.9-20.7,2.5c-7,1.6-14.2,2.6-21.1,5.1c-0.2-0.1-0.4-0.1-0.5,0.1
	c-1,0.2-2,0.4-3,0.6c-5,1.1-10.2,1.8-14.7,4.2c-8.7,4.6-18,8.1-26.2,13.6c-2.2,1.5-4.7,2.9-5.8,5.5l0,0c-0.4,0.2-0.8,0.4-1.2,0.7
	c-5.7,6.5-11.4,13-17.3,19.3c-4.4,4.8-6.4,11-9.2,16.7c-2,4.1-3.7,8.2-5.6,12.3l0.1,0.2l-0.1-0.2c-0.2,0.2-0.5,0.3-0.6,0.6
	c-3.5,7.1-5.2,14.9-8.1,22.2c-0.2,0.7-0.2,1.3-0.2,2c-0.1,0.1-0.1,0.3,0,0.5l-0.3,1.2c-0.5,0.9-0.8,1.9-0.8,2.9
	c-1.7,6-3.6,12-5.7,17.9c-2.7,7-5,14.1-6.9,21.4c-1.1,5.1-2.8,10-5,14.6c-4,8-8,15.9-13.9,22.9c-4.6,5.4-8,11.8-11.7,17.9
	c-3.1,5.2-5.3,10.9-8.7,15.9c-1.5,2.1-2.2,4.9-3.6,6.9s-1.3,4.6-3.1,6.7c-2,2.4-2.4,6.2-3.4,9.4c-1.5,4.7-2.7,9.4-3.5,14.2
	c-1.8,11.4-4.3,22.7-1.9,34.2c0.1,0.4-0.1,0.7-0.3,1c-1.1,1-0.9,2.3-0.7,3.5c1,6.5,1.1,13.2,1.8,19.8c0.4,3.5,1,7,1.8,10.4
	c0.8,4,3.2,7.5,4.6,11.4c2.1,5.8,5.4,11.2,8.2,16.7c3.8,7.6,8.7,14.5,13.1,21.7c3.6,5.9,9.3,10.3,14.9,14.5
	c3.8,2.8,7.8,5.5,11.4,8.5c4.1,3.3,8.6,5.9,13.1,8.6c2.6,1.6,5.6,2.3,8,4c2.2,1.4,4.4,2.7,6.7,3.8c3.2,1.8,6.8,2.8,10,4.3
	c6.7,3.1,13.3,6.1,20.2,8.7c7.1,2.7,14.7,3.8,22.3,4.6c5.5,0.6,11.1,0.7,16.3,1.7c6.3,1.2,12.6,2.2,19,3.2c6.7,1,13.4,1.8,20.1,2.5
	s13.2,1.8,19.8,1.7c5.8,0,11.7,0,17.5,0c5.4,0,10.7-0.7,16.1,0s10.7-0.8,16.1-1c8-0.3,16-1.9,24-2.9c5.3-0.6,10.4-2.1,15.6-2.8
	c7-1,13.5-3.9,20.4-5c3-0.5,5.8-1.9,8.7-3c4.7-2,9.1-4.7,13.2-7.9l0.5-0.6c0.8,0.1,1.5-0.1,2.2-0.5c3.7-2.9,7.9-5.1,11.7-7.9
	c1.9-1.4,5.1-1.6,5.6-4.7l0,0c5.7-1.3,9.4-5.9,14.1-8.8c3.2-2,5.7-5.1,8.7-7.4c1.2-0.9,0.8-2.5,2.2-3.1c2.3-1,3.6-3.2,4.8-5.2v0.1
	c1.2-0.5,2.4-1.5,2.5-2.6c0.2-1.8,1.4-2.7,2.5-3.5c1.7-1.3,2.5-3,3.5-4.7c1.6-2.5,2.1-5.5,3.9-8c2.2-3.1,2.9-6.8,4.3-10.3
	c2.2-6,3.7-12.2,4.6-18.6c0.5-3.6,1.3-7.1,2.4-10.6c1.9-5.8,2.8-11.9,2.8-18c0.1-4.9-0.1-9.8-0.2-14.8l-0.3-2.8c0-0.4,0-0.8,0-1.1
	c0.3-0.5,0.3-1.2,0-1.7v-1.1c0.3-0.5,0.3-1.2,0-1.7c-0.4-3.8-0.8-7.7-1.2-11.5c-0.1-0.7-0.5-1.3-1-1.7c0.1-0.1,0.1-0.3,0-0.4
	c0.5-0.5,0.3-1,0.2-1.6c-1.1-7.8-4.1-15-6.3-22.4c-0.8-2.6-1.3-5.3-3.1-7.6l-0.1-1.1c-1.4-3.4-3-6.7-4.2-10.1
	c-0.5-1.5-2.7-1.7-2.5-3.5s-0.9-3.2-2.3-4.3l0.1-0.2l-0.1-0.1c0.2-0.8,0-1.7-0.6-2.4c-2.8-3.2-4.1-7.2-6.1-10.8
	C453.9,262.2,453,261.5,452,261.4L452,261.4z"/>
<path class="st0" d="M178,112.5l0.5-0.6c1-0.8,1.9-1.8,2.5-3l0.4-0.6c1-0.9,1.8-2,2.4-3.2l0,0c1-0.5,1.8-1.3,2.3-2.3l0,0l5.3-4.6
	c0.5-0.1,0.9-0.5,1-1.1c1.7-0.7,3.1-1.9,4.2-3.4l0,0c0.9-0.1,1.8-0.4,2.6-1c4.7-3.3,9.7-6.1,14.9-8.4l0,0c0.3,0.1,0.5-0.1,0.6-0.3
	c0-0.1,0-0.1,0-0.2l0,0c1.4-0.4,2.7-0.7,4.1-1.2c3.3-1.2,6.5-2.7,10-2.9c4-0.3,8.1-0.6,12.1-1.1c3-0.4,6-0.5,8.7-2.2l0.6-0.1
	c2,0.2,4-0.2,5.8-1l1-0.1l1.1-0.1h1.1c0.5,0,0.9,0.1,1.4,0.1H279h1.1l0.3,0.1l0.3-0.1h1.2h4c0.6,0.2,1.2,0.2,1.7-0.1
	c2.3,0.2,4.5,0.3,6.8,0.2c3.5-0.3,6.9,0.7,10.4-0.3c0.8,0.6,1.7,1.2,2.8,0.7h2.3c5.8,1,11.8,0.4,17.6,0.8l0,0
	c1.9,0.4,3.9,0.7,5.8,1.1c7.8,1.7,15.8,2.4,22.8,6.7c5.4,3.4,11.3,5.8,16.4,9.8c2,1.6,4,3.7,6.9,4.1l0,0c0.7,2.3,3.2,3.2,4.3,5
	c3.3,5.6,7.8,9.9,12.3,14.4l0,0c1.4,2.8,3.7,4.9,5.7,7.3v0.2h0.2c0.4,2.3,2.2,3.9,2.7,6.1c0.2,1,0.3,2.5,1.6,3.1
	c-0.1,0.2,0,0.4,0.1,0.5c-0.1,0.7,0,1.5,0.1,2.2c3.3,8,5.9,16.2,7.8,24.6l0.2,0.6c0,1.6,0.3,3.2,1,4.6l0,0
	c0.9,9.2,3.1,18.2,4.6,27.4l0,0c0,2.2,0.4,4.3,1.1,6.4l0.2,2.2l2.7,16.5c0,0.4,0.1,0.8,0.1,1.1c-0.2,0.4-0.1,1,0.3,1.3l0,0
	c0.1,0.3,0.1,0.7,0.2,1l0.2,1.7c0.5,2.4,0.8,4.8,1,7.3c0.1,6-0.4,12,3.4,17.3l0,0c0.3,2.9,3,4.7,3.4,7.5c0.1,0.7,0.2,1.6,1.2,1.7
	l0,0c0.8,3.3,3.1,5.9,4.6,8.8l-0.1,0.1l0.1,0.1c1.6,2.5,1.9,5.7,4,8c0,0.5,0.3,0.9,0.7,1.1l9,18.3l0,0c0.1,2.6,1.8,4.7,2.5,7.2
	c1.1,4.5,2.9,8.9,5.2,12.9l0.3,1.7c0.2,1.5-0.3,3.2,0.9,4.5l0,0c0,0.9,0,1.7,0.1,2.5c1.7,7,2.8,14.2,3.2,21.4
	c0.2,4.8,0.2,9.7,0,14.5c-0.7,8.2-2.2,16.3-4.6,24.1c-2.7,9.2-3.9,18.8-7.9,27.6c-0.9,1-0.6,2.3-1.2,3.4l0.2,0.1l-0.2-0.1
	c-1.7,1.1-1.7,3.2-2.7,4.6c-3.5,4.6-7.4,8.9-10.8,13.6c-1.1,1.6-3.9,2-3.6,4.6l0,0c-2.7,1.5-5.2,3.3-7.6,5.2
	c-1.4,1.1-1.6,3.8-3.4,3.8c-2.7,0-4.1,2-6,3c-0.7,0.1-1.1,0.4-1.1,1.1c-0.8,1.2-2.3,0.6-3.3,1.4c-4.7,4-9.7,7.6-15,10.8
	c-4.4,2.8-7.8,7.1-13.1,8.4c-4.1,1.1-7.9,3.4-12.2,4c-1.9,0.3-4.1,0.5-5.7,2.1h-0.2c-0.9-0.5-1.9-0.4-2.7,0.2
	c-3.3,2.1-7.3,1.8-10.8,2.8s-8.1,0.9-12,1.8c-5.5,1.3-11.1,1-16.5,2.3c-3.4,0.8-6.5,1.7-10,0.9c-1.4-0.3-3.1-0.4-4.1,1.2
	c-0.2,0.3-0.6,0.4-0.9,0.4c-9.4-2.9-19-0.6-28.5-1.3c-5.9-0.4-11.9,0.2-17.8-0.6c-6.7-0.8-13.3-1.7-19.9-2.8s-13.1-2.3-19.8-2.8
	c-5.3-0.5-10.7-1.5-16.1-2.5c-4-0.7-8.1-0.9-12.1-1.6c-3.9-0.6-7.7-1.6-11.5-2.8c-11.1-4-21.5-9.6-32.4-14c-7.6-3-14-7.9-20.7-12.4
	c-5.8-3.8-11-8.3-16.7-12.3c-5.6-3.9-10.4-9-13.9-14.9c-4.1-7-8.5-13.8-12.2-21c-2.5-4.8-5.2-9.6-7-14.6c-1.2-3.4-2.5-7.3-2.1-11.5
	c0.3-2.9-0.5-6.1-0.3-9.1c0.6-15,2.4-30,6.3-44.6c2.5-9.1,5.2-18.3,9.4-26.8c2.8-5.6,7-10.4,10.4-15.7c3.8-6,7.5-12,11-18.1
	c1.1-1.9,1.1-4.4,1.9-6.5c3.7-9.9,8.2-19.5,12.5-29.2c2.2-5,3.2-10.3,4.3-15.5c1.3-6.1,4.6-11.6,5.5-17.9c0.2-0.1,0.2-0.3,0.1-0.5
	c1.4-3.2,2.5-6.4,3.4-9.8l0.1-0.1v-0.1c1.9-4.7,3.7-9.3,5.6-13.9c1.2-2.9,3.2-5.4,3.4-8.6l0,0c1.8-2.8,3-5.9,3.6-9.1
	c0.8-4.9,3.5-9,5.7-13.2C165.2,125,172.4,119.4,178,112.5z M268.7,269.4l0.5-0.1l4-0.5c0.3,0.3,0.8,0.3,1.2,0.1c3,0.8,6.1,0,9.1-0.3
	h1.1c1,0,2,0.4,3-0.3l3.3-0.1c2.8,0,5.5-0.3,8.2-1c0.9,0.2,1.8,0.2,2.7-0.2c9.7-1.1,19.5-1.6,29.1-3.9l2.3-0.6
	c3.3,0.9,5.9-1.5,9.2-1.6c3.8-0.1,7.7-1.4,11.4-2.8l0,0c2-1.3,4.4-1.6,6.5-2c4.5-1,7.9-3.5,11.5-5.9l0.2-0.1c0.9,0,1.7-0.4,2.3-1
	c9-7.9,18-15.7,21.9-27.5c0.2,0,0.3-0.1,0.4-0.3c0,0,0,0,0,0c0.6-0.4,0.5-0.9,0.4-1.5c2.2-7.9,2.8-16.2,1.5-24.3
	c-0.6-2.8-0.9-5.7-1.1-8.6c0.1-5.4-0.6-10.7-2-15.9c-0.9-3-1.7-6.1-2.3-9.2c-1.1-4.8-3.1-9.1-5.2-13.5c-1.9-3.8-3.2-7.9-5.6-11.4
	l0,0c-0.2-2.2-1.4-4.1-2.3-6c-3-6.4-5.9-13-10.7-18.4c-1.6-1.9-2.5-4.5-5.2-5.4l0,0c-0.4-1.1-1.3-1.9-2.4-2.2
	c-3.2-1.2-5.8-3.3-8.4-5.3c-2.5-2-5.8-2.8-9-2.2c-7,1-13.8,2.7-20.4,5.1l-2.1,0.2l-6.9,1h-1.2h-6.3c-1-0.2-2-0.2-2.9,0.1
	c-0.2-0.1-0.4-0.1-0.5,0h-0.6h-1.7l-1.2-0.1h-1.7l-1.2,0.1c-3.7,0.8-7.4,1.3-11.2,1.3c-1.4,0-3-1-4.2,0.5l-1,0.1l-14.3-1.1l0,0
	c-5.2-1.5-10.8-0.6-16-2.3h-1.7c-2.3-0.9-4.8-1-7.2-1.6c-4.2-1-8.7-1-12.8-2.1c-7.3-2-14.2-0.9-21,1.8c-1,0.2-1.9,1-2.3,1.9l0,0
	c-0.3,0-0.6,0.2-0.6,0.5c0,0,0,0,0,0l0,0c-6,2.6-10.9,7.3-13.7,13.3l0,0c-1.1,0.9-1.8,2.1-2.2,3.5l0,0c-2.5,3.1-3.8,6.8-5.6,10.3
	l-0.1,0.6c-3.6,5.7-6.6,11.7-8.9,18c-2.1,5.9-4.1,11.9-6,17.9l0,0c-1.2,3-2.4,6-3.6,9l0.1,0.2l-0.1-0.2c-1.3,1.5-2.3,3.1-2.1,5.3
	v0.1c-2.3,1.9-3,4.6-3.4,7.4l0,0c-0.5,0.6-0.8,1.5-0.8,2.3c0.1,2.3-0.8,4.5-1.5,6.5c-1.7,5.2-1.1,10.5-1.6,15.7
	c0,0.1,0.1,0.2,0.2,0.3c-1.5,6.5,0,12.7,2.5,18.7l0,0c-0.8,2.5,0.4,4.6,1.2,6.8v0.1c-0.4,1.6,1,2.7,1.3,4.1c0.5,2.2,1,4.8,3.1,6.3
	l0,0c0.6,2.4,2.2,4.5,4.4,5.7c5.9,3.9,11.9,7.7,18.6,10.2l0,0c3,0.7,5.7,2.1,8.9,2.2c2.9,0.5,5.7,1.8,8.7,1.2c1.1,1.2,2.6,1.1,4,1
	c5.3-0.4,10.5,0.6,15.8,0.9c6.8,0.3,13.5,0.2,20.3,0.3h1.2l1.1,0h1.2c0.5,0.1,1,0.3,1.5-0.1h0.2h0.2c0.4,0.3,0.7,0.2,1-0.2l0,0
	c4,0.9,8,0.2,11.9-0.6l0.6-0.1h1.1h4L268.7,269.4z M127.7,288.9h0.1H127.7c0-0.9,0-1.9,0-3c-0.3-1.9-1.8-2.1-3.2-1.7
	c-3.8,1.1-6.8,3.7-10,5.8c-4,2.5-7.2,6.3-9,10.6c-2.3,5.9-6.5,10.5-9.3,16.1c-3.3,6.4-4.9,13.5-4.6,20.7c0.1,5.9,1,11.7,2.7,17.4
	c0.2,0.6,0.2,1.3,0.1,2c-0.3,3.1,0.5,6.2,2.2,8.8c2.9,4.4,6.4,8.4,9.2,12.9c0.7,1.2,2.1,2.5,3.6,1.7s3.8-2,2.8-4.2
	c-1.1-2.5-1.4-5.4-3-7.6c-3.8-5.2-3.9-11.1-4.1-17.1c-0.2-6.4,1.3-12.5,2-18.8c0.4-5.1,1.4-10.1,2.9-15
	c3.8-10.7,10.5-19.6,17.3-28.4C127.4,288.9,127.6,288.9,127.7,288.9z M271.9,456.7c10,0.3,20.3-0.4,30.3-3.5c6.5-2,12.7-5,18.3-8.9
	c3.1-2.2,5.6-5.1,8.8-6.9c9-5.1,15.7-13.5,18.6-23.5c2.1-6.3,3.4-12.7,3.9-19.3c0.3-4.4,1.4-8.7,1.2-13.1c-0.2-3.3-0.7-6.6-0.8-9.8
	c-0.1-6.2-2.4-11.8-4.1-17.5c-0.9-3.2-2.6-6.1-3.5-9.3c-1.4-4.7-4.5-8.7-7.2-12.7c-1.7-2.3-3.5-4.4-5.6-6.3c-5.1-5-9.6-10.6-16.2-14
	c-1.3-0.7-3.3-1.2-3.9-2c-1.8-2.5-4.7-2.6-7-3.9c-4.3-2.4-9.5-2.5-14-4.2c-6.9-2.6-13.8-1.3-20.6-0.8c-4.7,0.3-9.3,1.3-13.8,2.8
	c-3.1,1-6.3,1.5-9.2,3.1c-3.3,2-6.4,4.2-9.4,6.6c-4.7,3.5-9.5,6.9-14.3,10.4c-4.2,3.1-7.1,7.3-9.9,11.5c-4.5,6.9-8.3,14.2-11.5,21.9
	c-2.1,4.9-2.2,10.3-3.3,15.4c-1.9,8.8-0.7,17.8-0.3,26.7c0.2,5,3.2,9.4,4.8,14.1s5.1,8.3,7.2,12.6c3.7,7.4,9.4,13.3,14.9,19.3
	c2.4,2.6,5.7,3.1,8.5,5c4.3,2.9,9.3,4.8,14.5,5.4C256.1,456.5,264,456.9,271.9,456.7z M390.3,351.6c0.3-1.7,0-3.4-0.7-5
	c-3.4-7.1-6.7-14.3-10-21.5c-4.2-9.1-10.4-16.3-17.7-22.6c-2.5-2.1-5.7-3.3-9-3.5c-1.4-0.1-2.5,0.6-2.5,1.8c0,1.4-1,3.7,0.9,4.1
	c2.9,0.6,3.8,2.9,5.1,4.8c5.9,8.5,9.3,18.1,13.3,27.5c1.4,3,2.5,6.1,3.4,9.3c1.9,8,2,16.3,1.8,24.5c0.1,1.7-0.1,3.4-0.4,5
	c-2.2,6.9-4.4,13.9-5.1,21.2c-0.6,5.9-2.1,11.7-4.3,17.2c-2.5,6.7-6.3,12.8-11.2,18.1c-2.7,2.9-5.1,6.3-5.3,10.6
	c-0.2,3.1,0.5,3.9,3.5,2.7c7.3-3,14.3-6.5,18.6-13.7c1.4-2.6,3.1-5,5-7.2c7.3-8.3,11.6-18.9,12-29.9c0.2-5.2,0.6-10.5,2.5-15
	c2-4.8,2-9.3,1.9-14.1C392,360.9,391.3,356.2,390.3,351.6z M158.4,375.7c0.6,4.5,1.5,8.9,2.7,13.2c1.9,8,4.8,15.6,8.7,22.8
	c3.6,6.6,7,13.3,11.8,19.2c1.3,1.8,3.1,3.1,5.2,3.9c4,1.5,6.1-0.5,5.7-4.5c-0.4-3.7-1.1-7.3-2.3-10.8c-2.7-7.7-5.9-15.4-8.8-23
	c-1-2.7-2.6-5.1-3.6-7.9c-1.6-4.8-1-9.6-1-14.5c-0.1-8.1,0-16.4,1.5-24.2c2.4-13.1,7.2-25.6,15.7-36.3c3.2-4.1,7-7.8,7.5-13.5
	c0.2-1.5,0.1-2.7-1.1-3.4c-1.1-0.7-2.5-0.4-3.3,0.7c0,0,0,0,0,0c-0.8,1.2-1.7,2.2-2.8,3.2c-10.6,8.8-18.6,19.9-25.7,31.5
	c-4.1,6.7-7.7,13.9-7.3,22.2c0,0.4-0.1,0.8-0.1,1.1c0,4.9-3.9,9-2.8,14.2C158.8,371.6,158.4,373.7,158.4,375.7L158.4,375.7z
	 M154.1,292.4c-0.7,0.3-1.8-0.7-2.2,0.4c-0.9,2.1-3,3.3-4.1,4.8c-2.9,3.8-6.7,6.9-9,11.2c-1.8,3.3-3.6,6.7-5.6,9.9
	c-5,7.8-8.5,16.5-10.3,25.7c-0.9,5-1.4,10.2-2.2,15.2c-0.9,6-0.5,12.1,1.2,18c1.8,6.8,5.5,12.9,7.2,19.7c0.4,1.3,1.2,2.4,2.4,3
	c1.9,1.1,3.3,2.8,4.1,4.9c0.6,2.4,2.2,3.8,3.5,5.6c2.1,2.7,5.7,3.5,7.3,6.8c0.6,1.2,2.7,0.8,4.2,0.5s1.8-1.8,2-2.7
	c0.5-1.7-1.3-2.8-2.2-4.1c-1.2-1.7-4-2.8-2.8-5.7c0-0.4-0.1-0.8-0.5-1c-1.8-1-1.5-2.7-1.7-4.2c0-0.8-0.2-1.7-0.4-2.5
	c-3.8-6.9-6-14.1-5.2-22.2c0.5-5.2-0.1-10.6,0.1-15.9s0.8-10.5,1.3-15.7c0.2-1.7,0.2-3.9,0.7-5.1c1.4-3,1.4-6.2,2.2-9.2
	s1.4-6.5,2.6-9.5c3-7.6,6.7-15,10.1-22.4C158.1,295.2,156.5,292.3,154.1,292.4L154.1,292.4z M423.7,361c-0.5-7.3-0.7-14.5-2.5-21.8
	c-1.2-4.9-3-9.6-4.5-14.3c-2-6.3-6.5-11.5-9.7-17.3c-1.7-3-4.2-5.3-6.3-7.9c-2.4-3.1-5.7-5-9.2-6.7c-0.9-0.4-2-0.7-3-0.8
	c-2-0.1-2.5,2-3.5,3.1s0.8,1.5,1.7,1.9c0.7,0.3,1.2,0.9,1.5,1.6c3.4,7.5,7.8,14.5,11.4,21.9c3.7,7.3,6.3,15.1,7.7,23.1
	c1.2,7.2,1.2,14.5,1.4,21.8c0.2,9.1-3.1,17.1-5.7,25.5c-2.1,6.9-6,13.2-4.7,20.9c0.3,1.9,1.8,3.4,3.4,2.4c2.1-1.2,4.4-2.6,5.6-4.6
	c4.2-6.7,8.9-13,11.6-20.7C422.1,379.9,424.4,370.8,423.7,361z M449.9,328.3c-0.1-7.4-4.2-13.6-7.7-19.7c-2.9-5.2-7-9.6-11.1-14.1
	c-3-3.2-6.3-4.9-10.6-4.6c-1.2,0.1-2.3,0.2-2.8,1.5c-0.3,1.1,0.3,2.2,1.3,2.6c5,2.7,7.6,7.4,9.8,12.2c3.5,7.6,7.8,15.1,5.7,24.1
	c-1.3,5.5-0.6,11.1-1.2,16.7c-0.3,2.6-1.2,5.3-0.9,7.9c0.2,2.4-0.1,4.8-0.8,7.1c-0.9,3.2-1.7,6.4-2.2,9.7c-0.3,1.9,0.3,3.7-1.4,5.4
	c-0.9,0.9,0,2.7,1.3,2.1c2.1-0.9,5-1.1,5.9-3.4c1.7-4.2,4.6-7.9,5.8-12.3c1.1-3.9,1.9-8.1,3.8-11.6c2.1-3.9,2.3-7.9,2.8-12
	c0.1-1.1,0-2.5,0.7-3.3C450.5,334,449.8,331.2,449.9,328.3L449.9,328.3z"/>
<polygon class="st0" points="165.1,125.2 165.1,125.1 165.2,125.2 "/>
<path class="st0" d="M227.3,362.8l-1.8,5.2C225.5,366.1,226.1,364.3,227.3,362.8z"/>
<path class="st0" d="M228.7,229.2l-1.1,0.6c-5,3.2-9.5,7-15.3,8.8l0,0c-0.5,0-0.9-0.1-1.2,0.4l-1.1,0.4l-0.7,0.2H209l-0.2,0.1
	c-2,0.1-4,0.6-5.8,1.6l-1.1,0.3l-4,1c-0.5-0.3-1.2-0.3-1.7,0h-0.6c-0.5-0.3-1.2-0.3-1.7-0.1c-2.4-1.1-5.2,0.2-7.6-1.5
	c-6-4.2-12.5-7.8-16.1-14.8c-1.4-2.7-2.5-5.3-2.6-8.3c0-2,0.3-4.1-0.5-6.2l-0.1-1.1c0-1.7,1-3.3,0.7-5.1l0,0
	c0.5-0.9,0.9-1.9,0.9-2.9l0.2-2.1c0.8-0.7,0.7-1.7,1.1-2.5c1.1-2.3,0.9-5.3,3-6.9c4.5-3.7,9.1-7.1,15.5-6.7
	c8.2,0.6,14.3,4.8,19.8,10.4c0.6,0.6,0.9,1.4,0.3,2s-1.3,0.1-2-0.3c-2.3-1.2-4.7-2.4-7-3.7l0,0c-6.7-4.5-13.5,2.4-13.9,7.9
	c-0.5,6.6,2,12.7,4.9,18.5c1.2,2.5,3.1,5.5,6.3,5.7c5.8,0.6,11.8,0.2,17.5-1.1l0,0l7.8-2.2c3.7-0.3,6.9-2.4,10.4-3.2
	c2.7-0.6,5.2-1.7,7.8-2.5c0.5-0.2,1.2-0.2,1.4,0.5c-2.8,3.1-5,6.8-8.1,9.6l0,0C231.7,226.4,230.3,227.9,228.7,229.2z"/>
<path class="st0" d="M378.8,192.6c0.1,0.7,0.3,1.4,1.2,1.5c0.5,1.2,1.1,2.3,1.6,3.5c0.1,0.5,0.1,0.9,0.6,1.1
	c0.2,1.4,0.6,2.8,1.2,4.2l-0.1,0.2l0.1,0.2c-0.2,1.6,0,3.1,0.5,4.6l0.1,4.5l-4.5,9.1l0,0c-0.4,0-0.5,0.2-0.4,0.5
	c-0.4,0.9-1.3,1.6-1.3,2.8c-1.6,2-3.5,3.7-5.6,5.2l-1.2,0.8c-0.5,0.1-1,0.4-1.2,1l0,0c-0.7,0.1-1.4,0.5-1.7,1.2l-0.6,0.5
	c-0.8,0.5-1.9,0.8-2.3,1.8l0,0c-4.2,2.3-9,2.9-13.5,4.5c-0.8-0.1-1.7-0.1-2.5,0.3c-1.7,0.1-3.4,0.1-5.1,0.2c-4,0.2-7.9,0.3-11.2-2.5
	c-2.8-2.4-5.8-4.7-8.7-7.1l0,0c-0.5-1.1-1.3-2.1-2.4-2.8l0,0c-2.9-3.9-6.4-7.4-8.7-12.3c2.9,0.9,5.6,2.1,8.2,3.6
	c1.9,1.1,3.7,2.6,6.2,2.5l0,0c4.8,1,9.5,2.5,14.4,0.7l1.1-0.5l0.6-0.2l0,0c2.5,0.1,5-0.7,7-2.2l0,0c4.4-1.4,8.9-2.5,11.4-7l0.1-0.1
	c2.5-2.8,4-6.3,4.2-10c0.4-3.6-1.6-6.1-4.8-5.7s-6.4,0.7-8.9,3.1l0,0c-3.1,1.6-5.2,4.6-8.3,6.4C347.2,191.3,364.1,186,378.8,192.6z"
	/>
<path class="st0" d="M205.6,159.9c0.4-0.3,0.6-0.7,0.5-1.2c2.5-3,2.5-7.3,5-10.3c0.1-0.1,0.2-0.3,0.4-0.4l3.3-3.8l0.1-0.1
	c1.8-1.6,3.7-3.2,5.4-5c2.6-2.5,5.4-4.2,9.3-3.8c5.7,0.5,11.4,0.4,17.1,1.3c8,1.2,12.6,6.3,17.3,11.7c1,1.2,1.2,3.1,1.8,4.7l0,0
	c0.3,2.3-0.3,4.6,0.6,6.8c-0.2,0.9,0.5,1.5,0.6,2.3v1.1l-0.1,2.6c-0.7,2.1-1.3,4.3-1.5,6.6c-0.5,0.4-0.7,1-0.7,1.6
	c-1.5,2.2-2.6,4.6-3.5,7.1c-0.3,1-0.9,1.8-1.8,2.4c-7.5,4.8-15.3,8.5-24.4,9c-0.5-0.4-1.1-0.4-1.7-0.1c-3-0.6-5.9-1.2-8.8-1.7
	c-2.2-0.4-4.2-1.7-6.6-1.2l-0.2-0.1l-4.2-2.4l-0.1,0.1l0.1-0.1c-1.3-1.2-2.7-2.3-4.1-3.3c-2.4-1.6-2.5-4.4-3.9-6.5l-0.2-0.9
	c0.1-0.3,0-0.5-0.4-0.6l0,0c0-1.1,0.1-2.3-0.6-3.4v-4C204.3,165.5,204.8,162.7,205.6,159.9z M231.5,186.4c4.4-0.4,8-0.8,11.6-0.9
	c5-0.2,9.9-1.3,12.5-5.9c2.9-5.2,6.1-10.3,5.9-16.9c-0.2-4.3-1.2-8.6-2.8-12.5c-1.8-4.5-6.5-6.4-10.5-8.6s-9-1.8-13.3-0.9
	c-4,0.9-8.2,0.9-11.8,4.2c-5.6,5.2-11.1,10.1-11.5,18.3c-0.1,1.5,0.6,3,0.4,4.5c-0.8,4.7,1.6,8.3,4.1,11.5
	C220.1,184.4,225.8,186.3,231.5,186.4L231.5,186.4z"/>
<path class="st0" d="M296.1,174.1c0-0.4,0.1-0.7,0.1-1.1c0.6-2.3,0.2-4.6,0.4-6.9l0.2-1.5c0.4-0.3,0.6-0.8,0.4-1.3l0.3-1.1
	c2.1-8.2,5.6-15.4,13.2-19.9c1-0.6-0.1-0.8-0.1-1.2c0.9,0.2,1.5-0.5,2.2-0.9l2.3-0.8l0,0l0.3,0.1l0.3-0.1h1.1
	c6.2-1.4,12.4-0.5,18.6-0.4c3.6,0.1,7,1.5,9.7,4l2.8,2.4v0.1c0.5,1.3,1.4,2.4,2.5,3.2l0,0c1.5,2.9,3.9,5.4,4.7,8.8
	c1.4,6.2,1.8,12.7,0.9,19l0,0c-1.3,3-2.8,5.8-4.6,8.6l0,0l-8.3,9l-0.7,0.4c-1.4,1.1-3.3,1.3-4.6,2.6l-1.7,0.1
	c-2.5-0.1-5.1-0.4-7.5,0.5h-0.8c-4.6-1.2-9-2.7-13.4-4.5l-0.7-0.2c-4-2.8-8.8-4.3-12.4-7.6c-0.1-0.2-0.3-0.3-0.5-0.2l-1.1-1.2
	l-0.7-1.1c-0.3-1.2-0.9-2.4-1.7-3.5c-0.4-1.3-0.8-2.6-1.2-4C296.1,174.9,296.1,174.5,296.1,174.1z M350.7,165.2
	c-0.2-3-0.9-6-1.9-8.9c-2.8-7.4-11.4-13.8-18.6-13.5c-2,0.2-3.9,0.6-5.8,1.1c-8,1.4-14.8,4.5-18.9,11.9c-1,2.2-1.8,4.4-2.6,6.6
	c-1.7,4.1-1.9,8.6-0.6,12.9c1.2,3.9,4.4,6.8,7,9.9c0.9,1.1,2.5,0.5,3.1,1.6c1.4,2.5,4.3,2.5,6.4,3.8c3.9,2.4,8.5,1.5,12.6,0.6
	C342,188.9,352,180.6,350.7,165.2z"/>
<path class="st0" d="M254.5,227.2l1.1-0.2l7.6-1l1.6-0.1c10.3-0.1,20.6,0.5,30.8,1.7l1.1,0.2c5.5,1.4,11.2,1.8,16.6,3.8
	c0.1,0.1,0.3,0.2,0.4,0.1c0.6,0.7,1.5,1.2,2.4,1.1l0,0c0.8,0.8,2,1.2,3.1,1.1c3.4-0.4,6,1,8.3,3.4c1.9,1.9,1.9,4.9,0,6.8
	c-0.6,0.5-1.2,1-2,1.2c-2.8,0.9-5.2-0.2-7.4-1.8c-7.8-5.8-16.9-8.4-26.2-9.4c-5.7-0.7-11.4-1.2-17.2-1.4
	c-13.4-0.2-26.5,4.5-36.7,13.3c-1.9,1.6-3.9,1.4-5.9,0.7c-1.7-0.7-2.9-2.4-2.9-4.2c-0.3-3,3.1-7,7.3-7.9c2.6-0.7,5-1.8,7.1-3.3
	l1.6-0.8c2-0.5,4-1.2,5.8-2.2l0,0C252.3,228.3,253.5,227.9,254.5,227.2z"/>
<path class="st0" d="M215.1,117.6c0.5-2.5,1.8-4.1,4.5-3.3c6,1.9,12.2,1.1,18.2,1c5.3-0.2,10.2,2,15.4,2.6c0.8,0.1,1.7,0.5,2.5,0.6
	c2.3,0.3,5.5-0.2,6.3,2.2c1.2,3.4,1.2,7.1,0.2,10.6c-0.8,2.8-2.3,3.4-4.9,2.7c-2-0.5-4.1-0.7-6.2-0.4l-2.1-0.1
	c-0.6-0.2-1.2-0.4-1.9-0.5c-6.6-0.2-13.2-0.4-19.8-0.7c-0.8,0.1-1.5-0.1-2.2-0.4c-2.5-2-5.3-1.3-8.1-1.1c-3.4,0.3-3.8-0.1-3.9-3.5
	c0-2.6,1.5-4.9,1.3-7.5C214.7,119.1,214.9,118.4,215.1,117.6z"/>
<path class="st0" d="M335.7,112c2.2,0.1,4.4-1,6.6-0.1c2.3,4.3,3.8,9.1,4.3,13.9c0.2,2.1,0,3.3-2.4,3.2c-2.1,0-4.1,0.4-6,1.4
	c-2.9,1.3-6.1,2-9.3,2.2c-1.1,0-2.3,0.4-3.2,1l-1.1,0.1c-5.1,1-10.2,1.2-15.4,1.8h-1.2c-1.8-0.8-3.7-0.3-5.6-0.1
	c-2.2,0.3-3.2-0.7-3.1-2.9c0-1.6,0.8-3.3,0-4.8c-1.4-2.5-0.2-4.4,0.7-6.6l0,0c0.9,1.3,1.8,0.9,3,0.3c2-1,3.8-2.5,6.2-2.6
	c8-0.4,15.6-3.1,23.3-5.1C333.7,113.4,334.9,113.1,335.7,112z"/>
<path class="st0" d="M293.3,202.1c-3.6,1.6-5.5,5-8,7.7c-0.5,0.6-0.8,1.7-1.9,1.3s-0.5-1.3-0.5-2c0-1.4,0-2.8,0-4.2
	c0.2-0.8,0.5-1.5,0.7-2.3c0.2-0.5,0.5-1,0.7-1.5c1.5-4.2,3.6-7.5,8.9-6.5c0.5,0.1,1-0.3,1.5-0.5c0.5,0.3,1.1,0.3,1.6,0.1
	c2,1.4,4.7,0.9,6.5,3.1s3.9,4.1,5,7c1.2,3.5,1.4,3.8-1.8,6.2c-0.4-0.9-0.8-1.7-1.3-2.5c-2.6-5-6.6-7.2-11.1-6.1h-0.2L293.3,202.1z"
	/>
<path class="st0" d="M255.7,212.3c-2.8-3.6-2.7-9.6,0.1-13.7c3.1-4.5,6.8-6.2,11.4-4.6c4.4,1.5,6.4,5.4,7.6,9.5
	c0.4,1.4,0.3,2.9,1.1,4.3c0.4,1,0.3,2.1-0.1,3c-0.2,0.7-0.9,0.9-1.6,0.8c-1-0.1-0.4-0.7-0.5-1.2c-0.4-2.2-1.3-4.3-2.5-6.2
	c0.1-0.5-0.1-0.9-0.5-1.2c-2.7-4.4-6.4-4.5-9-0.1c-1.2,2-2.2,4.1-2.9,6.4l0,0l-2.2,3L255.7,212.3z"/>
<path class="st0" d="M288.7,121c-1.9-1.5-1-3.6-1-5.4c1-0.6,1.8-1.5,2.3-2.5l0,0c0.5-0.2,1-0.4,1.6-0.6c5.8-1.6,7.2,0.3,7.5,6.1
	c0.2,4.1-2.9,6.3-5.2,8.9l-0.5,0.4c-2.5,1.6-4.7,3.9-7.8,4.5c-0.2-0.8,0-1.7,0.5-2.3c1.2-2.2,2.5-4.4,3.6-6.7
	C290,122.4,290.7,121.2,288.7,121z"/>
<path class="st0" d="M278.3,127.9c0.1,1.8-0.8,1.4-1.9,1c-3.2-1.2-5.5-3.8-8.3-5.6c0.2-2.2,0.1-4.1-2-5.7s-0.9-3.8,0.2-5.6
	s2.4-3.1,4.7-1.6c0.1,0.2,0.2,0.3,0.4,0.3c0.8,1.2,2.1,2.1,3.5,2.5c-0.1,0.1-0.1,0.2,0,0.3c0,0,0,0,0.1,0c-1,5.1-0.5,9.8,3,13.9
	C278.1,127.7,278.3,127.9,278.3,127.9L278.3,127.9z"/>
<path class="st0" d="M261.7,249.2c1.3-0.6,0.9-4,3.2-2.5c1.9,1.2-0.1,2.9-0.6,4.2c-0.7,1.9-1.8,3.6-2.1,5.5c-0.5,3-2.2,3.6-4.8,3.1
	c0-0.2-0.1-0.4-0.1-0.5c1-2.3,2.4-4.4,2.9-6.9c0.1,0,0.2-0.1,0.2-0.2c0,0,0-0.1-0.1-0.1C260.7,251.1,261.1,250.2,261.7,249.2
	L261.7,249.2z"/>
<path class="st0" d="M287.6,249.8c0.2,2.5,0.3,5,0.6,7.5c0.1,0.9,0.1,2.1-0.7,2.2c-1,0.2-1.9-1-3.2-1c-0.9,0-0.1-1,0-1.5
	c0.2-1.3,0.2-2.7-0.1-3.9c-0.5-2.2,0.4-3.1,2.3-3.6C286.7,249.8,287.2,249.9,287.6,249.8z"/>
<path class="st0" d="M251,248.9c1.2,0.5,2.3-1.6,3.5,0c-0.1,0.2-0.1,0.4-0.1,0.5c-2.8,2.8-4.8,6.1-7.4,9.1c-0.8,0.9-1.4,2-3,1.3
	c0.5-2.4,2.7-4,3.4-6.3c0.5-0.3,0.8-0.7,0.9-1.3c0.5-0.2,0.6-0.6,0.6-1.1l0,0c0.7-0.8,1.3-1.5,1.9-2.3L251,248.9z"/>
<path class="st0" d="M296.5,255.3c-0.2,1.1,0.8,1.6,1.5,2.7c-1.7-0.6-3,0.9-4.6,0.2l-0.1-0.1c0.1-0.8,0-1.7-0.4-2.4
	c-0.1-0.4-0.2-0.7-0.3-1.1c0.1-0.4,0-0.8-0.3-1v-0.2c-0.1-1.2,0.1-2.4-0.5-3.5c0-0.4-0.1-0.7-0.1-1c1.4-1.6,2.2-1.8,3.2,0.6
	C295.7,251.4,294.9,253.7,296.5,255.3L296.5,255.3z"/>
<path class="st0" d="M276,251.3c0.4,2.5-1,5.3,1.1,7.8c-1.4,0.4-2.9,0.1-4.1-0.6l-0.2-0.2c0.8-1.2,0.3-2.6,0.3-3.9
	C273,252.3,273.6,251.1,276,251.3L276,251.3z"/>
<path class="st0" d="M301.3,257.5c-0.4-1.8,0.8-3.6,0.2-5.5c1.2,0.9,2,2.1,2.4,3.6c0.6,1.5-0.4,1.6-1.5,1.8L301.3,257.5z"/>
<path class="st0" d="M278,176.4c-0.5-0.3-1-1.2-0.6-1.3c1.3-0.4,1.8-2,3.2-2.2l0,0c0.6,1.4-0.8,1.9-1.1,3L278,176.4z"/>
<path class="st0" d="M372.7,150.7c-1.1-1.8-0.8-3.7-0.6-5.6c1.5,1.7,0.6,3.8,0.8,5.7L372.7,150.7z"/>
<path class="st0" d="M306.7,250.1l0.5-0.6c3,1,3.9,4.1,5.9,6.1c0.6,0.6-0.7,1.2-1.1,1c-1.6-0.8-3.1,0.2-5-0.1
	C308,254.4,308.1,252.2,306.7,250.1z"/>
<path class="st0" d="M191.6,153.7c-0.6,2.9,0.8,6.3-2.1,9.2C189.3,159.7,190.1,156.5,191.6,153.7L191.6,153.7z"/>
<path class="st0" d="M280.7,172.9l0.2-0.1L280.7,172.9L280.7,172.9z"/>
<path class="st0" d="M204.1,217.9c0.7-0.6,1.5-0.3,1.6-1.1s0.5-1.2,1.4-1c0.2,0.1,0.6,0.2,0.1,0.5s-0.1,1.6-1.2,1.6
	C205.4,217.9,204.9,217.9,204.1,217.9z"/>
<path class="st0" d="M221.4,165c-0.4-11.5,11.8-19.2,21-18.3c3.9,0.3,7.2,2.9,8.5,6.6c1.6,4.3,2.4,8.8,2.5,13.3
	c0.2,5.7-7,11.9-12.6,11.2c-2.2-0.2-4.3-0.1-6.5,0.3c-4.8,0.6-7.8-2.5-10.5-5.4C221.9,170.6,221,167.8,221.4,165z"/>
<path class="st0" d="M341.3,167.5c-0.4,9.6-7.1,16.2-16.6,15c-8.7-1.1-14.6-5.9-14.2-16.9c0.1-4.1,2.6-7.2,5.1-10.2
	c3.6-4.3,8.7-3.8,13.4-3.5c7.6,0.7,13.1,7.4,12.4,15C341.3,167.1,341.3,167.3,341.3,167.5z"/>
</svg>
