<?xml version="1.0" encoding="utf-8"?>
<!-- Generator: Adobe Illustrator 26.0.2, SVG Export Plug-In . SVG Version: 6.00 Build 0)  -->
<svg version="1.1" id="Livello_1" xmlns="http://www.w3.org/2000/svg" xmlns:xlink="http://www.w3.org/1999/xlink" x="0px" y="0px"
	 viewBox="0 0 1202.1 166.8" style="enable-background:new 0 0 1202.1 166.8;" xml:space="preserve">
<style type="text/css">
	.st0{fill:#FFFFFF;}
</style>
<path class="st0" d="M821.9,81.4c0-24.1,0-48.3,0.1-72.5c0-2-1.4-5.5,2.4-5.3s8.5-2.8,11.1,2.5c2.1,4.4,4.1,8.7,5.9,13.2
	c1.5,3.7,2.8,4.1,5.7,0.9c10.9-12.3,24.8-18.8,41-20C903.8-1,916.4,5.9,926.8,17c2.8,3,4,2.8,6.8,0.2C952.3-0.6,978.1-5,999.5,6.1
	c13.8,7.2,22.3,19.4,27.3,33.7c10.8,30.4,9.4,60.8-1.9,90.9c-3.4,9-8.5,17-15.8,23.2c-10,8.4-21.4,8.8-32.8,3.8
	c-11.1-4.8-17.3-13.9-18.1-26.1c-0.9-14.1,5.1-25.6,14.6-35.4c6.3-6.4,13.4-11.9,19.9-18.1c6.1-5.7,10.6-13,12.9-21
	c1.3-4.6,1.7-9.3-1.1-13.5c-3.7-5.6-11.7-6.7-18.3-2.5c-4.4,2.8-8.1,6.4-11.8,10c-5.9,5.7-12.3,10.3-21.3,8.7
	c-3.3-0.6-2.5,1.6-2.2,3.4c3.3,19.1,2.7,38.7-1.8,57.5c-2.2,9.4-5.7,18.4-11.7,26.2c-9.8,12.8-24.4,17.2-37.9,11.2
	c-12.7-5.6-20.5-21-18-35.7c2.3-13.4,9.4-23.9,19.3-32.9c9.3-8.3,18.8-16.5,25.4-27.3c1.4-2.2,2.6-4.6,3.4-7.2
	c1.6-4.9,1.4-9.7-2.6-13.4s-8.7-3.8-13.5-2c-6.1,2.3-10.3,7.3-14.8,11.6c-5.4,5.2-10.4,10.7-16.3,15.4c-2.4,2-5.2,3.6-8.2,4.6
	c-7.7,2.6-11.9,1.5-16.9-5c-4.6-6-8.8-12.1-10.8-19.5c-0.6-2.2-1.6-4-4.1-3s-1.1,3.2-0.6,4.7c2.8,7.8,7.7,14.4,12.1,21.1
	c8.6,13,15.5,26.7,17.8,42.4c1.1,7.8,1.1,15.7-1.2,23.3c-4.7,15.6-16.5,24-34.2,24.6c-3.2,0.1-6.3-0.2-9.5,0.1c-4,0.4-5.1-1.2-5-5.1
	c0.2-24.5,0.1-49,0.1-73.5L821.9,81.4z"/>
<path class="st0" d="M339.6,30.5c5.9-7.1,13.1-13,21.2-17.4c36.4-19.7,87.7-5.3,101.4,42.2c3.6,12.4,4.5,25-0.4,37.2
	c-4.5,11.2-13,13.8-23.3,7.4c-15.5-9.7-32-17-50.1-20.4c-11.6-2.2-23.1-2.4-34.6,0.6c-1.8,0.5-4,0.8-3.5,3.2c0.6,3.1,3,1.1,4.4,1
	c37.4-4.2,69.3,5.5,92,37.2c8.4,11.7,11,25.5,11.4,39.7c0.1,2.6-0.9,3.6-3.5,3.5c-15.3-0.1-30.7,0.1-46-0.3
	c-8.1-0.2-12.8-5.8-16.5-12.2c-5.6-9.9-8-21.1-12.2-31.6c-3-7.7-5.9-15.5-11.9-21.7c-3.9-4.2-9.1-6.8-14.8-7.5
	c-1.3-0.2-2.9-0.4-3.1,1.5c-0.2,1.4-0.1,2.8,1.6,3.1c12.2,2.5,17.7,11.6,21.3,22.1c3.5,10,3.9,20.2-0.9,30.1s-13.1,14.9-23.7,15.9
	c-7.6,0.7-15.3,0.3-23,0.5c-2.8,0.1-3.6-1-3.6-3.8c0.1-49.5,0.1-98.9,0-148.4c0-3.7,1.4-4.4,4.7-4.4c8,0.1,7.9,0,9.4,7.9
	C337,20.5,338.2,24.8,339.6,30.5z M350.8,74.1c0.5-0.1,1-0.2,1.4-0.4c18.4-10.5,37.5-11,57.3-4.6c6.8,2.2,13.5,4.8,20.6,5.6
	c12,1.4,18.5-6.5,14.9-18.1c-4.2-13.4-17.3-22.2-33.6-21.3c-25.1,1.4-44.7,13.4-59.9,33.2C350.3,70.3,349.8,72,350.8,74.1
	L350.8,74.1z"/>
<path class="st0" d="M19.1,32.2c5.2-8.6,11-15,18.7-19.2C53.8,4,70.2,5.3,86.4,12c35.9,14.7,65.8,59.9,65.9,98.7
	c0,26.2-13.7,44.6-38.9,52.1c-10.3,3-20.9,4.3-31.6,3.9c-8.3-0.2-14-4.4-17.6-11.8c-4.4-9-6.3-18.9-10.2-28.1
	c-4.5-10.7-11.9-17.5-23.8-18.7c-1.8-0.2-4.2-1.2-4.7,2s1.9,3,3.8,3.3c21.2,3.2,27.2,31.5,17.5,45.9c-3,4.4-7,6.9-12.6,6.9
	c-10-0.1-20-0.1-30,0c-3.2,0.1-4.3-1-4.3-4.3C0.1,112.6,0.1,63.3,0.1,14c0-1.9-0.6-4.6,2.5-4.3c3.4,0.4,8-2.6,10,2.6
	C14.9,18.4,16.6,24.7,19.1,32.2z M71.9,39.7c-7.2,0-19.3,3.8-30.1,11.3C27.7,60.9,19.1,74.1,19.3,92c0,1.8-0.3,3.8,2.6,3.9
	c2.7,0.1,2.2-1.9,2.4-3.4c0.6-5.8,4.1-9.4,9-11.7c10.7-5,21.2-4.1,31.8,0.7c10.1,4.6,19.6,10.8,30.5,13.6c8.9,2.3,17,0.3,23.2-6.6
	c5.6-6.2,4.8-13.5,2.3-20.7C115.3,51,97.7,39.7,71.9,39.7z"/>
<path class="st0" d="M1068.9,28.1c5.2-8.6,11-15,18.7-19.2c16-8.9,32.4-7.6,48.6-0.9c35.9,14.7,65.9,59.9,65.9,98.7
	c0,26.2-13.7,44.6-38.9,52.1c-10.3,2.9-20.9,4.3-31.6,3.9c-8.3-0.2-14-4.4-17.6-11.8c-4.3-9-6.3-18.9-10.2-28.1
	c-4.5-10.7-11.9-17.5-23.8-18.6c-1.8-0.2-4.2-1.2-4.7,2s1.9,3,3.8,3.3c21.2,3.2,27.2,31.5,17.4,45.9c-3,4.4-7,6.9-12.6,6.9
	c-10-0.1-20-0.1-30,0c-3.2,0-4.3-1-4.3-4.3c0.1-49.3,0.1-98.6,0.1-147.9c0-1.9-0.6-4.6,2.5-4.3c3.4,0.4,8.1-2.6,10,2.6
	C1064.7,14.3,1066.5,20.6,1068.9,28.1z M1121.8,35.6c-7.2,0-19.3,3.8-30.1,11.3c-14.2,9.9-22.8,23.1-22.6,41c0,1.8-0.3,3.8,2.6,3.9
	c2.7,0.1,2.2-1.9,2.4-3.4c0.6-5.8,4.1-9.4,9-11.7c10.7-5,21.2-4.1,31.8,0.7c10.1,4.6,19.6,10.8,30.5,13.6c8.9,2.3,17,0.3,23.2-6.6
	c5.6-6.2,4.8-13.5,2.3-20.7C1165.1,47,1147.6,35.6,1121.8,35.6z"/>
<path class="st0" d="M476.6,82.2c-0.2-36.8,27.3-73.9,68.4-79c27.3-3.4,50.2,6.3,67.8,27.2c33.5,39.7,22.9,99.5-19.6,125.2
	c-39.9,24.1-92.7,5.5-110.4-39C478.4,105.7,476.3,94,476.6,82.2z M562.9,28.5c-24.3,0.2-44.6,12.4-54.7,30.6
	c-4.7,8.5-7.5,17.4-7.7,27.1c0,1.9,0.2,3.2,2.6,3.2c2.1,0,3.1-0.7,3.3-2.8c0-1,0.2-2,0.4-3c1.6-7,4-13.5,11.5-16.2
	c4.9-1.7,9.8-1.4,14.8-0.3c9.6,2.2,18.4,6.7,27.4,10.4c10.2,4.2,19.9,10.1,31.2,11.6c10.6,1.5,19.6-6.2,19.4-16.9
	c-0.1-6.7-1.6-13.2-5.5-18.9C594.5,37.1,578.7,29.4,562.9,28.5L562.9,28.5z"/>
<path class="st0" d="M291.9,30.2c1.8-6.6,3.6-12.1,4.9-17.7c1.5-6.2,6.2-3.5,9.8-3.8c4.1-0.4,3.1,3,3.2,5.2c0,48.6,0,97.3,0.1,145.9
	c0,4-1,5.7-5.3,5.5c-5.8-0.3-11.7-0.2-17.5-0.1c-6.9,0.4-13.7-2.3-18.5-7.2c-11.4-11.4-16.6-25.2-14.1-41.3
	c1.2-8,5.9-13.2,14.2-14.6c1.5-0.3,3.1-0.3,3-2.4c-0.1-2.7-2.3-2-3.7-1.9c-11.1,0.3-18.1,7.9-19,21c-0.4,7.3-0.3,14.7,0.4,22
	c0.5,6,0.5,12-1.9,17.7c-1.5,3.8-4.4,6.2-8.2,6.4c-23.7,1.4-46.1-2.6-63.8-19.8c-16.8-16.3-20.1-36.8-13.9-58.6
	c8.9-31.1,27.7-55,55.4-71.6c13.4-8,28.2-11.2,43.7-8.6c12.4,2.1,22.3,8.4,28.6,19.6C289.8,26.9,290.5,28,291.9,30.2z M293.8,86.3
	c-0.2-25.8-18.1-47-44.5-52.8c-20.1-4.4-39.1,3-48.7,19c-4.6,7.7-5.9,16.1-1.5,24.2s12,11.4,21.2,11.4c7.6,0,14.9-1.7,22.2-3.3
	c9.6-2.1,19-5.1,28.9-5.5c4.2-0.2,8.3-0.3,12.1,1.9c3.4,1.9,5.6,5.5,5.7,9.4c0.1,1.6-0.3,4.2,2.5,4c2.6-0.2,1.9-2.7,2.1-4.4
	C293.8,89,293.9,87.6,293.8,86.3L293.8,86.3z"/>
<path class="st0" d="M802.5,59.8c-0.4,0.8,0.2,1.4,0.5,2.1c0.2,0.8,0.5,1.6,1,2.3c0,0,0.1,0.1,0.1,0.1c0.2,1.8,0.9,3.6,1,5.4
	c-0.1,0.6,0,1.2,0.3,1.7c0,0.1,0,0.1,0,0.2c-0.1,1.7,0.8,3.4,0.6,5.1c-0.1,1.1,0.1,2.3,0.5,3.4c0.4,1.1,0.5,2.2,0.5,3.4
	c-0.2,1.6,0.2,3.2,0.2,4.8c0.1,0.8,0.2,1.6,0.2,2.5c-0.2,1.1,0,2.2-0.5,3.3c0,0.2,0,0.5,0,0.7c0,0.5-0.3,0.9-0.8,1.1
	c-0.6,0.2-0.7,0.6-0.7,1.1c-0.1,1.6-0.4,3.2-1,4.7c0,0.1,0,0.3,0,0.4c0.2,2-0.3,3.9-1.6,5.4c-0.6,0.8-1,1.7-1.2,2.6
	c-0.4,1.5-1,3-1.7,4.4c-0.4,0.6-0.6,1.3-0.8,2.1c0,0.2-0.2,0.5-0.3,0.7c-0.7,1-1.3,2-1.8,3c-0.1,0.1-0.1,0.2-0.1,0.4
	c0.2,1.9-0.5,3.8-2,5.1c-0.1,0.1-0.2,0.2-0.2,0.2c-0.2,1.7-1.2,3.1-1.9,4.5c-0.4,0.7-0.8,1.4-1.3,2c-0.1,0.1-0.2,0.2-0.2,0.4
	c-0.2,1.2-1.1,2.1-2.3,2.3c-0.5,0.1-0.5,0.5-0.5,0.8c-0.2,1-0.5,1.9-1.6,2.3c-0.5,0.2-0.9,0.6-1,1.1c0,0.2-0.2,0.4-0.4,0.5
	c-1,0.6-2,1.4-2.8,2.3c-0.5,0.4-0.8,1-1.4,1.4c-0.4,0.4-0.9,0.7-1.4,0.8c-0.1,0-0.3,0.1-0.3,0.2c-0.1,0.7-0.8,1.3-1.5,1.3
	c-0.1,0-0.2,0.1-0.2,0.1c-0.7,1.5-2.1,2.1-3.4,2.8c-0.2,0.1-0.3,0.3-0.4,0.5s-0.2,0.4-0.4,0.4c-1.3,0.2-2.1,1.6-3.6,1.6
	c-0.2,0-0.5,0-0.7,0.2c-0.6,1.5-2.1,2.2-3.2,3.2c-0.6,0.7-1.5,1.1-2.5,1c-0.5-0.1-0.7,0.2-0.9,0.6c-0.3,0.8-1.1,1.2-1.9,1.1
	c-0.9-0.1-1.3,0.6-1.7,1.1c-0.7,0.8-1.6,1.3-2.6,1.5c-1,0.3-1.7,1.1-2.7,1.3c-0.1,0-0.3,0.2-0.4,0.2c-1.9-0.3-3.2,1.5-5,1.5
	c-1.3,0-2.4,0.9-3.6,1s-2.5,0.7-3.7,0.6c-0.8-0.1-1.6,0.1-2.3,0.4c-0.7,0.2-1.5,0.3-2.2,0.3c-1.7,0.2-3.4,0.4-5.1,0.5
	c-0.8,0.2-1.7,0.2-2.5,0c-0.2-0.1-0.5,0-0.7,0.1c-0.3,0.2-0.7,0.2-1,0.1c-1-0.5-2,0.3-3-0.2c-0.3-0.1-0.9,0.4-1.4,0.2
	c-1.3-0.3-2.6-0.3-3.9,0c-0.1,0-0.2,0-0.2,0c-0.9-0.5-1.9-0.5-2.8-0.1c-0.1,0-0.1,0-0.2,0c-1.2-1-2.7-0.6-4-1
	c-0.9-0.4-1.9-0.7-2.9-0.8c-1.2-0.1-2.3-0.5-3.2-1.1c-0.9-0.6-1.8-0.4-2.7-0.9c-1.1-0.7-2.4-0.7-3.4-1.7c-0.1-0.2-0.3-0.2-0.5-0.1
	c-0.9,0.2-1.8,0-2.5-0.6c-0.3-0.3-0.7-0.5-1.1-0.5c-0.2,0-0.3,0-0.5-0.1c-0.7-0.9-1.9-0.7-2.7-1.1l-2.8-1.3c-1.1-0.5-2.3-1-3.4-1.4
	c-1.1-0.4-2.2-0.9-3.3-1.4c-0.6-0.3-0.9-1-1.2-1.5c-0.2-0.4-0.7-0.6-1.1-0.5c-1.7,0.4-2.8-0.7-3.8-1.7c-0.4-0.6-1-1-1.7-1.2
	c-0.2,0-0.4-0.1-0.5-0.3c-1.2-1.1-2.7-1.7-3.7-2.9c-0.9-1-1.6-2.3-2.5-3.3c-0.8-0.6-1.4-1.4-2-2.2c-0.8-1.4-2.5-2.2-2.5-4.1
	c0-0.2,0-0.4-0.3-0.5c-1.4-0.4-1.8-1.7-2.6-2.8s-1.2-2-1.8-2.9c-0.8-1-1.4-2.1-1.9-3.3c-0.3-1-0.7-1.9-1.4-2.6
	c-0.8-1-1.2-2.2-1.3-3.5c0-0.2,0-0.4-0.2-0.6c-0.4-0.3-0.4-0.9-0.7-1.3c-0.6-1-1-2.1-1.4-3.2c-0.5-0.8-0.9-1.7-1.3-2.6
	c-0.2-0.8-0.5-1.6-0.9-2.3c-0.5-0.9-0.9-1.9-1.5-2.8c-0.1-0.4-0.2-0.9-0.3-1.4c-0.2-0.6-0.1-1.2-0.7-1.7c-0.1-0.1-0.2-0.3-0.2-0.5
	c0.3-2-0.9-3.8-1-5.8c-0.1-1.7-0.2-3.5-0.5-5.2c-0.1-0.9,0.2-1.9-0.4-2.9c-0.1-0.1-0.1-0.2,0-0.3c0.2-0.5,0.2-1.2,0-1.7
	c-0.1-0.7,0-1.4,0.4-2c0.2-0.4,0.2-0.5-0.1-0.8c-0.5-0.5-0.8-1.2-0.7-1.9c0.1-1.3,0-2.6,0.1-3.9c-0.1-1,0-2,0.3-2.9
	c0.1-0.3,0.1-0.6,0-0.8c0-0.8,0-1.5,0.1-2.3c0.2-1.7,0.5-3.4,1-5.1c0.2-1.1,0.5-2.2,1-3.1c0.1-0.2,0.3-0.4,0.3-0.7
	c-0.5-1.4,0.5-2.5,0.7-3.8c0.1-0.9,0.3-1.8,0.5-2.7c0.2-0.7,0.7-1,1.1-1.5s-0.2-1.2,0.2-1.8c0.6-0.9,0.8-2.1,1.7-2.9
	c0.1-0.1,0.1-0.2,0.1-0.3c-0.1-1.2,0.5-2.3,1.6-2.9c0.3-0.1,0.4-0.4,0.2-0.7l0,0c-0.2-0.6,0-1.2,0.4-1.7c0.4-0.7,0.8-1.4,1.3-2
	c0.2-0.3,0.5-0.6,0.8-0.8c0.1-0.1,0.3-0.2,0.3-0.3c0.3-2.2,2-3.4,3.2-4.9c0.2-0.3,0.4-0.6,0.5-1c0.2-0.7,1-0.7,1.3-1.2
	s0.1-1.3,0.6-1.6c0.4-0.2,0.6-0.6,0.6-1c0.1-0.4,0.3-0.8,0.6-1.1c0.6-0.6,1.1-1.2,1.5-2c0.1-0.2,0.4-0.3,0.5-0.5
	c0.3-0.7,1.4-0.2,1.6-1c0.2-0.7,0.7-1.2,1.4-1.3c0.3-0.1,0.6-0.3,0.7-0.6c0.2-0.9,0.8-1.1,1.6-1.3s1-0.8,1.4-1.3
	c0.7-0.8,1.1-1.7,1.8-2.4c0.9-1.1,1.9-2.1,3.1-2.9c0.8-0.4,1.5-1.1,2.4-1.6c0.6-0.4,1.2-0.6,1.8-1c0.3-0.1,0.5-0.3,0.7-0.5
	c0.3-0.5,0.8-0.7,1.3-0.6c0.5,0.1,1.1-0.1,1.5-0.5c1-0.8,2.2-1.5,3.2-2.2c0.2-0.1,0.4-0.2,0.6-0.2c0.8,0.1,1.2-0.4,1.7-0.8
	c0.6-0.6,1.4-1,2.3-1.1c0.6-0.1,1.1-0.7,1.7-1c0.7-0.4,1.4-0.8,2.1-1.1c1.5-0.5,2.9-1.3,4.4-1.8c0.4-0.1,0.9,0,1.3,0.2
	c0.4,0.2,0.6,0.1,0.8-0.2c0.4-0.7,1.2-1.1,2-0.9c0.2,0.1,0.5,0,0.7-0.1c1.3-0.7,2.8-1.1,4.3-1.1c2-0.2,3.9-0.5,5.8-1
	c0.2,0,0.4,0,0.6,0c0.9,0,1.8,0.1,2.5-0.7c0.4-0.4,1-0.6,1.5-0.5c1.1,0.1,2.2-0.8,3.2,0.2c0.1,0.1,0.2,0,0.4,0
	c1.1-0.7,2.4-0.3,3.6-0.3s2.6,0,3.9,0h0.8c2,0,3.9,0.9,5.9,0.9c0.8,0,1.1,0.9,1.7,0.8c0.6-0.2,1.2-0.1,1.8,0.1c1,0.2,2,0.4,3,0.5
	c0.1,0,0.2,0,0.2,0c1.2,0.8,2.8,0.1,4.2,1c1.5,0.8,3.1,1.3,4.8,1.4c1.2,0.2,2.3,0.6,3.4,1.1c0.6,0.3,1.3,0.2,1.8,0.9
	c0.1,0.1,0.1,0.1,0.2,0.1c1-0.3,1.7,0.4,2.2,0.8c0.8,0.7,1.9,0.9,2.7,1.6c0.4,0.3,1,0,1.4,0.4c0.5,0.5,1.2,0.9,1.9,1.1
	c0.4,0.1,0.7,0.3,0.9,0.6c0.3,0.5,0.6,1,1.3,1.1c0.1,0,0.2,0.1,0.3,0.3c0.7,1.6,2.2,2.5,3.6,3.4c0.3,0.2,0.5,0.4,0.7,0.7
	c0.1,0.3,0.4,0.5,0.7,0.6c0.6,0,1,0.4,1.1,1c0.2,0.6,0.8,0.8,1.3,1c1,0.4,1.3,1.5,2.1,2.1c0.3,0.3,0.6,0.6,1,0.9
	c0.9,0.6,1.7,1.4,2.2,2.4c0.9,1,1.8,2,2.8,2.8c1.3,1.4,2.8,2.6,3.8,4.3c0.1,0.1,0.2,0.2,0.3,0.3c0.7,0.3,1.3,1,1.5,1.8
	c0.1,0.2,0.2,0.5,0.4,0.5c0.7,0.2,1,0.9,1.4,1.4c0.6,0.8,0.9,1.8,1.4,2.5c0.7,0.7,1.1,1.7,1.2,2.7c0,0,0,0.1,0,0.1
	c1.1,0.5,1.2,1.8,1.8,2.6c0.4,0.7,0.7,1.4,0.9,2.2c0.5,1.2,0.9,2.5,1.5,3.7c0.9,1.5,1.5,3,1.9,4.7c0.2,0.5,0.4,1,0.7,1.5
	C802.5,59.1,802.5,59.5,802.5,59.8z M777.7,79.4c0-0.5-0.1-1-0.3-1.5c-0.7-1.2-1.4-2.4-2-3.6l0,0c-0.3-1-1.3-1.8-1.3-3
	c0,0,0,0,0-0.1c-0.4-1.3-0.8-2.7-1.1-4c-0.3-1.8-0.3-3.5-0.5-5.3c0-0.5-0.1-0.9-0.2-1.4c0.3-0.9-0.4-1.7-0.4-2.7
	c-0.1-3.1-0.5-6.2-1.3-9.2c-0.2-0.7-0.2-1.7-0.9-2.2v-0.3c-0.1-0.9-0.4-1.7-0.7-2.6c-0.3-1.5-1.5-2.7-1.7-4.3c0-0.1-0.2-0.2-0.3-0.2
	l0,0c0.2-0.7-0.6-1-0.7-1.5c-0.4-1-0.9-1.9-1.7-2.7c-0.2-0.3-0.7-0.4-1-0.8c-0.9-1.5-2.3-2.7-3.3-4.1c-0.1-0.2-0.3-0.2-0.5-0.2
	c-0.1-0.9-0.9-1.4-1.5-1.8c-0.8-0.6-1.6-1.4-2.7-1.4c0,0-0.1-0.1-0.1-0.2c-0.5-1-1.6-1.1-2.4-1.7c-0.9-0.6-1.9-1-2.9-1.4
	c-1.3-0.6-2.6-1-3.9-1.3l-0.6,0c-0.4-0.2-0.9-0.3-1.4-0.3c-0.4-0.1-0.9-0.1-1.3,0c-0.6-0.2-1.3-0.4-2-0.4c-1,0.1-2,0-2.9-0.2
	c-1.4-0.5-2.9-0.6-4.4-0.6c-0.2-0.1-0.4-0.1-0.5,0c-1,0-2,0-3,0c-1.6,0-3.1-0.7-4.7-0.3c-0.2,0-0.3-0.1-0.5-0.1
	c-0.5,0-1-0.3-1.5-0.3c-2,0-4.1,0.2-6.1,0.7c-2.1,0.4-4.2,0.9-6.2,1.5c0,0-0.1,0-0.2,0l-0.9,0.2c-1.5,0.2-2.9,0.6-4.3,1.2
	c-2.6,1.4-5.3,2.4-7.7,4c-0.7,0.4-1.3,0.9-1.7,1.6l0,0c-0.1,0-0.2,0.1-0.3,0.2c-1.7,1.9-3.3,3.8-5.1,5.7c-1.3,1.4-1.9,3.2-2.7,4.9
	c-0.6,1.2-1.1,2.4-1.6,3.6v0v-0.1c-0.1,0.1-0.2,0.1-0.2,0.2c-1,2.1-1.5,4.4-2.4,6.5c0,0.2-0.1,0.4-0.1,0.6c0,0,0,0.1,0,0.1l-0.1,0.4
	c-0.1,0.3-0.2,0.5-0.2,0.8c-0.5,1.8-1,3.5-1.7,5.3c-0.8,2.1-1.5,4.2-2,6.3c-0.3,1.5-0.8,2.9-1.5,4.3c-1.1,2.4-2.5,4.7-4.1,6.7
	c-1.3,1.7-2.4,3.4-3.4,5.3c-0.9,1.5-1.5,3.2-2.6,4.7c-0.4,0.6-0.7,1.4-1.1,2s-0.4,1.3-0.9,2c-0.5,0.9-0.8,1.8-1,2.8
	c-0.4,1.4-0.8,2.8-1,4.2c-0.5,3.4-1.3,6.7-0.5,10.1c0,0.1,0,0.2-0.1,0.3c-0.2,0.3-0.3,0.7-0.2,1c0.3,1.9,0.3,3.9,0.5,5.8
	c0.1,1,0.3,2.1,0.5,3.1c0.4,1.1,0.8,2.3,1.3,3.4c0.7,1.7,1.5,3.3,2.4,4.9c1.1,2.2,2.5,4.3,3.8,6.4c1.2,1.7,2.7,3.1,4.4,4.2
	c1.1,0.8,2.3,1.6,3.4,2.5c1.2,0.9,2.5,1.8,3.8,2.5c0.8,0.5,1.6,0.7,2.3,1.2c0.6,0.4,1.3,0.8,2,1.1c0.9,0.5,2,0.8,2.9,1.3
	c2,0.9,3.9,1.8,5.9,2.5c2.1,0.7,4.3,1.2,6.5,1.4c1.6,0.2,3.2,0.2,4.8,0.5c1.9,0.3,3.7,0.7,5.6,0.9c2,0.3,3.9,0.5,5.9,0.7
	c1.9,0.3,3.9,0.5,5.8,0.5h5.1c1.6-0.1,3.2-0.1,4.7,0c1.6,0,3.2-0.1,4.7-0.3c2.3-0.1,4.7-0.6,7-0.9c1.5-0.2,3.1-0.6,4.6-0.8
	c2.1-0.3,4-1.1,6-1.5c0.9-0.2,1.7-0.5,2.5-0.9c1.4-0.6,2.7-1.4,3.9-2.3l0.1-0.2c0.2,0,0.4,0,0.6-0.2c1.1-0.9,2.3-1.5,3.4-2.3
	c0.6-0.4,1.5-0.5,1.7-1.4l0,0c1.7-0.4,2.8-1.7,4.1-2.6c0.9-0.7,1.7-1.4,2.5-2.2c0.3-0.3,0.2-0.7,0.6-0.9c0.6-0.4,1.1-0.9,1.4-1.5
	l0,0c0.4-0.1,0.6-0.4,0.7-0.8c0.1-0.4,0.4-0.8,0.8-1c0.4-0.4,0.8-0.9,1-1.4c0.5-0.7,0.6-1.6,1.1-2.4c0.5-0.9,1-2,1.3-3
	c0.7-1.8,1.1-3.6,1.3-5.5c0.1-1.1,0.4-2.1,0.7-3.1c0.6-1.7,0.8-3.5,0.8-5.3c0-1.4,0-2.9-0.1-4.3l-0.1-0.8v-0.3
	c0.1-0.2,0.1-0.3,0-0.5v-0.3c0.1-0.2,0.1-0.3,0-0.5c-0.1-1.1-0.2-2.2-0.4-3.4c0-0.2-0.1-0.4-0.3-0.5c0,0,0-0.1,0-0.1
	c0.2-0.1,0.1-0.3,0.1-0.5c-0.5-2.2-1.1-4.4-1.8-6.6c-0.2-0.8-0.5-1.5-0.9-2.2v-0.3c-0.4-1-0.9-2-1.2-3c-0.2-0.5-0.8-0.5-0.7-1
	c0-0.5-0.2-1-0.7-1.3v0l0,0c0.1-0.2,0-0.5-0.2-0.7c-0.7-1-1.3-2-1.8-3.2c-0.1-0.3-0.4-0.5-0.7-0.5L777.7,79.4z"/>
<path class="st0" d="M697.2,35.7l0.2-0.2c0.3-0.2,0.5-0.5,0.7-0.9l0.1-0.2c0.3-0.3,0.5-0.6,0.7-0.9l0,0c0.3-0.1,0.5-0.4,0.7-0.7l0,0
	l1.5-1.4c0.2,0,0.3-0.1,0.3-0.3c0.5-0.2,0.9-0.6,1.2-1l0,0c0.3,0,0.5-0.1,0.8-0.3c1.4-1,2.8-1.8,4.4-2.5l0,0c0.1,0,0.1,0,0.2-0.1
	l0,0l0,0c0.4-0.1,0.8-0.2,1.2-0.4c0.9-0.4,1.9-0.7,2.9-0.9c1.2-0.1,2.4-0.2,3.5-0.3c0.9,0,1.8-0.2,2.5-0.7h0.2
	c0.6,0.1,1.2-0.1,1.7-0.3h0.3h0.3h0.3h0.4h5.8h0.1h1.6c0.2,0.1,0.3,0.1,0.5,0c0.7,0.1,1.3,0.1,2,0c1,0.1,2,0,3-0.1
	c0.2,0.2,0.5,0.4,0.8,0.2h0.7c1.7,0.2,3.5,0.2,5.2,0.2l0,0c0.6,0.1,1.1,0.2,1.7,0.3c2.3,0.5,4.6,0.7,6.7,2c1.7,0.9,3.3,1.8,4.8,2.9
	c0.5,0.6,1.2,1,2,1.2l0,0c0.2,0.7,1,0.9,1.3,1.5c1,1.6,2.2,3,3.6,4.2l0,0c0.5,0.8,1,1.5,1.7,2.1v0h0c0.1,0.7,0.6,1.1,0.8,1.8
	c0.1,0.3,0.1,0.7,0.5,0.9c0,0,0,0.1,0,0.1c0,0.2,0,0.4,0,0.6c1,2.3,1.7,4.8,2.3,7.2v0.2c0,0.5,0.1,0.9,0.3,1.4l0,0
	c0.3,2.7,0.9,5.4,1.4,8l0,0c0,0.6,0.1,1.3,0.3,1.9v0.6l0.8,4.9c0,0.1,0,0.2,0,0.3c-0.1,0.1,0,0.3,0.1,0.4l0,0l0.1,0.3v0.5
	c0.1,0.7,0.2,1.4,0.3,2.1c0,1.8-0.1,3.5,1,5.1l0,0c0.1,0.9,0.9,1.4,1,2.2c0,0.2,0,0.5,0.3,0.5l0,0c0.3,0.9,0.8,1.8,1.3,2.6l0,0l0,0
	c0.5,0.7,0.6,1.7,1.2,2.4c0,0.1,0.1,0.3,0.2,0.3l2.6,5.4l0,0c0.2,0.7,0.4,1.4,0.7,2.1c0.3,1.3,0.8,2.6,1.5,3.8l0.1,0.5
	c0,0.5-0.1,0.9,0.3,1.3l0,0c0,0.2,0,0.5,0,0.8c0.5,2.1,0.8,4.2,0.9,6.3c0.1,1.4,0.1,2.8,0,4.3c-0.2,2.4-0.6,4.8-1.4,7.1
	c-0.8,2.7-1.1,5.5-2.3,8.1c-0.2,0.3-0.2,0.7-0.4,1h0h0c-0.5,0.3-0.5,1-0.8,1.4c-1,1.4-2.2,2.6-3.2,4c-0.3,0.5-1.1,0.6-1,1.4l0,0
	c-0.8,0.4-1.5,1-2.2,1.5c-0.4,0.3-0.5,1.1-1,1.1c-0.8,0-1.2,0.6-1.8,0.9c-0.2,0-0.3,0.1-0.3,0.3c-0.2,0.3-0.7,0.2-1,0.4
	c-1.4,1.2-2.9,2.2-4.4,3.2c-1.3,0.8-2.3,2.1-3.8,2.5c-1.2,0.5-2.4,0.8-3.6,1.2c-0.6,0-1.2,0.2-1.7,0.6H752c-0.3-0.1-0.6-0.1-0.8,0.1
	c-1,0.6-2.1,0.5-3.2,0.8s-2.4,0.2-3.5,0.5c-1.6,0.4-3.3,0.3-4.8,0.7c-0.9,0.3-2,0.4-2.9,0.3c-0.4-0.2-0.9,0-1.2,0.3
	c-0.1,0.1-0.2,0.1-0.3,0.1c-2.8-0.9-5.6-0.2-8.3-0.4c-1.7-0.1-3.5,0-5.2-0.2c-2-0.2-3.9-0.5-5.9-0.8c-2-0.3-3.8-0.7-5.8-0.8
	c-1.6-0.1-3.2-0.4-4.7-0.7c-1.2-0.2-2.4-0.2-3.5-0.5c-1.1-0.2-2.3-0.5-3.4-0.8c-3.3-1.2-6.3-2.8-9.5-4.1c-2.1-1-4.2-2.2-6.1-3.6
	c-1.7-1.1-3.2-2.4-4.9-3.6c-1.7-1.1-3.1-2.6-4.1-4.4c-1.2-2.1-2.5-4.1-3.6-6.2c-0.8-1.4-1.4-2.8-2-4.3c-0.5-1.1-0.7-2.2-0.6-3.4
	c0.1-0.9-0.1-1.8-0.1-2.7c0.1-4.4,0.8-8.8,1.9-13.1c0.7-2.7,1.6-5.3,2.8-7.9c0.9-1.6,1.9-3.1,3-4.6c1.1-1.8,2.2-3.5,3.2-5.3
	c0.2-0.6,0.4-1.3,0.6-1.9c1.1-2.9,2.4-5.7,3.7-8.6c0.6-1.5,1-3,1.3-4.6c0.4-1.8,1.3-3.4,1.6-5.3c0,0,0-0.1,0-0.1
	c0.4-0.9,0.7-1.9,1-2.9l0,0l0,0l1.7-4.1c0.5-0.8,0.8-1.6,1-2.5l0,0c0.5-0.8,0.9-1.7,1.1-2.7c0.4-1.4,0.9-2.7,1.7-3.9
	C693.5,39.4,695.6,37.8,697.2,35.7z M723.9,81.8h0.2l1.2-0.2c0.1,0.1,0.2,0.1,0.3,0c0.9,0.1,1.8,0.1,2.7-0.1h0.3
	c0.3,0,0.6,0.1,0.9-0.1h1c0.8,0,1.6-0.1,2.4-0.3c0.3,0.1,0.5,0,0.8-0.1c2.9-0.2,5.7-0.6,8.5-1.1l0.7-0.2c1,0.3,1.7-0.4,2.7-0.5
	c1.2-0.1,2.3-0.4,3.4-0.8l0,0c0.6-0.3,1.2-0.5,1.9-0.6c1.2-0.4,2.4-0.9,3.4-1.7h0c0.3,0,0.5-0.1,0.7-0.3c2.6-2.3,5.3-4.6,6.4-8.1
	c0,0,0.1,0,0.1-0.1l0,0c0.2-0.1,0.1-0.3,0.1-0.4c0.7-2.3,0.8-4.7,0.5-7.1c-0.2-0.8-0.3-1.7-0.3-2.5c0-1.6-0.2-3.1-0.6-4.7
	c-0.3-0.9-0.5-1.8-0.7-2.7c-0.4-1.4-0.9-2.7-1.5-4c-0.5-1.1-1-2.3-1.7-3.4l0,0c-0.1-0.6-0.4-1.2-0.7-1.8c-0.8-1.9-1.8-3.8-3.1-5.4
	c-0.5-0.5-0.7-1.3-1.5-1.6l0,0c-0.1-0.3-0.4-0.6-0.7-0.6c-0.9-0.4-1.7-0.9-2.5-1.6c-0.7-0.6-1.7-0.8-2.6-0.6c-2,0.3-4.1,0.8-6,1.5
	l-0.6,0l-2,0.3h-2.2c-0.3-0.1-0.6-0.1-0.8,0c0,0-0.1,0-0.2,0h-0.7h-0.3h-0.5h-0.3c-1.1,0.2-2.2,0.4-3.3,0.4c-0.4,0-0.9-0.3-1.2,0.1
	h-0.3l-4.2-0.3l0,0c-1.5-0.4-3.2-0.2-4.7-0.7h-0.5c-0.7-0.2-1.4-0.4-2.1-0.5c-1.2-0.3-2.5-0.3-3.8-0.6c-2.1-0.5-4.2-0.3-6.2,0.5
	c-0.3,0.1-0.6,0.3-0.7,0.6l0,0c-0.1,0-0.2,0.1-0.2,0.1c0,0,0,0,0,0l0,0c-1.8,0.8-3.2,2.2-4,3.9l0,0c-0.3,0.3-0.5,0.6-0.7,1l0,0
	c-0.6,0.9-1.2,1.9-1.6,3V41c-1.1,1.7-1.9,3.4-2.6,5.3c-0.6,1.7-1.2,3.5-1.8,5.2l0,0c-0.3,0.9-0.7,1.8-1,2.7v0v0
	c-0.4,0.4-0.6,1-0.6,1.5l0,0c-0.6,0.6-1,1.3-1,2.2l0,0c-0.2,0.2-0.2,0.4-0.2,0.7c0,0.7-0.2,1.3-0.4,1.9c-0.3,1.5-0.5,3.1-0.5,4.6
	l0.1,0.1c-0.3,1.9-0.1,3.8,0.7,5.5l0,0c-0.1,0.7,0,1.4,0.3,2l0,0c-0.1,0.5,0.3,0.8,0.4,1.2c0.1,0.7,0.4,1.4,0.9,1.9l0,0
	c0.2,0.7,0.6,1.3,1.3,1.7c1.7,1.2,3.5,2.2,5.5,3l0,0c0.8,0.3,1.7,0.5,2.6,0.7c0.8,0.3,1.7,0.4,2.6,0.4c0.3,0.3,0.8,0.4,1.2,0.3
	c1.5,0,3.1,0.1,4.6,0.2c2,0.1,4,0.1,6,0.1h1c0.2,0,0.3,0.1,0.4,0h0.1c0.1,0.1,0.2,0.1,0.3-0.1l0,0c1.2,0.2,2.4,0.1,3.5-0.2h0.2
	L723.9,81.8L723.9,81.8z M682.5,87.5L682.5,87.5L682.5,87.5c0-0.3,0-0.6,0-0.9c-0.1-0.6-0.5-0.6-0.9-0.5c-1.1,0.4-2,1-2.9,1.7
	c-1.2,0.7-2.1,1.8-2.6,3.1c-0.7,1.7-1.9,3.1-2.7,4.7c-1,1.9-1.4,4-1.3,6.1c0,1.7,0.3,3.5,0.8,5.1c0,0.2,0,0.4,0,0.6
	c-0.1,0.9,0.1,1.8,0.7,2.6c0.9,1.3,1.9,2.5,2.7,3.8c0.2,0.3,0.6,0.7,1.1,0.5s1.1-0.6,0.8-1.2c-0.2-0.8-0.5-1.5-0.9-2.2
	c-1.1-1.5-1.2-3.2-1.2-5c0.1-1.8,0.3-3.7,0.6-5.5c0.1-1.5,0.4-3,0.9-4.4c1.1-3.1,3.1-5.7,5.1-8.4C682.4,87.5,682.4,87.5,682.5,87.5
	L682.5,87.5z M724.8,136.8c3,0.2,6-0.2,8.9-1c1.9-0.6,3.7-1.5,5.4-2.6c0.9-0.6,1.7-1.5,2.6-2c2.6-1.5,4.6-4,5.5-6.9
	c0.6-1.8,1-3.7,1.1-5.7c0.2-1.3,0.3-2.6,0.3-3.9c-0.1-1-0.2-1.9-0.2-2.9c-0.2-1.8-0.6-3.5-1.2-5.1c-0.3-0.9-0.8-1.8-1-2.7
	c-0.5-1.3-1.2-2.6-2.1-3.7c-0.5-0.7-1-1.3-1.6-1.8c-1.5-1.5-2.8-3.1-4.7-4.1c-0.4-0.2-1-0.4-1.2-0.6c-0.5-0.7-1.4-0.8-2-1.1
	c-1.3-0.7-2.8-0.7-4.1-1.2c-2-0.8-4-0.4-6.1-0.2c-1.4,0.1-2.7,0.4-4,0.8c-0.9,0.2-1.8,0.5-2.7,0.9c-1,0.6-1.9,1.2-2.8,1.9
	c-1.4,1-2.8,2-4.2,3.1c-1.2,0.9-2.1,2.1-2.9,3.4c-1.3,2-2.4,4.2-3.4,6.4c-0.5,1.5-0.8,3-1,4.5c-0.6,2.6-0.2,5.2-0.1,7.8
	c0.1,1.5,1,2.8,1.4,4.1s1.5,2.4,2.1,3.7c1.2,2.1,2.7,4,4.4,5.7c0.7,0.8,1.7,0.9,2.5,1.5c1.3,0.9,2.7,1.4,4.2,1.6
	C720.2,136.8,722.5,136.9,724.8,136.8L724.8,136.8z M759.6,106c0.1-0.5,0-1-0.2-1.5c-1-2.1-2-4.2-2.9-6.3c-1.2-2.6-3-4.8-5.2-6.6
	c-0.7-0.6-1.7-1-2.6-1c-0.4,0-0.7,0.2-0.7,0.5s-0.3,1.1,0.3,1.2c0.9,0.2,1.1,0.8,1.5,1.4c1.7,2.5,2.7,5.3,3.9,8.1
	c0.4,0.9,0.7,1.8,1,2.7c0.5,2.4,0.7,4.8,0.5,7.2c0,0.5,0,1-0.1,1.5c-0.7,2-1.2,4.1-1.5,6.2c-0.2,1.7-0.6,3.4-1.3,5
	c-0.7,2-1.9,3.8-3.3,5.3c-0.9,0.8-1.4,1.9-1.5,3.1c0,0.9,0.2,1.1,1,0.8c2.2-0.9,4.2-1.9,5.5-4c0.4-0.7,0.9-1.5,1.5-2.1
	c2.2-2.4,3.4-5.5,3.5-8.8c0-1.5,0.2-3,0.7-4.4c0.5-1.3,0.7-2.7,0.6-4.1C760,108.7,759.9,107.3,759.6,106z M691.5,113
	c0.2,1.3,0.5,2.6,0.8,3.9c0.6,2.3,1.4,4.6,2.5,6.7c1,2,2.1,3.9,3.5,5.6c0.4,0.5,0.9,0.9,1.5,1.1c1.2,0.4,1.8-0.1,1.7-1.3
	c-0.1-1.1-0.3-2.1-0.7-3.2c-0.8-2.3-1.7-4.5-2.6-6.8c-0.3-0.8-0.8-1.5-1-2.3c-0.3-1.4-0.4-2.8-0.3-4.3c-0.1-2.4,0.1-4.8,0.4-7.1
	c0.6-3.9,2.2-7.5,4.6-10.6c1-1.2,2.1-2.3,2.2-4c0-0.4,0-0.8-0.3-1c-0.3-0.2-0.7-0.2-1,0.1c0,0,0,0,0,0.1l0,0
	c-0.2,0.3-0.5,0.7-0.8,0.9c-3,2.6-5.6,5.8-7.6,9.2c-1.4,1.9-2.1,4.2-2.1,6.5c0,0.1,0,0.2,0,0.3c0,1.4-1.2,2.6-0.8,4.2
	C691.5,111.8,691.5,112.4,691.5,113L691.5,113z M690.2,88.5c-0.2,0.1-0.5-0.2-0.7,0.1c-0.3,0.6-0.9,1-1.2,1.4c-1,1-1.8,2.1-2.6,3.3
	c-0.5,1-1,2-1.6,2.9c-1.5,2.3-2.5,4.9-3,7.5c-0.3,1.5-0.4,3-0.6,4.5c-0.2,1.8-0.1,3.6,0.3,5.3c0.5,2,1.6,3.8,2.1,5.8
	c0.1,0.4,0.4,0.7,0.7,0.9c0.6,0.3,1,0.8,1.2,1.4c0.2,0.6,0.6,1.2,1,1.6c0.6,0.8,1.7,1,2.2,2c0.2,0.4,0.8,0.2,1.2,0.2
	s0.5-0.5,0.6-0.8c0.1-0.5-0.4-0.8-0.6-1.2s-1.2-0.8-0.8-1.7c0-0.1,0-0.2-0.1-0.3c-0.5-0.3-0.4-0.8-0.5-1.2c0-0.2,0-0.5-0.1-0.7
	c-1.2-2-1.7-4.2-1.5-6.5c0.2-1.5,0-3.1,0-4.7s0.2-3.1,0.4-4.6c0-0.5,0.1-1,0.2-1.5c0.3-0.9,0.5-1.8,0.7-2.7c0.2-0.9,0.5-1.9,0.8-2.8
	c0.9-2.2,2-4.4,3-6.6c0.3-0.5,0.2-1.1-0.3-1.4C690.6,88.6,690.4,88.5,690.2,88.5L690.2,88.5z M769.4,108.7c-0.1-2.2-0.3-4.3-0.7-6.4
	c-0.3-1.5-0.9-2.8-1.3-4.2c-0.6-1.9-1.9-3.4-2.8-5.1c-0.6-0.8-1.2-1.6-1.8-2.3c-0.7-0.9-1.7-1.5-2.7-2c-0.3-0.1-0.6-0.2-0.9-0.2
	c-0.6,0-0.7,0.6-1,0.9s0.2,0.5,0.5,0.6c0.2,0.1,0.4,0.2,0.4,0.5c1,2.2,2.3,4.2,3.3,6.4c1.1,2.1,1.8,4.4,2.3,6.8
	c0.3,2.1,0.4,4.3,0.4,6.4c0,2.7-0.9,5-1.7,7.5c-0.6,2-1.8,3.9-1.4,6.1c0.1,0.6,0.5,1,1,0.7c0.6-0.3,1.2-0.8,1.7-1.4
	c1.3-1.9,2.5-3.9,3.4-6.1C769,114.3,769.5,111.5,769.4,108.7L769.4,108.7z M777.1,99.1c0-2.2-1.2-4-2.2-5.8c-0.9-1.5-2-2.9-3.3-4.1
	c-0.8-0.9-1.9-1.4-3.1-1.4c-0.3,0-0.7,0-0.8,0.4c-0.1,0.3,0.1,0.6,0.4,0.8c1.3,0.8,2.3,2.1,2.9,3.6c1,2.2,2.3,4.4,1.7,7.1
	c-0.2,1.6-0.3,3.3-0.3,4.9c-0.2,0.8-0.3,1.5-0.3,2.3c0.1,0.7,0,1.4-0.2,2.1c-0.3,0.9-0.5,1.9-0.6,2.8c-0.1,0.6,0.1,1.1-0.4,1.6
	c-0.3,0.3,0,0.8,0.4,0.6c0.6-0.3,1.5-0.3,1.7-1c0.6-1.2,1.2-2.4,1.7-3.6c0.2-1.2,0.6-2.3,1.1-3.4c0.5-1.1,0.8-2.3,0.8-3.5
	c0-0.3,0-0.7,0.2-1C777.2,100.7,777,99.9,777.1,99.1L777.1,99.1z"/>
<polygon class="st0" points="693.4,39.5 693.5,39.4 693.5,39.5 "/>
<path class="st0" d="M711.7,109.2l-0.5,1.5C711.2,110.2,711.4,109.7,711.7,109.2z"/>
<path class="st0" d="M712.1,70l-0.3,0.2c-1.4,1.1-2.9,1.9-4.5,2.6l0,0c-0.1,0-0.3,0-0.3,0.1l-0.3,0.1l-0.2,0.1h-0.1h0
	c-0.6,0-1.2,0.2-1.7,0.5l-0.3,0.1l-1.2,0.4c-0.2-0.1-0.3-0.1-0.5,0h-0.2c-0.2-0.1-0.3-0.1-0.5,0c-0.7-0.3-1.5,0.1-2.2-0.4
	c-1.8-1.2-3.7-2.3-4.7-4.4c-0.4-0.7-0.7-1.6-0.8-2.4c0.1-0.6,0-1.2-0.1-1.8v-0.3c0-0.5,0.3-1,0.2-1.5l0,0c0.2-0.3,0.3-0.6,0.3-0.9
	l0.1-0.6c0.2-0.2,0.2-0.5,0.3-0.8c0.3-0.7,0.3-1.5,0.9-2c1.3-1.1,2.7-2.1,4.6-2c2.3,0.2,4.3,1.3,5.8,3c0.2,0.2,0.3,0.4,0.1,0.6
	s-0.4,0-0.6-0.1l-2.1-1.1l0,0c-2-1.3-4,0.7-4.1,2.3c0,1.9,0.5,3.8,1.4,5.4c0.4,0.7,0.9,1.6,1.8,1.7c1.7,0.2,3.5,0.1,5.1-0.3l0,0
	l2.3-0.6c1-0.2,2.1-0.5,3.1-1c0.8-0.2,1.5-0.5,2.3-0.7c0.2,0,0.3-0.1,0.4,0.2c-0.8,0.9-1.5,2-2.4,2.8l0,0
	C713.1,69.2,712.6,69.6,712.1,70z"/>
<path class="st0" d="M756.2,59.2c0,0.2,0.1,0.4,0.3,0.5l0.5,1c0,0.1,0,0.3,0.2,0.3c0.1,0.4,0.2,0.8,0.4,1.2l0,0v0
	c-0.1,0.5,0,0.9,0.1,1.4V65l-1.3,2.7l0,0c-0.1,0-0.2,0.1-0.1,0.2c-0.1,0.3-0.4,0.5-0.4,0.8c-0.5,0.6-1,1.1-1.7,1.5l-0.3,0.2
	c-0.2,0-0.3,0.1-0.3,0.3l0,0c-0.2,0-0.4,0.1-0.5,0.3l-0.2,0.1c-0.2,0.2-0.5,0.2-0.7,0.5l0,0c-1.3,0.6-2.6,1-4,1.3
	c-0.2,0-0.5,0-0.7,0.1l-1.5,0.1c-1.2,0.2-2.3-0.1-3.3-0.7c-0.8-0.7-1.7-1.4-2.6-2.1l0,0c-0.1-0.3-0.4-0.6-0.7-0.8l0,0
	c-1-1.1-1.8-2.3-2.5-3.6c0.8,0.3,1.6,0.6,2.4,1.1c0.5,0.4,1.2,0.7,1.8,0.7l0,0c1.4,0.3,2.8,0.7,4.2,0.2l0.3-0.1l0.2-0.1l0,0
	c0.7,0,1.4-0.2,2-0.6l0,0c1.3-0.4,2.6-0.7,3.3-2l0,0c0.7-0.8,1.2-1.8,1.2-2.9c0.1-1-0.5-1.8-1.4-1.7c-0.9,0-1.9,0.3-2.6,0.9l0,0
	c-0.9,0.5-1.5,1.3-2.5,1.9C746.9,58.9,751.9,57.3,756.2,59.2z"/>
<path class="st0" d="M705.3,49.7c0.1-0.1,0.2-0.2,0.2-0.3c0.7-0.9,0.7-2.1,1.5-3c0,0,0.1-0.1,0.1-0.1l1-1.1l0,0
	c0.5-0.5,1.1-1,1.6-1.5c0.7-0.8,1.7-1.2,2.7-1.1c1.7,0.1,3.3,0.1,5,0.4c2.3,0.4,3.7,1.9,5.1,3.5c0.3,0.4,0.4,0.9,0.5,1.4l0,0
	c0,0.7,0,1.3,0.2,2c-0.1,0.3,0.2,0.4,0.2,0.7v0.3v0.8c-0.2,0.6-0.4,1.3-0.5,1.9c-0.1,0.1-0.2,0.3-0.2,0.5c-0.4,0.7-0.8,1.3-1,2.1
	c-0.1,0.3-0.3,0.5-0.5,0.7c-2.1,1.5-4.6,2.4-7.2,2.6c-0.2-0.1-0.3-0.1-0.5,0c-0.9-0.2-1.7-0.4-2.6-0.5c-0.7-0.1-1.2-0.5-1.9-0.3
	h-0.1l-1.2-0.7l0,0l0,0c-0.4-0.4-0.8-0.7-1.2-1c-0.7-0.5-0.7-1.3-1.2-1.9l-0.1-0.2c0-0.1,0-0.1,0-0.2c0,0,0,0-0.1,0l0,0
	c0.1-0.3,0-0.7-0.2-1v-1.2C705,51.3,705.1,50.5,705.3,49.7z M712.9,57.4c1.3-0.1,2.3-0.2,3.4-0.3c1.5-0.1,2.9-0.4,3.7-1.7
	c0.9-1.5,1.8-3,1.7-5c-0.1-1.3-0.3-2.5-0.8-3.7c-0.5-1.3-1.9-1.9-3.1-2.5c-1.2-0.5-2.6-0.6-3.9-0.3c-1.2,0.2-2.4,0.3-3.5,1.2
	c-1.7,1.5-3.2,3-3.4,5.4c0,0.4,0.2,0.9,0.1,1.3c-0.1,1.2,0.3,2.5,1.2,3.4C709.5,56.7,711.2,57.5,712.9,57.4z"/>
<path class="st0" d="M731.9,53.8c0-0.1,0-0.2,0-0.3c0.1-0.7,0.1-1.3,0.1-2v-0.4c0.1-0.1,0.2-0.2,0.1-0.4l0.1-0.3
	c0.6-2.4,1.6-4.5,3.9-5.8c0.3-0.2,0-0.2,0-0.4c0.3,0,0.4-0.1,0.6-0.3l0.7-0.2l0,0h0.1h0.1h0.3c1.8-0.3,3.6-0.3,5.5-0.1
	c1.1,0,2.1,0.4,2.8,1.2l0.8,0.7l0,0c0.1,0.4,0.4,0.7,0.7,0.9l0,0c0.6,0.8,1,1.7,1.4,2.6c0.4,1.8,0.5,3.7,0.3,5.6l0,0
	c-0.4,0.9-0.8,1.7-1.3,2.5l0,0l-2.5,2.6l-0.2,0.1c-0.4,0.3-1,0.4-1.3,0.8h-0.5c-0.7-0.1-1.5-0.1-2.2,0.1h-0.2
	c-1.3-0.3-2.7-0.8-3.9-1.3l-0.2,0c-1.2-0.8-2.6-1.3-3.6-2.2c0,0-0.1-0.1-0.1-0.1l-0.3-0.3l-0.2-0.3c-0.1-0.4-0.3-0.7-0.5-1l-0.4-1.2
	C731.9,54.1,731.9,54,731.9,53.8z M747.9,51.2c-0.1-0.9-0.3-1.8-0.6-2.6c-0.8-2.2-3.4-4.1-5.5-4c-0.6,0.1-1.1,0.2-1.7,0.3
	c-2.3,0.4-4.4,1.3-5.5,3.5c-0.3,0.6-0.5,1.3-0.8,2c-0.5,1.2-0.6,2.5-0.2,3.8c0.5,1.1,1.1,2.1,2,2.9c0.3,0.3,0.8,0.1,0.9,0.5
	c0.4,0.7,1.2,0.7,1.9,1.1c1.2,0.5,2.5,0.6,3.7,0.2C745.9,58.2,748.4,54.9,747.9,51.2L747.9,51.2z"/>
<path class="st0" d="M719.7,69.4l0.3,0l2.2-0.3h0.5c3,0,6,0.1,9,0.5l0.3,0.1c1.6,0.3,3.3,0.7,4.9,1.1c0,0,0.1,0,0.1,0
	c0.2,0.2,0.4,0.3,0.7,0.3l0,0c0.2,0.2,0.6,0.4,0.9,0.3c0.9-0.1,1.8,0.3,2.5,1c0.5,0.6,0.5,1.4,0,2c-0.2,0.2-0.4,0.3-0.6,0.4
	c-0.8,0.2-1.6,0-2.2-0.5c-2.3-1.6-4.9-2.5-7.7-2.8c-1.7-0.2-3.3-0.4-5-0.4c-4-0.1-7.8,1.3-10.8,3.9c-0.5,0.4-1.2,0.5-1.7,0.2
	c-0.5-0.2-0.8-0.7-0.8-1.2c0.1-1.2,1-2.1,2.1-2.3c0.8-0.2,1.5-0.5,2.1-1l0.5-0.2c0.6-0.1,1.2-0.4,1.7-0.6l0,0
	C719,69.7,719.4,69.6,719.7,69.4z"/>
<path class="st0" d="M708.1,37.2c0.1-0.7,0.5-1.2,1.3-1c1.8,0.4,3.6,0.5,5.4,0.3c1.6,0,3,0.6,4.5,0.8c0.2,0,0.5,0.1,0.7,0.2
	c0.7,0.1,1.6-0.1,1.8,0.6c0.3,1,0.4,2.1,0.1,3.1c-0.2,0.8-0.7,1-1.5,0.8c-0.6-0.1-1.2-0.2-1.8-0.1h-0.6c-0.2-0.1-0.4-0.1-0.6-0.1
	l-5.8-0.2c-0.2,0-0.4,0-0.6-0.1c-0.7-0.4-1.6-0.5-2.4-0.3c-1,0.1-1.1,0-1.1-1c0-0.8,0.4-1.4,0.4-2.2C708,37.7,708,37.5,708.1,37.2z"
	/>
<path class="st0" d="M743.5,35.6c0.6,0,1.3-0.3,1.9,0c0.7,1.3,1.1,2.7,1.3,4.1c0.1,0.6,0,1-0.7,0.9c-0.6,0-1.2,0.1-1.8,0.4
	c-0.9,0.4-1.8,0.6-2.7,0.6c-0.3,0-0.7,0.1-1,0.3h-0.3c-1.5,0.3-3,0.4-4.5,0.5h-0.4c-0.5-0.1-1.1-0.1-1.6,0c-0.7,0.1-0.9-0.2-0.9-0.9
	c0-0.5,0.2-1,0-1.4c-0.4-0.7-0.1-1.3,0.2-1.9l0,0c0.2,0.4,0.5,0.3,0.9,0.1c0.5-0.4,1.2-0.7,1.8-0.8c2.3-0.3,4.6-0.8,6.8-1.5
	C743,36,743.3,35.8,743.5,35.6z"/>
<path class="st0" d="M731.1,62c-0.9,0.6-1.7,1.4-2.3,2.3c-0.2,0.2-0.2,0.5-0.5,0.4s-0.2-0.4-0.2-0.6v-1.2l0.2-0.7
	c0.1-0.1,0.1-0.3,0.2-0.4c0.4-1.2,1-2.2,2.6-1.9c0.1,0,0.3-0.1,0.5-0.1c0.1,0.1,0.3,0.1,0.5,0c0.6,0.4,1.4,0.3,1.9,0.9
	c0.6,0.6,1.1,1.3,1.5,2.1c0.4,1,0.4,1.1-0.5,1.8l-0.4-0.7C733.9,62.4,732.5,61.7,731.1,62L731.1,62L731.1,62z"/>
<path class="st0" d="M720,65c-0.8-1.2-0.8-2.8,0-4c0.9-1.3,2-1.8,3.3-1.3c1.2,0.5,2,1.5,2.2,2.8c0.1,0.4,0.2,0.9,0.3,1.3
	c0.1,0.3,0.1,0.6,0,0.9c-0.1,0.2-0.3,0.3-0.5,0.2s-0.1-0.2-0.1-0.4c-0.1-0.6-0.4-1.3-0.7-1.8c0-0.1,0-0.3-0.2-0.3
	c-0.8-1.3-1.9-1.3-2.6,0c-0.4,0.6-0.7,1.2-0.8,1.9l0,0l-0.6,0.9L720,65z"/>
<path class="st0" d="M729.7,38.2c-0.5-0.5-0.3-1-0.3-1.6c0.3-0.2,0.5-0.4,0.7-0.7l0,0c0.2-0.1,0.3-0.1,0.5-0.2
	c1.7-0.5,2.1,0.1,2.2,1.8c0,1.2-0.9,1.9-1.5,2.6l-0.1,0.1c-0.7,0.6-1.5,1-2.3,1.3c-0.1-0.2,0-0.5,0.1-0.7c0.4-0.6,0.7-1.3,1.1-2
	C730.1,38.6,730.3,38.3,729.7,38.2z"/>
<path class="st0" d="M726.7,40.3c0,0.5-0.2,0.4-0.6,0.3c-0.9-0.4-1.7-1-2.4-1.6c0.1-0.6-0.1-1.3-0.6-1.7c-0.6-0.5-0.3-1.1,0.1-1.6
	s0.7-0.9,1.4-0.5c0,0.1,0.1,0.1,0.1,0.1c0.2,0.4,0.6,0.6,1,0.7c0,0,0,0.1,0,0.1c0,0,0,0,0,0l0,0c-0.4,1.4-0.1,2.9,0.9,4.1
	L726.7,40.3L726.7,40.3z"/>
<path class="st0" d="M721.8,75.9c0.4-0.2,0.3-1.2,0.9-0.7s0,0.8-0.2,1.2c-0.3,0.5-0.5,1.1-0.6,1.6c-0.2,0.9-0.6,1.1-1.4,0.9
	c0-0.1,0-0.1,0-0.2c0.3-0.6,0.6-1.3,0.8-2c0,0,0,0,0-0.1l0,0L721.8,75.9L721.8,75.9z"/>
<path class="st0" d="M729.4,76c0,0.7,0.1,1.5,0.2,2.2c0,0.3,0,0.6-0.2,0.7s-0.6-0.3-1-0.3s0-0.3,0-0.4c0.1-0.4,0.1-0.8,0-1.1
	c-0.2-0.6,0.1-0.9,0.7-1.1C729.1,76.1,729.3,76.1,729.4,76z"/>
<path class="st0" d="M718.7,75.8c0.3,0.1,0.7-0.5,1,0c0,0,0,0.1,0,0.1c-0.8,0.8-1.4,1.8-2.2,2.7c-0.2,0.3-0.4,0.6-0.9,0.4
	c0.2-0.7,0.8-1.2,1-1.9c0.1-0.1,0.2-0.2,0.2-0.4c0.2-0.1,0.2-0.2,0.2-0.3l0,0L718.7,75.8L718.7,75.8z"/>
<path class="st0" d="M732,77.7c0,0.3,0.2,0.5,0.4,0.8c-0.5-0.2-0.9,0.3-1.3,0l0,0c0-0.2,0-0.5-0.1-0.7l-0.1-0.3c0-0.1,0-0.2-0.1-0.3
	v-0.1c0-0.3,0-0.7-0.1-1c0-0.1,0-0.2,0-0.3c0.4-0.5,0.7-0.5,0.9,0.2S731.6,77.2,732,77.7L732,77.7z"/>
<path class="st0" d="M726,76.5c0.1,0.7-0.3,1.5,0.3,2.3c-0.4,0.1-0.8,0-1.2-0.2l-0.1,0c0.2-0.4,0.2-0.8,0.1-1.1
	C725.2,76.8,725.3,76.4,726,76.5z"/>
<path class="st0" d="M733.4,78.3c-0.1-0.5,0.2-1.1,0-1.6c0.3,0.3,0.6,0.6,0.7,1c0.2,0.4-0.1,0.5-0.4,0.5L733.4,78.3z"/>
<path class="st0" d="M726.6,54.5c-0.2-0.1-0.3-0.3-0.2-0.4c0.4-0.1,0.5-0.6,0.9-0.6l0,0c0.2,0.4-0.2,0.6-0.3,0.9L726.6,54.5z"/>
<path class="st0" d="M754.4,47c-0.2-0.5-0.3-1.1-0.2-1.6C754.7,45.9,754.4,46.4,754.4,47L754.4,47z"/>
<path class="st0" d="M735,76.2l0.1-0.2c0.9,0.3,1.1,1.2,1.7,1.8c0.2,0.2-0.2,0.4-0.3,0.3c-0.5-0.2-0.9,0-1.5,0
	C735.4,77.5,735.4,76.7,735,76.2z"/>
<path class="st0" d="M701.2,47.8c-0.2,0.9,0.2,1.9-0.6,2.7C700.6,49.6,700.8,48.7,701.2,47.8z"/>
<path class="st0" d="M727.4,53.5L727.4,53.5L727.4,53.5L727.4,53.5z"/>
<path class="st0" d="M704.9,66.7c0.2-0.2,0.4-0.1,0.5-0.3s0.2-0.4,0.4-0.3c0.1,0,0.2,0,0,0.1s0,0.5-0.4,0.5H704.9z"/>
<path class="st0" d="M710,51.2c-0.1-3.4,3.5-5.7,6.2-5.4c1.1,0.1,2.1,0.9,2.5,1.9c0.5,1.3,0.7,2.6,0.7,3.9c0.1,1.7-2.1,3.5-3.7,3.3
	c-0.6-0.1-1.3,0-1.9,0.1c-1.4,0.2-2.3-0.7-3.1-1.6C710.1,52.8,709.9,52,710,51.2z"/>
<path class="st0" d="M745.1,51.9c-0.1,2.8-2.1,4.8-4.9,4.4c-2.5-0.3-4.3-1.7-4.2-5c0.1-1.1,0.7-2.2,1.5-3c1.1-1.3,2.5-1.1,4-1
	c2.2,0.2,3.8,2.1,3.6,4.3c0,0,0,0.1,0,0.1C745.1,51.8,745.1,51.8,745.1,51.9z"/>
</svg>
