<svg id="Livello_1" data-name="Livello 1" xmlns="http://www.w3.org/2000/svg" viewBox="0 0 1202.13 166.75"><defs><style>.cls-1{fill:#f61111;}</style></defs><path class="cls-1" d="M912.74,368.44c0-24.15,0-48.31.07-72.47,0-2-1.37-5.55,2.38-5.33s8.5-2.84,11.06,2.48c2.09,4.35,4.12,8.73,5.94,13.2,1.49,3.68,2.84,4.13,5.67.93,10.88-12.3,24.76-18.76,41-20,15.85-1.23,28.42,5.65,38.86,16.8,2.79,3,4,2.79,6.77.18,18.7-17.79,44.5-22.25,65.85-11.09,13.82,7.22,22.3,19.43,27.35,33.7,10.76,30.43,9.38,60.84-1.94,90.88-3.38,9-8.46,17-15.83,23.25-10,8.42-21.44,8.76-32.85,3.78-11.09-4.83-17.29-13.89-18.09-26.07-.92-14.07,5.07-25.63,14.6-35.35,6.27-6.4,13.45-11.89,19.92-18.11a46.75,46.75,0,0,0,12.94-21c1.31-4.58,1.68-9.29-1.12-13.51-3.71-5.62-11.74-6.66-18.29-2.49-4.38,2.79-8.09,6.38-11.8,10-5.92,5.73-12.33,10.27-21.26,8.74-3.29-.56-2.46,1.61-2.15,3.41a141.63,141.63,0,0,1-1.82,57.51c-2.25,9.44-5.69,18.38-11.67,26.22-9.79,12.82-24.39,17.19-37.92,11.21-12.74-5.64-20.5-21-18-35.74,2.27-13.4,9.41-23.92,19.34-32.86,9.28-8.34,18.75-16.53,25.43-27.28a32.72,32.72,0,0,0,3.43-7.16c1.56-4.86,1.39-9.67-2.58-13.43s-8.73-3.83-13.54-2c-6.12,2.3-10.26,7.26-14.81,11.6-5.42,5.16-10.44,10.73-16.34,15.39a27.31,27.31,0,0,1-8.21,4.63c-7.74,2.64-11.9,1.51-16.92-5-4.57-6-8.76-12.15-10.81-19.51-.61-2.19-1.6-4-4.09-3s-1.13,3.21-.59,4.72c2.77,7.76,7.65,14.35,12.11,21.14,8.57,13,15.55,26.71,17.75,42.38,1.1,7.83,1.13,15.67-1.16,23.28-4.71,15.61-16.53,24-34.25,24.59-3.16.1-6.35-.19-9.49.09-4,.35-5.06-1.22-5-5.11.16-24.49.09-49,.09-73.47Z" transform="translate(-90.87 -287.02)"/><path class="cls-1" d="M430.49,317.51a70.45,70.45,0,0,1,21.18-17.37c36.39-19.74,87.73-5.27,101.41,42.18,3.58,12.42,4.53,24.95-.41,37.22-4.52,11.19-13,13.78-23.28,7.36-15.52-9.68-32-17-50.06-20.39-11.59-2.16-23.14-2.36-34.64.65-1.81.47-4,.76-3.51,3.25.62,3.07,3,1.11,4.44.95,37.4-4.16,69.3,5.52,92,37.23C546,420.3,548.58,434.1,549,448.31c.08,2.56-.87,3.56-3.45,3.55-15.32-.11-30.65.08-46-.26-8.07-.18-12.82-5.8-16.45-12.21-5.61-9.9-8-21.09-12.16-31.59-3-7.73-5.92-15.55-11.87-21.72a24.36,24.36,0,0,0-14.8-7.49c-1.27-.17-2.85-.36-3.13,1.53-.21,1.36-.12,2.77,1.65,3.12,12.23,2.45,17.7,11.58,21.34,22.15,3.47,10,3.91,20.16-.94,30.1s-13.07,14.94-23.66,15.89c-7.61.68-15.31.26-23,.47-2.83.08-3.65-1-3.64-3.81q.12-74.21,0-148.4c0-3.68,1.35-4.41,4.68-4.37,7.95.11,7.87,0,9.42,7.88C427.91,307.53,429.12,311.85,430.49,317.51Zm11.13,43.64a5.44,5.44,0,0,0,1.43-.37c18.4-10.45,37.55-10.95,57.34-4.6,6.78,2.18,13.48,4.8,20.65,5.63,12,1.4,18.55-6.53,14.94-18.13-4.15-13.38-17.26-22.17-33.62-21.27-25.15,1.37-44.73,13.42-59.87,33.19C441.16,357.34,440.63,359,441.62,361.15Z" transform="translate(-90.87 -287.02)"/><path class="cls-1" d="M109.93,319.17c5.24-8.65,11-15,18.73-19.25,16-8.86,32.38-7.57,48.61-.92,35.86,14.7,65.85,59.86,65.86,98.71,0,26.19-13.73,44.65-38.87,52.09a102.58,102.58,0,0,1-31.6,3.94c-8.28-.19-14-4.39-17.61-11.77-4.35-9-6.32-18.92-10.19-28.12-4.5-10.68-11.9-17.49-23.75-18.66-1.78-.17-4.21-1.19-4.66,2s1.88,3,3.8,3.29c21.24,3.24,27.22,31.55,17.46,45.9-3,4.38-7,6.93-12.55,6.87q-15-.18-30,0c-3.23.06-4.3-1-4.3-4.28q.13-74,.09-147.93c0-1.9-.56-4.64,2.54-4.28,3.41.39,8-2.61,10,2.57C105.73,305.44,107.51,311.67,109.93,319.17Zm52.88,7.5c-7.17,0-19.31,3.82-30.06,11.33-14.16,9.9-22.77,23.14-22.56,41.06,0,1.76-.28,3.82,2.56,3.9,2.69.08,2.25-1.89,2.41-3.44.58-5.76,4.08-9.38,9-11.69,10.68-5,21.23-4.06,31.81.72,10.14,4.59,19.59,10.79,30.48,13.61,8.92,2.31,17,.33,23.21-6.62,5.56-6.21,4.76-13.55,2.29-20.74C206.17,338.06,188.58,326.67,162.81,326.67Z" transform="translate(-90.87 -287.02)"/><path class="cls-1" d="M1159.81,315.09c5.23-8.65,11-15,18.72-19.25,16-8.86,32.38-7.58,48.61-.92,35.86,14.7,65.86,59.85,65.86,98.71,0,26.18-13.72,44.65-38.86,52.09a102.59,102.59,0,0,1-31.61,3.93c-8.28-.18-14-4.38-17.61-11.77-4.35-9-6.31-18.91-10.19-28.12-4.49-10.67-11.89-17.49-23.75-18.65-1.78-.18-4.2-1.19-4.66,2s1.88,3,3.81,3.3c21.23,3.24,27.21,31.55,17.45,45.89-3,4.38-7,6.93-12.55,6.87q-15-.17-30,.05c-3.23,0-4.31-1-4.31-4.29q.13-74,.09-147.93c0-1.89-.56-4.64,2.54-4.28,3.41.4,8.05-2.61,10,2.58C1155.61,301.36,1157.38,307.58,1159.81,315.09Zm52.87,7.49c-7.17.05-19.31,3.82-30.06,11.34-14.16,9.89-22.77,23.13-22.56,41.05,0,1.77-.28,3.83,2.57,3.91,2.69.07,2.24-1.89,2.4-3.44.58-5.77,4.08-9.39,9-11.69,10.67-5,21.22-4.06,31.8.72,10.14,4.58,19.59,10.79,30.48,13.61,8.92,2.3,17,.33,23.21-6.63,5.56-6.2,4.76-13.55,2.29-20.74C1256,334,1238.45,322.58,1212.68,322.58Z" transform="translate(-90.87 -287.02)"/><path class="cls-1" d="M567.44,369.2c-.15-36.8,27.3-73.87,68.42-78.95,27.26-3.38,50.18,6.27,67.84,27.19,33.5,39.7,22.93,99.52-19.62,125.23-39.92,24.12-92.73,5.52-110.42-39A88,88,0,0,1,567.44,369.2Zm86.31-53.71c-24.35.17-44.6,12.42-54.65,30.65-4.66,8.47-7.51,17.36-7.66,27.07,0,1.85.2,3.23,2.62,3.23,2.07,0,3.12-.73,3.26-2.8a18.53,18.53,0,0,1,.36-3c1.61-7,4-13.52,11.55-16.23,4.87-1.73,9.85-1.42,14.76-.29,9.61,2.2,18.39,6.67,27.43,10.43,10.24,4.25,19.9,10.1,31.16,11.64,10.58,1.45,19.56-6.25,19.43-16.94-.07-6.74-1.57-13.22-5.47-18.89C685.35,324.13,669.54,316.45,653.75,315.49Z" transform="translate(-90.87 -287.02)"/><path class="cls-1" d="M382.8,317.25c1.83-6.57,3.56-12.09,4.87-17.71,1.46-6.19,6.24-3.47,9.75-3.81,4.14-.4,3.15,2.95,3.16,5.24,0,48.64,0,97.28.1,145.91,0,4-1,5.7-5.26,5.46-5.81-.33-11.66-.23-17.48-.08a24.25,24.25,0,0,1-18.55-7.2c-11.35-11.44-16.58-25.16-14.07-41.3,1.24-8,5.91-13.24,14.2-14.64,1.54-.26,3.12-.28,3-2.43-.15-2.72-2.26-2-3.74-1.92-11.14.34-18.09,7.87-19.05,21a147.77,147.77,0,0,0,.38,22c.46,6,.47,12-1.85,17.69-1.52,3.79-4.35,6.19-8.21,6.42-23.74,1.42-46.11-2.63-63.82-19.81-16.81-16.3-20.13-36.8-13.92-58.58,8.87-31.08,27.7-55,55.42-71.61,13.39-8,28.19-11.22,43.7-8.63,12.35,2.06,22.26,8.39,28.56,19.62C380.65,313.94,381.41,315,382.8,317.25Zm1.87,56.08c-.17-25.83-18.07-47-44.55-52.8-20.12-4.37-39.14,3-48.69,19-4.61,7.74-5.91,16.06-1.51,24.25s12,11.4,21.23,11.44c7.59,0,14.87-1.67,22.17-3.28,9.59-2.11,19-5.07,28.89-5.54,4.16-.2,8.31-.28,12.12,1.94A11,11,0,0,1,380,377.7c.12,1.64-.32,4.22,2.5,4,2.63-.21,1.93-2.67,2.12-4.35A38.07,38.07,0,0,0,384.67,373.33Z" transform="translate(-90.87 -287.02)"/><path class="cls-1" d="M893.41,346.86c-.41.79.22,1.42.47,2.09a7.63,7.63,0,0,0,1,2.28.34.34,0,0,1,.07.15c.24,1.83.93,3.58,1,5.43a2.48,2.48,0,0,0,.3,1.69.22.22,0,0,1,0,.16c-.14,1.74.85,3.37.59,5.07a8.38,8.38,0,0,0,.53,3.37,10.06,10.06,0,0,1,.48,3.38c-.16,1.61.18,3.2.15,4.8a10.7,10.7,0,0,1,.15,2.47c-.23,1.07,0,2.22-.53,3.26a2.07,2.07,0,0,0,0,.74,1.13,1.13,0,0,1-.75,1.11c-.61.2-.69.59-.74,1.15a14.27,14.27,0,0,1-1,4.7.78.78,0,0,0,0,.4,7,7,0,0,1-1.63,5.43,5.87,5.87,0,0,0-1.21,2.63,24.72,24.72,0,0,1-1.65,4.4,7.06,7.06,0,0,0-.8,2.07,1.29,1.29,0,0,1-.35.66,25.38,25.38,0,0,0-1.83,3.05.64.64,0,0,0-.1.38,5.81,5.81,0,0,1-2,5.08c-.07.08-.19.16-.2.25-.17,1.7-1.18,3.06-1.91,4.53a20,20,0,0,1-1.33,2.05c-.08.12-.21.22-.23.35a2.74,2.74,0,0,1-2.28,2.26c-.46.12-.45.46-.51.75-.19,1-.46,1.91-1.62,2.31a1.57,1.57,0,0,0-1,1.12.81.81,0,0,1-.36.54,14.08,14.08,0,0,0-2.81,2.29c-.51.42-.85,1-1.4,1.39a3.54,3.54,0,0,1-1.41.83c-.14,0-.28.06-.31.23a1.64,1.64,0,0,1-1.53,1.32.35.35,0,0,0-.2.14c-.69,1.47-2.06,2.12-3.37,2.82-.18.09-.29.32-.43.49s-.22.41-.37.44c-1.3.25-2.14,1.57-3.56,1.56-.25,0-.53,0-.65.25-.62,1.53-2.08,2.2-3.23,3.2a3.14,3.14,0,0,1-2.48,1c-.45-.06-.69.24-.88.63a1.7,1.7,0,0,1-1.86,1.12c-.9-.12-1.31.63-1.65,1.08a4.46,4.46,0,0,1-2.61,1.53c-1,.27-1.73,1.06-2.73,1.3-.13,0-.26.2-.36.18-1.92-.34-3.17,1.51-5,1.5-1.31,0-2.38.87-3.63,1s-2.48.66-3.71.59a4.23,4.23,0,0,0-2.32.43,6.59,6.59,0,0,1-2.25.31c-1.7.16-3.38.4-5.08.51a4.76,4.76,0,0,1-2.54,0,1.15,1.15,0,0,0-.73.09,1.31,1.31,0,0,1-1,.12c-1-.47-2,.3-3-.16-.33-.15-.94.36-1.43.18a8.25,8.25,0,0,0-3.92,0,.72.72,0,0,1-.25,0,3.08,3.08,0,0,0-2.76-.06.18.18,0,0,1-.16,0c-1.15-1-2.66-.57-4-1a11.16,11.16,0,0,0-2.94-.83,7.22,7.22,0,0,1-3.23-1.15c-.86-.56-1.84-.37-2.66-.88-1.06-.67-2.43-.74-3.37-1.67a.46.46,0,0,0-.52-.14,2.58,2.58,0,0,1-2.47-.63,1.44,1.44,0,0,0-1.12-.45.63.63,0,0,1-.48-.09c-.71-.91-1.86-.67-2.73-1.06l-2.82-1.32a27.37,27.37,0,0,0-3.44-1.37,25.66,25.66,0,0,1-3.28-1.4c-.64-.3-.88-1-1.24-1.53a.93.93,0,0,0-1.09-.51c-1.74.43-2.75-.71-3.82-1.7a3.62,3.62,0,0,0-1.72-1.22,1.15,1.15,0,0,1-.51-.27c-1.17-1.07-2.68-1.73-3.74-2.94-.9-1-1.6-2.27-2.55-3.26a12.44,12.44,0,0,1-2-2.17c-.78-1.42-2.54-2.25-2.51-4.14,0-.2,0-.41-.26-.47-1.43-.41-1.84-1.74-2.57-2.79s-1.18-2-1.77-2.93a14.52,14.52,0,0,1-1.91-3.34,6.6,6.6,0,0,0-1.37-2.62,7,7,0,0,1-1.35-3.45c0-.21,0-.44-.17-.6-.42-.34-.42-.93-.67-1.29a16.73,16.73,0,0,1-1.4-3.16,13.15,13.15,0,0,1-1.27-2.64,9.8,9.8,0,0,0-.88-2.33c-.49-.93-.94-1.9-1.47-2.83a6.37,6.37,0,0,1-.27-1.38c-.16-.59-.12-1.25-.7-1.67a.6.6,0,0,1-.17-.46c.27-2-.92-3.76-1-5.77-.08-1.69-.24-3.45-.47-5.17-.13-.94.16-1.94-.37-2.85a.38.38,0,0,1,0-.33,2.07,2.07,0,0,0,0-1.72,2.93,2.93,0,0,1,.4-2c.19-.36.19-.5-.09-.75a2.12,2.12,0,0,1-.68-1.87c.06-1.31,0-2.64.09-3.94a7.59,7.59,0,0,1,.29-2.91,1.52,1.52,0,0,0,0-.82,11.31,11.31,0,0,1,.14-2.27,27.28,27.28,0,0,1,1-5.11,9.93,9.93,0,0,1,1-3.14c.13-.22.35-.43.27-.67-.46-1.39.52-2.51.71-3.77a24.89,24.89,0,0,1,.53-2.68c.19-.68.69-1,1.07-1.5s-.16-1.22.23-1.81c.62-.94.78-2.15,1.68-2.94a.39.39,0,0,0,.09-.29,3,3,0,0,1,1.57-2.89.51.51,0,0,0,.25-.67v0a1.81,1.81,0,0,1,.41-1.69,14.8,14.8,0,0,1,1.28-2,6.43,6.43,0,0,1,.82-.83c.13-.09.34-.2.35-.33.29-2.16,2-3.36,3.25-4.9a2.53,2.53,0,0,0,.45-1c.19-.69,1-.72,1.31-1.17s.09-1.26.64-1.64a1.37,1.37,0,0,0,.63-1,2,2,0,0,1,.57-1.09,5.88,5.88,0,0,0,1.48-2c.1-.21.4-.34.5-.55.33-.72,1.38-.25,1.62-1a1.8,1.8,0,0,1,1.39-1.28,1.16,1.16,0,0,0,.72-.65c.22-.85.82-1.1,1.56-1.32s1-.8,1.4-1.26c.67-.76,1.13-1.71,1.84-2.43a12.9,12.9,0,0,1,3.12-2.91c.85-.44,1.53-1.14,2.37-1.62.59-.35,1.22-.64,1.83-1a1.47,1.47,0,0,0,.71-.5,1.24,1.24,0,0,1,1.3-.59,1.61,1.61,0,0,0,1.47-.46c1-.77,2.16-1.48,3.25-2.2a1,1,0,0,1,.61-.24c.78.14,1.24-.4,1.74-.79a4.36,4.36,0,0,1,2.28-1.1c.61-.08,1.13-.7,1.74-1a16.64,16.64,0,0,1,2.11-1.06c1.51-.53,2.92-1.31,4.44-1.79a1.56,1.56,0,0,1,1.29.22c.39.24.59.11.79-.21a1.67,1.67,0,0,1,2-.87,1,1,0,0,0,.72-.12,8.78,8.78,0,0,1,4.32-1.07,43,43,0,0,0,5.79-1,2.81,2.81,0,0,1,.58,0c.9,0,1.83.12,2.51-.74a1.82,1.82,0,0,1,1.55-.48c1.07.06,2.24-.76,3.23.25.13.13.23.05.36,0,1.14-.67,2.38-.31,3.59-.33s2.64,0,3.94,0h.75c2,0,3.92.86,5.94.86.75,0,1.12.88,1.67.77a2.92,2.92,0,0,1,1.8.08,17.34,17.34,0,0,0,3,.48c.08,0,.19,0,.25,0,1.25.83,2.79.13,4.15.95a13.17,13.17,0,0,0,4.75,1.44,10.27,10.27,0,0,1,3.4,1.14c.56.32,1.33.24,1.76.88a.27.27,0,0,0,.22.08c1-.33,1.65.35,2.24.83.83.68,1.87.91,2.69,1.56.38.3,1,0,1.39.41a4.79,4.79,0,0,0,1.92,1.13,1.72,1.72,0,0,1,.88.62c.34.47.63,1,1.28,1.09a.54.54,0,0,1,.31.28c.71,1.62,2.18,2.45,3.56,3.37a1.88,1.88,0,0,1,.69.71.88.88,0,0,0,.67.57,1.17,1.17,0,0,1,1.12,1c.18.62.83.8,1.27,1,1,.43,1.3,1.47,2.07,2.08a5.71,5.71,0,0,0,1,.86,6.4,6.4,0,0,1,2.16,2.35,32.18,32.18,0,0,0,2.75,2.84c1.26,1.43,2.79,2.63,3.79,4.3a.73.73,0,0,0,.29.26,2.59,2.59,0,0,1,1.47,1.81c.09.24.16.46.44.55.73.23,1,.88,1.42,1.44.6.8.88,1.82,1.4,2.54a4,4,0,0,1,1.15,2.68s0,.13.05.15c1.12.49,1.15,1.76,1.84,2.59a8.66,8.66,0,0,1,.89,2.2c.53,1.23.93,2.5,1.55,3.71a15.5,15.5,0,0,1,1.91,4.7,5.78,5.78,0,0,0,.72,1.48A2.82,2.82,0,0,1,893.41,346.86Zm-24.86,19.61a3.91,3.91,0,0,0-.29-1.45c-.72-1.18-1.38-2.4-2-3.6h0c-.3-1.05-1.33-1.77-1.27-3,0,0,0,0,0-.07a40.4,40.4,0,0,1-1.11-4.05c-.33-1.75-.26-3.53-.55-5.26,0-.46-.11-.91-.16-1.37.29-.94-.4-1.7-.41-2.66a37.32,37.32,0,0,0-1.32-9.16c-.2-.74-.19-1.66-.88-2.25v-.34a12.14,12.14,0,0,0-.69-2.58c-.33-1.51-1.52-2.68-1.66-4.26,0-.14-.18-.2-.33-.2h0c.19-.71-.57-1-.72-1.5a7.55,7.55,0,0,0-1.7-2.7c-.25-.29-.73-.37-1-.75-.92-1.52-2.29-2.68-3.34-4.09-.1-.23-.29-.21-.49-.19-.13-.92-.92-1.37-1.55-1.81-.83-.59-1.58-1.41-2.72-1.44-.05,0-.1-.12-.13-.19-.47-1-1.6-1.13-2.37-1.72a14.5,14.5,0,0,0-2.89-1.38,20.09,20.09,0,0,0-3.93-1.29l-.58-.05a3.48,3.48,0,0,0-1.42-.3,2.27,2.27,0,0,0-1.34,0,7.17,7.17,0,0,0-2-.4,9.73,9.73,0,0,1-2.94-.17,12.2,12.2,0,0,0-4.38-.56.51.51,0,0,0-.52-.05c-1,0-2,0-3,0-1.59,0-3.12-.66-4.73-.33-.15,0-.31-.07-.47-.09-.52-.05-1-.26-1.53-.3a22.61,22.61,0,0,0-6.06.74,55.23,55.23,0,0,0-6.19,1.5.14.14,0,0,0-.16,0l-.88.17a17.15,17.15,0,0,0-4.3,1.22c-2.56,1.36-5.29,2.4-7.69,4a4.2,4.2,0,0,0-1.72,1.62h0a1.1,1.1,0,0,0-.35.2c-1.68,1.9-3.35,3.82-5.08,5.66-1.3,1.39-1.89,3.23-2.7,4.9-.57,1.2-1.1,2.41-1.64,3.62l0,.05,0-.06c-.06.06-.15.1-.18.17-1,2.09-1.54,4.36-2.37,6.52a2.37,2.37,0,0,0-.06.59.1.1,0,0,0,0,.14l-.1.35a1.92,1.92,0,0,0-.23.84c-.51,1.76-1.05,3.53-1.68,5.26a51.22,51.22,0,0,0-2,6.29,19.77,19.77,0,0,1-1.47,4.29,32.66,32.66,0,0,1-4.08,6.73,38.56,38.56,0,0,0-3.42,5.26c-.92,1.52-1.55,3.2-2.56,4.67-.42.62-.65,1.43-1.06,2s-.39,1.33-.9,1.95a8.45,8.45,0,0,0-1,2.77,28.66,28.66,0,0,0-1,4.18c-.53,3.35-1.26,6.66-.54,10.06a.39.39,0,0,1-.09.29,1,1,0,0,0-.2,1c.29,1.92.32,3.87.52,5.8a27,27,0,0,0,.54,3.07,24.44,24.44,0,0,0,1.35,3.35,47.52,47.52,0,0,0,2.42,4.91c1.12,2.22,2.55,4.27,3.84,6.39a16.53,16.53,0,0,0,4.37,4.25c1.12.83,2.28,1.62,3.36,2.5a34.77,34.77,0,0,0,3.84,2.52c.76.46,1.64.66,2.35,1.16a21.32,21.32,0,0,0,2,1.11c.93.53,2,.82,2.93,1.27,2,.9,3.92,1.79,5.92,2.55a26.15,26.15,0,0,0,6.55,1.36c1.6.18,3.25.2,4.8.49q2.78.51,5.58.94c2,.29,3.93.51,5.9.74a48,48,0,0,0,5.83.51h5.14a35.55,35.55,0,0,1,4.73,0,26.84,26.84,0,0,0,4.72-.29c2.35-.1,4.7-.56,7-.85,1.55-.19,3.06-.6,4.59-.83,2.06-.29,4-1.15,6-1.47a12.42,12.42,0,0,0,2.55-.88,17.21,17.21,0,0,0,3.86-2.32l.14-.18a.9.9,0,0,0,.63-.16c1.09-.85,2.31-1.5,3.43-2.31.57-.4,1.49-.47,1.65-1.38h0c1.68-.37,2.75-1.73,4.13-2.58a32.37,32.37,0,0,0,2.55-2.16c.34-.26.22-.73.64-.92a3.42,3.42,0,0,0,1.42-1.54v0a1.14,1.14,0,0,0,.73-.76,1.44,1.44,0,0,1,.75-1,4.69,4.69,0,0,0,1-1.39c.46-.74.63-1.61,1.14-2.35a13.38,13.38,0,0,0,1.26-3,25,25,0,0,0,1.34-5.46,18.32,18.32,0,0,1,.71-3.1,17,17,0,0,0,.84-5.29c0-1.44,0-2.89-.07-4.33l-.09-.82v-.34a.55.55,0,0,0,0-.5v-.33a.57.57,0,0,0,0-.51c-.13-1.13-.25-2.25-.37-3.38a.81.81,0,0,0-.28-.5.08.08,0,0,0,0-.11c.16-.13.09-.29.06-.46a48.4,48.4,0,0,0-1.84-6.59,6.32,6.32,0,0,0-.91-2.22l0-.31c-.42-1-.88-2-1.22-3-.15-.46-.78-.5-.74-1a1.45,1.45,0,0,0-.66-1.27l0-.05,0,0a.81.81,0,0,0-.18-.7,17.26,17.26,0,0,1-1.79-3.16,1,1,0,0,0-.7-.52Z" transform="translate(-90.87 -287.02)"/><path class="cls-1" d="M788.09,322.74l.17-.16a2.82,2.82,0,0,0,.73-.88l.1-.17a3.46,3.46,0,0,0,.72-.93h0a1.43,1.43,0,0,0,.67-.68h0l1.55-1.36a.33.33,0,0,0,.29-.31,2.78,2.78,0,0,0,1.22-1h0a1.4,1.4,0,0,0,.76-.29,25,25,0,0,1,4.37-2.46h0a.15.15,0,0,0,.17-.1v0h0c.4-.11.81-.21,1.19-.35a10.88,10.88,0,0,1,2.94-.85c1.18-.08,2.37-.17,3.54-.32a5.58,5.58,0,0,0,2.54-.66l.17,0a3.32,3.32,0,0,0,1.7-.3l.3,0,.33,0h.34l.41,0h5.79l.08,0h1.6a.66.66,0,0,0,.5,0,16.86,16.86,0,0,0,2,.05,14.71,14.71,0,0,0,3-.09c.25.17.5.35.83.21h.67a47.25,47.25,0,0,0,5.18.23h0c.57.11,1.14.2,1.7.32,2.28.51,4.64.69,6.7,2a49,49,0,0,1,4.81,2.89,4.26,4.26,0,0,0,2,1.2h0c.21.68,1,.93,1.26,1.47a21.49,21.49,0,0,0,3.62,4.22h0a11.5,11.5,0,0,0,1.68,2.13v.05h.05c.11.66.64,1.14.8,1.79.07.3.07.74.48.9a.14.14,0,0,0,0,.15,1.79,1.79,0,0,0,0,.65,43.58,43.58,0,0,1,2.29,7.22l0,.17a3.06,3.06,0,0,0,.29,1.36h0c.27,2.71.9,5.35,1.36,8h0a6.22,6.22,0,0,0,.32,1.87l0,.65.79,4.86c0,.11,0,.22,0,.33a.32.32,0,0,0,.09.38h0l.06.29,0,.51a17.19,17.19,0,0,1,.29,2.14c0,1.76-.11,3.53,1,5.08h0c.08.85.88,1.37,1,2.2,0,.2,0,.46.35.5h0a12.28,12.28,0,0,0,1.35,2.59l0,0,0,0c.47.74.56,1.68,1.18,2.35a.31.31,0,0,0,.21.31l2.64,5.39h0a10.09,10.09,0,0,0,.74,2.1,13.67,13.67,0,0,0,1.54,3.78l.08.5c0,.45-.08.94.27,1.33h0a4.71,4.71,0,0,0,0,.75,34.23,34.23,0,0,1,.93,6.29,37.84,37.84,0,0,1,0,4.26,32.73,32.73,0,0,1-1.36,7.07c-.78,2.7-1.14,5.51-2.31,8.1-.25.29-.18.68-.36,1l.05,0-.05,0c-.5.32-.49.95-.8,1.35-1,1.37-2.18,2.62-3.17,4-.33.47-1.13.59-1,1.37h0a17.14,17.14,0,0,0-2.25,1.53c-.41.32-.46,1.11-1,1.11-.79,0-1.19.59-1.76.89-.2,0-.33.12-.33.33-.24.34-.68.16-1,.42a32,32,0,0,1-4.41,3.17c-1.29.82-2.29,2.07-3.85,2.48a34,34,0,0,1-3.58,1.17,2.82,2.82,0,0,0-1.67.62h-.06a.71.71,0,0,0-.79.07c-1,.62-2.13.54-3.17.84s-2.36.25-3.52.52c-1.61.37-3.27.29-4.85.66a6.38,6.38,0,0,1-2.94.26,1.05,1.05,0,0,0-1.21.34.33.33,0,0,1-.28.11c-2.75-.85-5.58-.17-8.35-.37-1.74-.12-3.51,0-5.23-.17q-2.94-.35-5.86-.81c-1.95-.32-3.85-.67-5.81-.84-1.57-.13-3.15-.44-4.72-.72-1.18-.22-2.37-.25-3.55-.46a21.82,21.82,0,0,1-3.37-.83c-3.26-1.17-6.31-2.81-9.52-4.11a33.7,33.7,0,0,1-6.08-3.63c-1.7-1.12-3.24-2.44-4.9-3.61a14.11,14.11,0,0,1-4.09-4.37c-1.22-2.06-2.49-4.06-3.6-6.17a33.63,33.63,0,0,1-2-4.29,7.59,7.59,0,0,1-.61-3.37c.09-.85-.13-1.79-.1-2.67a59.64,59.64,0,0,1,1.86-13.09,42,42,0,0,1,2.75-7.85,48.84,48.84,0,0,1,3.05-4.6c1.11-1.77,2.21-3.53,3.23-5.33a12.81,12.81,0,0,0,.56-1.91c1.07-2.92,2.42-5.73,3.66-8.58a24.91,24.91,0,0,0,1.28-4.56c.38-1.79,1.35-3.42,1.6-5.26a.1.1,0,0,0,0-.13,20,20,0,0,0,1-2.88l0,0v0l1.65-4.1a8.65,8.65,0,0,0,1-2.53h0a7.86,7.86,0,0,0,1.07-2.69,13.43,13.43,0,0,1,1.68-3.88C784.34,326.42,786.46,324.77,788.09,322.74Zm26.65,46.07.16,0,1.17-.16a.3.3,0,0,0,.34,0,8,8,0,0,0,2.67-.07h.34c.29,0,.58.11.88-.09l1,0a9.74,9.74,0,0,0,2.4-.3,1.19,1.19,0,0,0,.79-.06A72.35,72.35,0,0,0,833,367l.67-.19c1,.26,1.74-.44,2.69-.46a10.37,10.37,0,0,0,3.36-.84h0a5.15,5.15,0,0,1,1.91-.58,9.9,9.9,0,0,0,3.39-1.73l.05,0a1,1,0,0,0,.67-.3c2.64-2.31,5.29-4.6,6.43-8.08a.1.1,0,0,0,.1-.08h0c.17-.1.14-.27.12-.42a16.84,16.84,0,0,0,.45-7.13,19.29,19.29,0,0,1-.32-2.52,17.07,17.07,0,0,0-.59-4.66c-.26-.88-.48-1.8-.69-2.7a20.35,20.35,0,0,0-1.51-4,31.53,31.53,0,0,0-1.65-3.35h0a5.88,5.88,0,0,0-.69-1.77,21.74,21.74,0,0,0-3.13-5.4c-.48-.54-.73-1.33-1.53-1.58h0a1,1,0,0,0-.71-.63,8.89,8.89,0,0,1-2.46-1.57,3.21,3.21,0,0,0-2.64-.64,30.14,30.14,0,0,0-6,1.51l-.63.05-2,.29h-2.18a1.64,1.64,0,0,0-.85,0,.14.14,0,0,0-.15,0h-.67l-.35,0h-.5l-.35,0a15.25,15.25,0,0,1-3.29.39c-.4,0-.89-.3-1.24.15l-.29,0-4.19-.33h0c-1.54-.44-3.18-.18-4.7-.68H809a15.4,15.4,0,0,0-2.12-.46c-1.24-.3-2.54-.3-3.77-.62a9.5,9.5,0,0,0-6.16.52,1,1,0,0,0-.69.56h0a.17.17,0,0,0-.19.15h0a7.92,7.92,0,0,0-4,3.9h0a2.18,2.18,0,0,0-.66,1h0a16.46,16.46,0,0,0-1.64,3l0,.17a28.94,28.94,0,0,0-2.62,5.29c-.63,1.73-1.2,3.49-1.77,5.25h0c-.34.89-.69,1.77-1,2.66l0,.05,0-.05a1.94,1.94,0,0,0-.6,1.54v0a3.17,3.17,0,0,0-1,2.16h0a1,1,0,0,0-.24.68,5.49,5.49,0,0,1-.43,1.91,20,20,0,0,0-.46,4.6l.06.07a8.89,8.89,0,0,0,.73,5.49h0a3,3,0,0,0,.35,2h0c-.13.47.29.79.37,1.21a2.89,2.89,0,0,0,.92,1.86h0a2.63,2.63,0,0,0,1.29,1.66,27.77,27.77,0,0,0,5.45,3h0a13.14,13.14,0,0,0,2.61.66,7.66,7.66,0,0,0,2.56.36,1.3,1.3,0,0,0,1.17.3,42,42,0,0,1,4.63.25c2,.08,4,.06,6,.08h1c.15,0,.3.09.44,0h.11c.13.1.22.06.3-.07h0a8,8,0,0,0,3.5-.18l.17,0h1.5Zm-41.42,5.74h0l-.05,0a6.61,6.61,0,0,0,0-.89c-.08-.56-.51-.62-.93-.5a11.65,11.65,0,0,0-2.92,1.69,6.86,6.86,0,0,0-2.64,3.12c-.68,1.73-1.93,3.08-2.74,4.73a12.31,12.31,0,0,0-1.35,6.08,18.86,18.86,0,0,0,.8,5.11,1.43,1.43,0,0,1,0,.58,3.93,3.93,0,0,0,.65,2.58c.87,1.29,1.88,2.48,2.71,3.79.22.34.62.73,1.06.49s1.12-.59.82-1.24a12.28,12.28,0,0,0-.88-2.24c-1.11-1.53-1.15-3.25-1.2-5a37.45,37.45,0,0,1,.59-5.5,20,20,0,0,1,.86-4.41c1.1-3.14,3.09-5.74,5.07-8.35C773.25,374.55,773.29,374.55,773.32,374.55Zm42.34,49.26a26.58,26.58,0,0,0,8.89-1,18.83,18.83,0,0,0,5.37-2.61c.91-.64,1.66-1.5,2.58-2a11.69,11.69,0,0,0,5.45-6.89,23.88,23.88,0,0,0,1.14-5.67,31.09,31.09,0,0,0,.34-3.86c-.06-1-.21-1.93-.22-2.87a20.34,20.34,0,0,0-1.2-5.15c-.26-.93-.75-1.78-1-2.72a13.91,13.91,0,0,0-2.11-3.73,12.93,12.93,0,0,0-1.63-1.84c-1.5-1.46-2.83-3.1-4.74-4.11-.4-.21-1-.35-1.16-.58-.54-.73-1.37-.77-2.05-1.15-1.28-.71-2.78-.73-4.11-1.23-2-.76-4-.38-6.06-.23a16,16,0,0,0-4.05.81,13.18,13.18,0,0,0-2.72.91,27.92,27.92,0,0,0-2.76,1.94c-1.38,1-2.8,2-4.19,3.07a13,13,0,0,0-2.9,3.36,39.6,39.6,0,0,0-3.36,6.42,24.73,24.73,0,0,0-1,4.52c-.56,2.59-.21,5.22-.1,7.83.06,1.47.95,2.75,1.41,4.14s1.49,2.43,2.12,3.71a25.41,25.41,0,0,0,4.39,5.67c.7.77,1.69.91,2.48,1.47a9.36,9.36,0,0,0,4.25,1.58A51.84,51.84,0,0,0,815.66,423.81ZM850.45,393a2.65,2.65,0,0,0-.21-1.47q-1.5-3.15-2.94-6.32a19.56,19.56,0,0,0-5.19-6.65,4.47,4.47,0,0,0-2.64-1c-.4,0-.73.17-.73.52s-.27,1.08.26,1.19c.86.17,1.11.84,1.51,1.41,1.73,2.48,2.72,5.33,3.91,8.07a17.48,17.48,0,0,1,1,2.73,27.93,27.93,0,0,1,.52,7.19,5.17,5.17,0,0,1-.13,1.47,31,31,0,0,0-1.49,6.22,17.94,17.94,0,0,1-1.27,5,16.12,16.12,0,0,1-3.28,5.31,4.92,4.92,0,0,0-1.55,3.12c-.05.91.15,1.14,1,.78,2.15-.88,4.2-1.9,5.45-4a14.83,14.83,0,0,1,1.47-2.12,14.09,14.09,0,0,0,3.53-8.79,12.55,12.55,0,0,1,.74-4.4,9.77,9.77,0,0,0,.57-4.15A25.86,25.86,0,0,0,850.45,393ZM782.35,400a32.37,32.37,0,0,0,.81,3.89,27.73,27.73,0,0,0,2.55,6.7,34.81,34.81,0,0,0,3.47,5.65,3.4,3.4,0,0,0,1.52,1.15c1.17.43,1.78-.15,1.66-1.32a13.3,13.3,0,0,0-.69-3.17c-.8-2.27-1.72-4.51-2.58-6.75-.29-.8-.78-1.51-1.05-2.33a13.33,13.33,0,0,1-.29-4.26,37.29,37.29,0,0,1,.43-7.11,23.75,23.75,0,0,1,4.61-10.65c1-1.19,2.06-2.3,2.21-4,0-.44,0-.79-.34-1a.69.69,0,0,0-1,.2h0a5.27,5.27,0,0,1-.82.94,36.21,36.21,0,0,0-7.56,9.25,11.39,11.39,0,0,0-2.13,6.52c0,.11,0,.22,0,.33,0,1.44-1.15,2.64-.83,4.17a8.51,8.51,0,0,1,0,1.75Zm-1.27-24.46c-.2.09-.52-.21-.66.11-.27.61-.88,1-1.21,1.42a28.81,28.81,0,0,0-2.64,3.29c-.54,1-1.05,2-1.64,2.9a21.25,21.25,0,0,0-3,7.54c-.27,1.47-.41,3-.63,4.46a12.94,12.94,0,0,0,.35,5.29c.54,2,1.61,3.77,2.11,5.77a1.47,1.47,0,0,0,.7.88,2.7,2.7,0,0,1,1.2,1.44,4.53,4.53,0,0,0,1,1.64c.61.78,1.69,1,2.16,2,.17.37.79.24,1.23.16s.52-.52.59-.79c.14-.51-.37-.81-.64-1.19s-1.18-.81-.81-1.69a.34.34,0,0,0-.14-.29c-.52-.29-.43-.79-.5-1.24a2,2,0,0,0-.13-.73,11,11,0,0,1-1.53-6.52c.15-1.54,0-3.12,0-4.67s.25-3.08.39-4.62a5.76,5.76,0,0,1,.21-1.5,15.47,15.47,0,0,0,.65-2.71,27.12,27.12,0,0,1,.76-2.8c.88-2.25,2-4.41,3-6.59a1,1,0,0,0-.82-1.55Zm79.15,20.16a37.56,37.56,0,0,0-.72-6.4c-.35-1.45-.88-2.82-1.33-4.21-.59-1.86-1.91-3.38-2.85-5.08a18.92,18.92,0,0,0-1.85-2.33,7.57,7.57,0,0,0-2.69-2,2.28,2.28,0,0,0-.88-.22c-.59,0-.74.58-1,.89s.23.45.5.57a.74.74,0,0,1,.44.46c1,2.2,2.3,4.25,3.34,6.43a25,25,0,0,1,2.27,6.78,44,44,0,0,1,.4,6.39c0,2.67-.92,5-1.66,7.48-.61,2-1.76,3.9-1.38,6.14.09.57.52,1,1,.72a4.78,4.78,0,0,0,1.65-1.35,32.15,32.15,0,0,0,3.4-6.07A20.25,20.25,0,0,0,860.23,395.73Zm7.72-9.62c0-2.17-1.22-4-2.24-5.79a22.25,22.25,0,0,0-3.27-4.13,3.74,3.74,0,0,0-3.12-1.36c-.35,0-.68.05-.81.44a.64.64,0,0,0,.39.75,6.94,6.94,0,0,1,2.87,3.58c1,2.24,2.3,4.42,1.69,7.09a38,38,0,0,0-.34,4.9,12.45,12.45,0,0,0-.28,2.31,5.48,5.48,0,0,1-.23,2.09,21.2,21.2,0,0,0-.64,2.84c-.08.56.1,1.1-.4,1.59-.26.26,0,.8.38.63.61-.27,1.47-.34,1.74-1a37.26,37.26,0,0,0,1.72-3.61,15.65,15.65,0,0,1,1.11-3.41,8.88,8.88,0,0,0,.82-3.52,1.88,1.88,0,0,1,.19-1c.58-.74.38-1.58.42-2.44Z" transform="translate(-90.87 -287.02)"/><polygon class="cls-1" points="693.44 39.47 693.45 39.44 693.48 39.46 693.44 39.47"/><path class="cls-1" d="M802.56,396.25l-.54,1.54A2.73,2.73,0,0,1,802.56,396.25Z" transform="translate(-90.87 -287.02)"/><path class="cls-1" d="M803,357l-.31.19a18.65,18.65,0,0,1-4.51,2.58h0c-.13,0-.27,0-.35.12l-.33.12-.21.07h-.06l-.05,0a4.23,4.23,0,0,0-1.7.46l-.31.09L794,361a.55.55,0,0,0-.5,0h-.17a.55.55,0,0,0-.5,0c-.71-.31-1.53.07-2.24-.43-1.76-1.25-3.68-2.29-4.74-4.36a5.49,5.49,0,0,1-.76-2.44,5.3,5.3,0,0,0-.13-1.81l0-.33c0-.51.31-1,.21-1.49h0a1.9,1.9,0,0,0,.28-.86l.06-.62c.23-.2.21-.5.32-.75.32-.67.28-1.54.88-2,1.33-1.08,2.68-2.09,4.57-2a8.9,8.9,0,0,1,5.83,3c.16.17.26.41.1.59s-.4,0-.59-.09l-2.06-1.07h0c-2-1.31-4,.71-4.08,2.31a10.33,10.33,0,0,0,1.43,5.42c.37.73.91,1.6,1.85,1.67a15.28,15.28,0,0,0,5.13-.33h0l2.27-.65a19.46,19.46,0,0,0,3.07-.95c.77-.19,1.52-.5,2.29-.74.15,0,.34-.07.41.16-.83.9-1.47,2-2.38,2.82h0A4.17,4.17,0,0,0,803,357Z" transform="translate(-90.87 -287.02)"/><path class="cls-1" d="M847.06,346.27c0,.21.09.41.34.45l.47,1c0,.13,0,.26.17.33a4.39,4.39,0,0,0,.36,1.22l0,0,0,.05a2.73,2.73,0,0,0,.14,1.36l0,1.31-1.31,2.69h0c-.11,0-.15.06-.13.16-.12.27-.39.48-.38.82a8.32,8.32,0,0,1-1.66,1.53l-.34.22a.41.41,0,0,0-.34.28h0a.66.66,0,0,0-.51.34l-.18.13c-.23.16-.54.23-.67.52h0a24.86,24.86,0,0,1-4,1.32,1.28,1.28,0,0,0-.72.09l-1.49.06a4.31,4.31,0,0,1-3.3-.74c-.84-.71-1.7-1.39-2.56-2.08h0a1.7,1.7,0,0,0-.7-.82h0a20.69,20.69,0,0,1-2.55-3.61,11,11,0,0,1,2.4,1.06,3.27,3.27,0,0,0,1.82.72h0c1.4.29,2.78.73,4.22.2l.33-.14.17-.06h0a3.15,3.15,0,0,0,2-.65h0c1.29-.4,2.62-.73,3.35-2.05l0,0a4.79,4.79,0,0,0,1.24-2.94c.11-1-.48-1.79-1.42-1.67a4.14,4.14,0,0,0-2.6.91h0c-.92.47-1.54,1.34-2.45,1.88C837.79,345.9,842.75,344.34,847.06,346.27Z" transform="translate(-90.87 -287.02)"/><path class="cls-1" d="M796.2,336.68a.39.39,0,0,0,.16-.34c.74-.88.72-2.15,1.47-3a.57.57,0,0,1,.11-.11l1-1.11,0,0c.53-.48,1.08-.95,1.59-1.47a3.31,3.31,0,0,1,2.74-1.11c1.67.15,3.34.12,5,.37,2.35.35,3.7,1.86,5.07,3.45a4.1,4.1,0,0,1,.52,1.36h0a8.54,8.54,0,0,0,.17,2c-.07.26.15.43.19.66v.34l0,.75a9.17,9.17,0,0,0-.45,1.93.64.64,0,0,0-.21.47,9.6,9.6,0,0,0-1,2.08,1.18,1.18,0,0,1-.52.7,15,15,0,0,1-7.16,2.65.5.5,0,0,0-.5,0c-.86-.17-1.72-.36-2.59-.5-.65-.1-1.24-.49-1.93-.34l-.07,0-1.24-.69,0,0,0,0a13.89,13.89,0,0,0-1.21-1c-.7-.47-.74-1.3-1.15-1.93l-.08-.25a.12.12,0,0,0-.1-.18h0a1.53,1.53,0,0,0-.18-1v-1.18A9.51,9.51,0,0,1,796.2,336.68Zm7.6,7.78c1.28-.11,2.35-.23,3.4-.27,1.46-.07,2.91-.38,3.68-1.73.86-1.52,1.79-3,1.73-4.95a10.88,10.88,0,0,0-.83-3.69c-.52-1.32-1.91-1.88-3.07-2.51a5.86,5.86,0,0,0-3.92-.26c-1.17.24-2.4.26-3.45,1.23-1.66,1.52-3.25,3-3.38,5.38,0,.44.18.88.11,1.32a4.32,4.32,0,0,0,1.21,3.38,5.66,5.66,0,0,0,4.52,2.1Z" transform="translate(-90.87 -287.02)"/><path class="cls-1" d="M822.79,340.84c0-.1,0-.21,0-.32a12.5,12.5,0,0,0,.11-2l0-.44a.36.36,0,0,0,.12-.39l.08-.32c.61-2.4,1.64-4.52,3.88-5.84.29-.17,0-.24,0-.36.27.05.44-.15.64-.26l.67-.25h0l.08,0,.07,0h.34a21.61,21.61,0,0,1,5.45-.11,4.34,4.34,0,0,1,2.84,1.17l.83.7v0a1.89,1.89,0,0,0,.74.93h0a11.66,11.66,0,0,1,1.39,2.58,15.87,15.87,0,0,1,.27,5.58h0A17.85,17.85,0,0,1,839,344h0l-2.45,2.65-.2.11c-.42.31-1,.38-1.35.77l-.49,0a5.73,5.73,0,0,0-2.22.14h-.22a27.12,27.12,0,0,1-3.93-1.33l-.22-.05c-1.17-.82-2.57-1.26-3.63-2.24a.13.13,0,0,0-.14-.06l-.31-.34-.21-.32a3,3,0,0,0-.49-1l-.36-1.16C822.79,341.07,822.79,341,822.79,340.84Zm16-2.62a9.68,9.68,0,0,0-.57-2.6c-.81-2.19-3.36-4.06-5.47-4a16.6,16.6,0,0,0-1.71.32c-2.34.4-4.36,1.32-5.55,3.5a17,17,0,0,0-.75,1.95,5.64,5.64,0,0,0-.18,3.78,9,9,0,0,0,2,2.91c.26.31.75.15.93.47.41.74,1.25.73,1.87,1.1a5,5,0,0,0,3.71.17A6.81,6.81,0,0,0,838.8,338.22Z" transform="translate(-90.87 -287.02)"/><path class="cls-1" d="M810.55,356.45l.33-.05,2.22-.3.46,0a70.2,70.2,0,0,1,9.05.5l.32.07a44.81,44.81,0,0,1,4.88,1.12.1.1,0,0,0,.13,0,.85.85,0,0,0,.69.34h0a1.07,1.07,0,0,0,.91.31,2.84,2.84,0,0,1,2.45,1,1.42,1.42,0,0,1,0,2,1.58,1.58,0,0,1-.58.35,2.33,2.33,0,0,1-2.19-.53,15.38,15.38,0,0,0-7.68-2.76,50.08,50.08,0,0,0-5-.4A16.15,16.15,0,0,0,805.72,362a1.6,1.6,0,0,1-1.72.2,1.33,1.33,0,0,1-.85-1.24,2.65,2.65,0,0,1,2.14-2.33,6.46,6.46,0,0,0,2.09-1l.48-.24a7.18,7.18,0,0,0,1.69-.64h0A1.85,1.85,0,0,0,810.55,356.45Z" transform="translate(-90.87 -287.02)"/><path class="cls-1" d="M799,324.25c.13-.74.54-1.21,1.31-1a16.37,16.37,0,0,0,5.36.3c1.57-.05,3,.58,4.52.77.24,0,.48.14.73.18.67.09,1.6-.07,1.84.65a5.19,5.19,0,0,1,.06,3.12c-.24.82-.68,1-1.45.79a5.64,5.64,0,0,0-1.83-.13l-.61,0a2.7,2.7,0,0,0-.56-.14l-5.82-.19a1.18,1.18,0,0,1-.64-.12,3,3,0,0,0-2.37-.31c-1,.08-1.13,0-1.14-1,0-.76.44-1.44.38-2.2C798.86,324.7,798.92,324.48,799,324.25Z" transform="translate(-90.87 -287.02)"/><path class="cls-1" d="M834.41,322.6c.64,0,1.29-.3,1.94,0a11.74,11.74,0,0,1,1.27,4.09c.06.63,0,1-.7.93a3.74,3.74,0,0,0-1.77.41,8.2,8.2,0,0,1-2.72.65,1.69,1.69,0,0,0-.95.29l-.31,0c-1.5.29-3,.36-4.51.51h-.36a3.15,3.15,0,0,0-1.64,0c-.65.08-.93-.21-.91-.85,0-.47.22-1,0-1.39-.4-.73-.07-1.31.2-1.93h0c.25.38.54.26.88.1a4.73,4.73,0,0,1,1.83-.78,35,35,0,0,0,6.84-1.5A1.71,1.71,0,0,0,834.41,322.6Z" transform="translate(-90.87 -287.02)"/><path class="cls-1" d="M821.94,349.06a7.91,7.91,0,0,0-2.35,2.26c-.16.18-.22.49-.55.39s-.15-.38-.16-.59v-1.24l.21-.66c.06-.15.14-.29.19-.44.44-1.23,1.05-2.2,2.6-1.91.14,0,.3-.1.46-.15a.53.53,0,0,0,.46,0c.58.42,1.38.26,1.91.9a6.83,6.83,0,0,1,1.47,2.06c.36,1,.42,1.11-.53,1.81l-.37-.74A2.83,2.83,0,0,0,822,349h0Z" transform="translate(-90.87 -287.02)"/><path class="cls-1" d="M810.9,352.06a3.61,3.61,0,0,1,0-4c.91-1.33,2-1.81,3.33-1.34a3.71,3.71,0,0,1,2.23,2.79,5.24,5.24,0,0,0,.34,1.26,1.12,1.12,0,0,1,0,.88c-.06.21-.27.26-.48.25s-.12-.21-.14-.35a5.47,5.47,0,0,0-.72-1.83.34.34,0,0,0-.15-.34c-.79-1.3-1.88-1.33-2.64,0a7.69,7.69,0,0,0-.85,1.87h0l-.63.88Z" transform="translate(-90.87 -287.02)"/><path class="cls-1" d="M820.59,325.26c-.55-.45-.29-1-.29-1.59a1.69,1.69,0,0,0,.66-.74h0c.16-.06.3-.12.47-.17,1.71-.45,2.12.09,2.2,1.78,0,1.19-.86,1.85-1.54,2.63l-.14.1a6.7,6.7,0,0,1-2.3,1.33.79.79,0,0,1,.14-.68c.36-.65.72-1.31,1.07-2C821,325.66,821.2,325.31,820.59,325.26Z" transform="translate(-90.87 -287.02)"/><path class="cls-1" d="M817.56,327.29c0,.54-.23.4-.56.29a12.49,12.49,0,0,1-2.43-1.64,1.63,1.63,0,0,0-.59-1.67c-.63-.46-.26-1.12.06-1.63s.72-.89,1.37-.47a.14.14,0,0,0,.13.09,1.85,1.85,0,0,0,1,.73.06.06,0,0,0,0,.09h0a4.58,4.58,0,0,0,.88,4.09l.11.12Z" transform="translate(-90.87 -287.02)"/><path class="cls-1" d="M812.66,362.91c.37-.19.26-1.18.93-.73s0,.84-.18,1.25a9.51,9.51,0,0,0-.63,1.62c-.15.89-.64,1.06-1.4.93a.9.9,0,0,0,0-.16,11.21,11.21,0,0,0,.85-2,.06.06,0,0,0,0-.06l0,0,.42-.79Z" transform="translate(-90.87 -287.02)"/><path class="cls-1" d="M820.27,363.06c.05.73.1,1.47.17,2.2,0,.26,0,.62-.19.66s-.56-.29-1-.29,0-.3,0-.44a2.78,2.78,0,0,0,0-1.15c-.16-.64.11-.93.67-1.07A.31.31,0,0,0,820.27,363.06Z" transform="translate(-90.87 -287.02)"/><path class="cls-1" d="M809.54,362.81c.35.15.69-.47,1,0a.2.2,0,0,0,0,.15c-.81.81-1.4,1.81-2.17,2.69-.23.28-.42.59-.88.39.16-.72.79-1.18,1-1.85a.47.47,0,0,0,.25-.38c.15-.06.17-.19.18-.32h0l.57-.67Z" transform="translate(-90.87 -287.02)"/><path class="cls-1" d="M822.9,364.69c0,.32.23.48.44.78-.51-.18-.88.26-1.34,0l0,0a1.15,1.15,0,0,0-.13-.7l-.09-.31a.24.24,0,0,0-.1-.29v-.06a2.38,2.38,0,0,0-.14-1c0-.1,0-.2,0-.29.41-.47.65-.52.94.17s0,1.23.48,1.7Z" transform="translate(-90.87 -287.02)"/><path class="cls-1" d="M816.88,363.52c.12.74-.29,1.55.33,2.3a1.58,1.58,0,0,1-1.2-.18l-.06-.05a1.69,1.69,0,0,0,.07-1.13c0-.65.16-1,.86-.94Z" transform="translate(-90.87 -287.02)"/><path class="cls-1" d="M824.29,365.32c-.12-.54.25-1.06.05-1.62a2,2,0,0,1,.72,1.05c.17.44-.13.48-.44.52Z" transform="translate(-90.87 -287.02)"/><path class="cls-1" d="M817.47,341.51c-.16-.09-.3-.34-.17-.38.39-.12.51-.59.93-.64v0c.18.4-.24.57-.32.87Z" transform="translate(-90.87 -287.02)"/><path class="cls-1" d="M845.28,334a2.45,2.45,0,0,1-.18-1.64c.46.51.18,1.11.23,1.67Z" transform="translate(-90.87 -287.02)"/><path class="cls-1" d="M825.88,363.17,826,363c.88.3,1.14,1.22,1.74,1.8.18.18-.2.36-.32.3-.47-.25-.92,0-1.47,0A1.78,1.78,0,0,0,825.88,363.17Z" transform="translate(-90.87 -287.02)"/><path class="cls-1" d="M792.08,334.85c-.19.86.24,1.85-.61,2.71a5.32,5.32,0,0,1,.61-2.71Z" transform="translate(-90.87 -287.02)"/><path class="cls-1" d="M818.24,340.49l.07,0-.08,0Z" transform="translate(-90.87 -287.02)"/><path class="cls-1" d="M795.75,353.71c.19-.17.43-.1.47-.33s.16-.36.4-.28c.07,0,.17,0,0,.15s0,.47-.37.46Z" transform="translate(-90.87 -287.02)"/><path class="cls-1" d="M800.84,338.17c-.12-3.38,3.46-5.66,6.17-5.39a3,3,0,0,1,2.51,1.94,11.93,11.93,0,0,1,.73,3.92c.07,1.68-2.06,3.5-3.71,3.28a7.55,7.55,0,0,0-1.9.09c-1.41.16-2.29-.72-3.08-1.6A2.68,2.68,0,0,1,800.84,338.17Z" transform="translate(-90.87 -287.02)"/><path class="cls-1" d="M836,338.89c-.11,2.82-2.08,4.75-4.88,4.41-2.55-.32-4.29-1.74-4.18-5a5,5,0,0,1,1.5-3c1.07-1.28,2.54-1.13,3.95-1a4,4,0,0,1,3.63,4.41A1,1,0,0,1,836,338.89Z" transform="translate(-90.87 -287.02)"/></svg>