<svg id="Livello_1" data-name="Livello 1" xmlns="http://www.w3.org/2000/svg" viewBox="0 0 563.95 635.58"><defs><style>.cls-1{fill:#df0000;}</style></defs><path class="cls-1" d="M717.42,605.5c-2-6.7-4-13.39-6.16-20.37h12.38c2.8-14.07,14.5-16.16,25.42-17.68,11.77-1.64,19.75,5.89,25.66,15.1,6.46,10.09,12.33,20.56,18.32,30.94q28.71,49.75,57.32,99.56c1.14,2,2.39,3.88,4,6.59,3.71-13.43,7.12-26,10.67-38.56,17.38-61.4,37.74-121.72,64.41-179.81,18.72-40.77,42.89-78.18,69.49-114.15,28.29-38.29,59.15-74.29,94.75-106,23.39-20.82,49.78-37.27,77.77-51.24,8.42-4.2,16.76-8.19,28.19-7.56l-9.53,5.92.39.89,9.88-4.95.32.52-10,8.75,35.65-9c.27.52.54,1,.8,1.56q-11.9,8.91-23.81,17.8l.68,1.24c2.78-.81,5.65-1.39,8.33-2.47,11.26-4.52,22.46-9.2,33.69-13.81a17.81,17.81,0,0,1,16.93,1.43c-2.49,1.72-4.53,3.55-6.9,4.69a432.59,432.59,0,0,0-68.87,41.28,439.79,439.79,0,0,0-95.15,96.29c-29.16,40.2-52.06,84-74.21,128.28a1133.37,1133.37,0,0,0-77.63,200.88Q923.58,761,906.34,820.19c-4,13.77-14.1,22.88-26.64,28.93-17.1,8.26-34.74,10.49-52.27,1.27-2.93-1.54-6.13-4.82-6.89-7.88-9.3-37.34-28.36-70.22-46.62-103.49q-33.76-61.5-67.34-123.11c-4.44-8.17-7.72-16.89-7.5-27.08l16.56,17.38Z" transform="translate(-699.07 -220.79)"/><path class="cls-1" d="M1255.7,221.42l-18.84,7.07C1241.11,222,1247.6,219.51,1255.7,221.42Z" transform="translate(-699.07 -220.79)"/></svg>