<svg id="Livello_1" data-name="Livello 1" xmlns="http://www.w3.org/2000/svg" viewBox="0 0 709.41 716.31"><defs><style>.cls-1{fill:#e10000;}</style></defs><path class="cls-1" d="M952.92,544.57c-22.23,19.29-43.71,37.09-64.26,55.9C829.81,654.37,771,708.28,712.87,763c-25.46,24-49.21,49.84-73.34,75.23-7.52,7.91-13.56,17.21-20.68,25.53-1.88,2.19-6.41,5-7.75,4.16-2.57-1.53-5.09-5.4-5.15-8.35-.08-4,1.6-8.34,3.52-12,40.95-78.46,94.06-148.44,151.8-215,41.68-48,84.88-94.76,127.54-141.95,3.26-3.59,3.63-5.59-.06-9.21-69-67.81-138.61-135-213.88-196-21.07-17.08-40.21-36.53-63.64-50.68-5.61-3.39-7.24-12.5-3.07-17.67,1.38-1.71,6.06-2.51,8.27-1.54,58.61,25.71,115.13,55.3,166.67,93.53,52,38.6,103.6,77.86,155.37,116.84,2.43,1.83,4.83,3.72,7.59,5.85,14.56-14.26,28.7-28.36,43.11-42.17,69.17-66.25,143-126.74,223.07-179.39,14.44-9.5,30.46-16.77,46.27-23.93,13.94-6.3,27.85-6.42,41.15,3.54,8,6,11.89,13.74,13.48,22.7,5.11,28.78-4.91,52.51-27.57,69.89-24,18.41-49.15,35.29-74,52.53-55.72,38.61-107.82,81.73-158.91,126.17-9.52,8.29-19.37,16.2-29,24.32-2.13,1.79-4.16,3.72-6.66,6,15.51,13.73,30.5,26.91,45.39,40.2C1137.91,599.06,1207,672.66,1268.75,753c14.85,19.3,26.63,41.22,37.9,62.93,9.08,17.5,10.52,37.14,6.36,56.57-2.42,11.28-7.56,21.36-20.1,24.65-15.44,4-26.52-4-35.47-14.77-19.68-23.61-38.83-47.66-57.85-71.8-39.73-50.45-83.75-97-128.7-142.74-37.24-37.91-73.82-76.48-110.67-114.78C957.93,550.63,955.87,548,952.92,544.57Z" transform="translate(-605.82 -181.85)"/></svg>