<svg id="Livello_2" data-name="Livello 2" xmlns="http://www.w3.org/2000/svg" viewBox="0 0 863.85 657.34"><defs><style>.cls-1{fill:#fff;}</style></defs><path class="cls-1" d="M920.81,221.88c-2.68-8.56,4.89-17.26,13.61-15.22,23.07,5.4,37,29.31,56.28,43.18,63.69,45.89,125.6,94.92,192.77,135.09,47.12,28.18,102.46,42.26,152.65,65.8,25.7,12,49.55,29.35,71.37,47.69,8.5,7.14,15.22,26,11.65,35.23-3.69,9.6-20.66,19.43-32.07,19.72-33.12.83-66.4-2.63-99.55-5.21-56.69-4.41-113.25-11.28-170-13.57-40.58-1.64-51.34,20.82-31.11,56.18,35.78,62.51,71.9,124.85,105.92,188.31,4.75,8.86,4.16,20.58,4.15,32a11.86,11.86,0,0,1-10.39,11.76c-12.45,1.53-25,3.64-36.5.93-19.94-4.7-38.07-16.52-57.6-23.57-40.8-14.73-61.45-43.33-68.18-86-17.69-112.23-35-224.6-57-336C956.64,326.92,938.15,277.33,920.81,221.88ZM1074.2,497.62l89.19-7.17c11.66-.93,15.1-16.41,4.93-22.2l-89.21-50.71a11.88,11.88,0,0,0-17.75,10.33v57.86A11.92,11.92,0,0,0,1074.2,497.62Z" transform="translate(-556.27 -179.15)"/><path class="cls-1" d="M807.37,543.05a16.19,16.19,0,0,0-16.43,12.1C784.67,579,775.71,603.22,778.48,626c5.12,42.06,20.89,82.87,32.81,124,7.87,27.15,41.77,57.2-3.15,79.29-41.8,20.55-104.71-5.55-116.37-46.28-27.55-96.19-31.89-193.93,3.79-288.1,18.63-49.16,10.68-81.47-24.25-119.2-39.5-42.67-71.13-92.91-104-141.33-22-32.37-10.46-51.29,28.53-53,9.73-.42,19.53.4,29.25-.15,128.31-7.26,142.75-1.13,158,107.48,1.32,9.43,5.14,18.52,10.38,29.34,6.42,13.27,25.87,11.66,30.12-2.46,4-13.22,7.19-24.6,9.23-36.19,9.62-54.54,70.05-93.19,116.83-65.92,14.36,8.37,20.06,51.89,12.42,73.08C949.84,320.47,924,349.73,902.4,379.9c-23.26,32.52-22.65,60.15,10.27,86,15.26,12,26.74,28.87,42.2,40.51,43.06,32.43,38.39,58.61-2.61,91.1-65.84,52.16-71.55,52.67-113.74-21.27-5.34-9.36-12.12-17.89-18.64-26.57a16.35,16.35,0,0,0-12.3-6.59Z" transform="translate(-556.27 -179.15)"/></svg>