<svg id="Livello_2" data-name="Livello 2" xmlns="http://www.w3.org/2000/svg" viewBox="0 0 782.16 595.17"><defs><style>.cls-1{fill:#e60000;}</style></defs><path class="cls-1" d="M370.91,69.77C368.49,62,375.34,54.14,383.24,56c20.88,4.89,33.5,26.54,50.95,39.1C491.86,136.64,547.91,181,608.73,217.4,651.4,242.91,701.5,255.66,747,277c23.26,10.86,44.86,26.57,64.62,43.18,7.69,6.46,13.78,23.54,10.54,31.89-3.34,8.7-18.7,17.6-29,17.86-30,.75-60.12-2.38-90.14-4.72C651.61,361.2,600.4,355,549,352.91c-36.74-1.49-46.49,18.85-28.17,50.86,32.4,56.6,65.1,113.05,95.9,170.5,4.3,8,3.77,18.64,3.76,29a10.74,10.74,0,0,1-9.41,10.65c-11.27,1.38-22.63,3.29-33,.84-18.06-4.26-34.47-15-52.16-21.34-36.94-13.34-55.64-39.24-61.73-77.87-16-101.62-31.69-203.36-51.61-304.22C403.35,164.88,386.61,120,370.91,69.77ZM509.8,319.43l80.75-6.49c10.56-.84,13.67-14.86,4.46-20.1l-80.77-45.91a10.75,10.75,0,0,0-16.07,9.35v52.39A10.79,10.79,0,0,0,509,319.46Z" transform="translate(-40.84 -31.06)"/><path class="cls-1" d="M268.2,360.57a14.66,14.66,0,0,0-14.88,10.95c-5.67,21.6-13.79,43.53-11.28,64.15,4.64,38.08,18.92,75,29.71,112.27,7.13,24.59,37.82,51.79-2.85,71.8-37.85,18.6-94.81-5-105.37-41.91C138.59,490.74,134.66,402.24,167,317c16.87-44.51,9.67-73.77-22-107.93-35.77-38.63-64.4-84.12-94.17-128-19.92-29.31-9.47-46.44,25.84-48,8.81-.38,17.68.36,26.48-.14,116.17-6.57,129.25-1,143.06,97.32,1.19,8.54,4.65,16.77,9.4,26.56,5.81,12,23.42,10.56,27.27-2.22,3.62-12,6.51-22.28,8.35-32.77C300,72.47,354.67,37.47,397,62.16c13,7.58,18.17,47,11.25,66.17-11.07,30.71-34.47,57.2-54,84.52-21.06,29.44-20.5,54.46,9.3,77.86,13.82,10.87,24.21,26.14,38.21,36.68,39,29.36,34.76,53.07-2.36,82.49-59.62,47.22-64.79,47.68-103-19.26-4.83-8.48-11-16.2-16.87-24.06a14.84,14.84,0,0,0-11.14-6Z" transform="translate(-40.84 -31.06)"/></svg>